<?xml version="1.0" encoding="utf-8"?>
<!-- Generator: Adobe Illustrator 27.0.0, SVG Export Plug-In . SVG Version: 6.00 Build 0)  -->
<svg version="1.1" id="Capa_1" xmlns="http://www.w3.org/2000/svg" xmlns:xlink="http://www.w3.org/1999/xlink" x="0px" y="0px"
	 viewBox="0 0 2000 2000" style="enable-background:new 0 0 2000 2000;" xml:space="preserve">
<style type="text/css">
	.st0{stroke:#000000;stroke-width:10;stroke-miterlimit:10;}
	.st1{fill:#FFFFFF;stroke:#FFFFFF;stroke-miterlimit:10;}
	.st2{fill:#FFFFFF;}
	.st3{stroke:#000000;stroke-miterlimit:10;}
	.st4{fill:#FFFFFE;}
	.st5{stroke:url(#SVGID_1_);stroke-miterlimit:10;}
	.st6{fill:none;}
	.st7{display:none;fill:#FFFFFF;}
	.st8{font-family:'BerlinSansFBDemi-Bold';}
	.st9{font-size:880px;}
	.st10{display:none;}
	.st11{display:inline;fill:none;}
	.st12{display:inline;fill:none;stroke:#FFFFFF;stroke-miterlimit:10;}
	.st13{font-size:242px;}
	.st14{letter-spacing:-7;}
	.st15{display:inline;}
	.st16{fill:url(#SVGID_00000029764482399829262270000015150821921592811450_);}
	.st17{fill:url(#SVGID_00000108989966181651821790000013211468819178964921_);}
	.st18{fill:url(#SVGID_00000094593152706293553590000010067531035335848376_);}
	.st19{fill:url(#SVGID_00000098210035704223661340000004082047780952103584_);}
	.st20{fill:url(#SVGID_00000103243381361102772720000008474920801710022049_);}
	.st21{fill:url(#SVGID_00000039847631483439257530000009306536469211495086_);}
	.st22{fill:url(#SVGID_00000063625964581790878750000004130282489890191543_);}
	.st23{fill:url(#SVGID_00000016790844462792679650000016203704782658871741_);}
	.st24{fill:url(#SVGID_00000149358417676950371920000001027965145262951584_);}
	.st25{fill:url(#SVGID_00000067926550796628519580000004318867737515319483_);}
	.st26{fill:url(#SVGID_00000043431155915160994810000010013372094993114752_);}
</style>
<path class="st0" d="M1678.047,1932.3853l-297.1641,25.4712c-11.5875,0.9933-23.212,1.4905-34.842,1.4905h-799.137
	c-17.2833,0-34.5412-1.3264-51.6215-3.9678l-192.2822-29.7343c-92.1192-26.9618-152.783-48.2812-152.783-149.4128V755.0576
	c0-7.4453,6.0356-13.4808,13.4809-13.4808h1660.3916c7.4452,0,13.4808,6.0356,13.4808,13.4808v1021.1744
	C1837.5704,1877.3636,1772.413,1912.1641,1678.047,1932.3853z"/>
<g>
	<path class="st1" d="M828.5264,950.8691c0,3.1553-2.8667,4.7266-8.5938,4.7266c-21.4844,0-54.0732-1.8599-97.7539-5.5859
		c-43.687-3.7197-76.417-5.5859-98.1836-5.5859c-27.5,0-43.5459,1.0068-48.125,3.0078c-10.6011,4.874-15.8984,18.624-15.8984,41.25
		c0,27.2178,6.875,42.6865,20.625,46.4062c5.7271,1.4365,14.4619,2.1484,26.2109,2.1484c19.7656,0,49.3403-1.0742,88.7305-3.2227
		c39.3838-2.1484,68.9648-3.2227,88.7305-3.2227c9.4531,0,14.1797,25.2109,14.1797,75.625c0,43.8281-1.5776,69.3271-4.7266,76.4844
		c-2.0073,5.1562-5.8745,7.7344-11.6016,7.7344c3.7197,0-5.3037-1-27.0703-3.0078c-30.6553-2.8604-77.0615-4.2969-139.2188-4.2969
		c-20.0542,0-31.3672,0.1475-33.9453,0.4297c-14.6094,2.2959-21.9141,8.4531-21.9141,18.4766
		c0,40.6797,1.7188,87.5156,5.1562,140.5078c2.8604,47.8428,4.2969,69.1797,4.2969,64.0234c0,7.4453-9.0234,11.7422-27.0703,12.8906
		c4.8677-0.2891-7.8818-0.4297-38.2422-0.4297c-53.5698,0-88.0859-1.8662-103.5547-5.5859
		c-8.3115-2.001-12.4609-6.4453-12.4609-13.3203c0-31.7969,1.0742-79.5596,3.2227-143.3008
		c2.1484-63.7344,3.2227-111.5039,3.2227-143.3008c0-37.8125-1.7188-85.3604-5.1562-142.6562
		c-5.1562-88.5156-7.8818-136.0635-8.1641-142.6562l-0.4297-5.1562c-0.2886-7.1572,4.0083-10.7422,12.8906-10.7422
		c21.1958,0,53.2075,0.4297,96.0352,1.2891c42.8213,0.8594,74.9805,1.2891,96.4648,1.2891c22.9146,0,57.3633-1.7188,103.3398-5.1562
		s80.4189-5.1562,103.3398-5.1562c14.3208,0,22.3438,5.8745,24.0625,17.6172c0,12.3198,0.5708,30.7964,1.7188,55.4297
		c0.5708,6.3042,2.4307,18.4766,5.5859,36.5234C827.0898,930.103,828.5264,942.2754,828.5264,950.8691z"/>
	<path class="st1" d="M1381.1045,1316.5332c0,4.5859-3.0078,10.6016-9.0234,18.0469
		c-52.7109,62.7344-122.75,94.1016-210.1172,94.1016c-89.375,0-161.8511-30.5078-217.4219-91.5234
		c-54.1406-59.0078-81.2109-133.4854-81.2109-223.4375c0-87.0791,26.4932-160.9854,79.4922-221.7188
		c55.2822-63.5938,125.6094-95.3906,210.9766-95.3906c92.8125,0,165.5703,28.5068,218.2812,85.5078
		c5.7266,6.3042,8.5938,11.8901,8.5938,16.7578c0,5.4448-9.957,25.6401-29.8633,60.5859
		c-19.9141,34.9521-32.4414,54.5703-37.5977,58.8672c-2.2969,2.2959-5.1562,3.4375-8.5938,3.4375
		c-1.4375,0-8.5938-5.7266-21.4844-17.1875c-15.4688-13.75-30.6562-24.4922-45.5469-32.2266
		c-22.6328-11.4541-46.125-17.1875-70.4688-17.1875c-42.1094,0-75.7734,15.7573-100.9766,47.2656
		c-23.2031,29.2188-34.8047,65.3125-34.8047,108.2812c0,43.5459,11.6016,80.0693,34.8047,109.5703
		c25.2031,32.0859,58.8672,48.125,100.9766,48.125c24.9219,0,48.5547-5.4385,70.8984-16.3281
		c14.6094-7.1572,29.5-17.1875,44.6875-30.0781c12.6016-10.8828,19.6172-16.3281,21.0547-16.3281
		c2.8594,0,5.7266,1.5781,8.5938,4.7266c4.5781,5.1562,17.0391,23.0625,37.3828,53.7109
		C1370.6436,1295.9082,1381.1045,1313.3848,1381.1045,1316.5332z"/>
	<path class="st1" d="M1601.9639,1096.1035c0,33.8047,0.8594,84.6484,2.5781,152.5391s2.5781,118.7412,2.5781,152.5391
		c0,5.7334-1.2891,9.3125-3.8672,10.7422c-0.5771,0.2891-4.2969,0.8594-11.1719,1.7188
		c-18.624,2.2891-43.5459,3.4375-74.7656,3.4375c-41.8271,0-68.4678-1.1484-79.9219-3.4375
		c-8.3115-1.7188-12.4609-6.1562-12.4609-13.3203c0,4.5859,1.2891-20.625,3.8672-75.625
		c5.1562-116.0156,7.7344-192.2109,7.7344-228.5938c0-30.6484-1.0068-76.625-3.0078-137.9297
		c-2.0078-61.2979-3.0078-107.2744-3.0078-137.9297c0-6.2979,3.29-9.4531,9.8828-9.4531c8.876,0,22.2695,0.4297,40.1758,1.2891
		c17.8994,0.8594,31.293,1.2891,40.1758,1.2891c8.876,0,21.9814-0.4297,39.3164-1.2891
		c17.3281-0.8594,30.4336-1.2891,39.3164-1.2891c8.3047,0,12.4609,3.1553,12.4609,9.4531c0,30.6553-1.6514,76.6318-4.9414,137.9297
		C1603.6084,1019.4785,1601.9639,1065.4551,1601.9639,1096.1035z"/>
</g>
<g>
	<g>
		<path class="st1" d="M424.5117,1712.9102c0,9.2959,0.2363,23.2783,0.709,41.9482s0.709,32.6543,0.709,41.9482
			c0,1.5771-0.3545,2.5605-1.0635,2.9541c-0.1587,0.0791-1.1816,0.2363-3.0723,0.4727c-5.1216,0.6299-11.9751,0.9453-20.5605,0.9453
			c-11.5024,0-18.8286-0.3154-21.9785-0.9453c-2.2856-0.4727-3.4268-1.6934-3.4268-3.6631c0,1.2607,0.3545-5.6719,1.0635-20.7969
			c1.418-31.9043,2.127-52.8584,2.127-62.8633c0-8.4287-0.2769-21.0723-0.8271-37.9307c-0.5522-16.8564-0.8271-29.5-0.8271-37.9307
			c0-1.7314,0.9048-2.5996,2.7178-2.5996c2.4409,0,6.124,0.1182,11.0483,0.3545c4.9224,0.2363,8.6055,0.3545,11.0483,0.3545
			c2.4409,0,6.0449-0.1182,10.812-0.3545c4.7651-0.2363,8.3691-0.3545,10.812-0.3545c2.2837,0,3.4268,0.8682,3.4268,2.5996
			c0,8.4307-0.4541,21.0742-1.3589,37.9307C424.9639,1691.8379,424.5117,1704.4814,424.5117,1712.9102z"/>
		<path class="st1" d="M521.9453,1745.8779c0,15.9932-6.7354,29.7002-20.2061,41.1211
			c-11.8164,10.085-26.1938,16.502-43.1299,19.2607c-0.6313,0.0771-1.1431,0.1182-1.5361,0.1182
			c-1.813,0-5.8306-5.5352-12.0527-16.6016c-6.2241-11.0674-9.335-17.8232-9.335-20.2656c0-0.8662,0.5908-1.418,1.7725-1.6543
			c11.4214-2.5996,18.9839-4.8037,22.6875-6.6172c8.1919-4.0947,12.2891-10.1621,12.2891-18.1973
			c0-5.1201-2.6792-10.8301-8.0352-17.1338c-9.2964-10.7119-14.3384-16.6611-15.125-17.8428
			c-5.4355-8.1924-8.1533-17.252-8.1533-27.1777c0-14.416,6.6558-26.3896,19.9697-35.9219
			c10.8711-7.876,24.2236-12.998,40.0576-15.3613c0.8657-0.0771,1.5361-0.1182,2.0088-0.1182c1.1816,0,2.127,0.9453,2.8359,2.8359
			c2.0474,5.751,6.813,16.1494,14.2979,31.1953c0.2363,0.4727,0.3545,0.8682,0.3545,1.1816c0,1.3408-0.709,2.0088-2.127,2.0088
			c-0.6313,0-1.6948-0.1182-3.1904-0.3545c-1.4976-0.2363-2.6401-0.3545-3.4268-0.3545c-5.6719,0-10.6348,1.2998-14.8887,3.8994
			c-5.1216,2.9951-7.6807,7.1689-7.6807,12.5254c0,4.8057,2.8359,10.7139,8.5078,17.7246
			c10.0034,12.6045,15.2432,19.2217,15.7158,19.8516C519.1479,1728.667,521.9453,1737.293,521.9453,1745.8779z"/>
		<path class="st1" d="M672.3159,1773.5283c0,1.2607-0.8271,2.915-2.4814,4.9629c-14.4956,17.252-33.7563,25.8779-57.7822,25.8779
			c-24.5781,0-44.5093-8.3896-59.791-25.1689c-14.8887-16.2275-22.333-36.708-22.333-61.4453
			c0-23.9463,7.2856-44.2705,21.8604-60.9727c15.2026-17.4883,34.5425-26.2324,58.0186-26.2324
			c25.5234,0,45.5317,7.8398,60.0273,23.5146c1.5747,1.7334,2.3633,3.2695,2.3633,4.6084c0,1.4971-2.7383,7.0508-8.2124,16.6611
			c-5.4761,9.6123-8.9214,15.0068-10.3394,16.1885c-0.6313,0.6318-1.418,0.9453-2.3633,0.9453c-0.395,0-2.3633-1.5752-5.9082-4.7266
			c-4.2539-3.7812-8.4302-6.7354-12.5254-8.8623c-6.2241-3.1494-12.6841-4.7266-19.3789-4.7266
			c-11.5801,0-20.8374,4.333-27.7686,12.998c-6.3809,8.0352-9.5713,17.9609-9.5713,29.7773c0,11.9756,3.1904,22.0195,9.5713,30.1318
			c6.9312,8.8232,16.1885,13.2344,27.7686,13.2344c6.8535,0,13.3525-1.4951,19.4971-4.4902
			c4.0176-1.9678,8.1128-4.7266,12.2891-8.2715c3.4653-2.9932,5.395-4.4902,5.79-4.4902c0.7866,0,1.5747,0.4336,2.3633,1.2998
			c1.2593,1.418,4.686,6.3418,10.2803,14.7705C669.4395,1767.8564,672.3159,1772.6621,672.3159,1773.5283z"/>
		<path class="st1" d="M761.3599,1709.2471c0,2.4424-0.5522,5.6328-1.6543,9.5713c-0.9453,3.1514-1.8521,6.3418-2.7178,9.5713
			c-0.3159,3.9404-1.0635,9.6504-2.2451,17.1338c-0.2363,1.1045-1.1816,1.6543-2.8359,1.6543
			c-2.9946,0-7.5034-0.0391-13.5298-0.1182c-6.0264-0.0771-10.5757-0.1182-13.6479-0.1182c-8.2715,0-19.3789,0.75-33.3223,2.2451
			c-0.7886,0.0791-2.9155,0.3955-6.3809,0.9453c-2.7583,0.4727-4.9243,0.709-6.499,0.709c-2.0493,0-3.0723-1.9297-3.0723-5.79
			c0-2.0479,1.3384-7.7578,4.0176-17.1338c2.5996-8.9014,4.4902-14.6523,5.6719-17.252c0.5503-1.2588,1.5747-1.8906,3.0723-1.8906
			c3.0723,0,7.6807,0.1592,13.8252,0.4727c6.1445,0.3154,10.7529,0.4727,13.8252,0.4727c6.4585,0,17.1338-0.9453,32.0225-2.8359
			c7.7988-1.0225,11.4619-1.5361,10.9893-1.5361C760.5327,1705.3477,761.3599,1706.6475,761.3599,1709.2471z"/>
		<path class="st1" d="M821.335,1712.9102c0,9.2959,0.2363,23.2783,0.709,41.9482s0.709,32.6543,0.709,41.9482
			c0,1.5771-0.3545,2.5605-1.0635,2.9541c-0.1587,0.0791-1.1816,0.2363-3.0723,0.4727c-5.1216,0.6299-11.9751,0.9453-20.5605,0.9453
			c-11.5024,0-18.8286-0.3154-21.9785-0.9453c-2.2856-0.4727-3.4268-1.6934-3.4268-3.6631c0,1.2607,0.3545-5.6719,1.0635-20.7969
			c1.418-31.9043,2.127-52.8584,2.127-62.8633c0-8.4287-0.2769-21.0723-0.8271-37.9307c-0.5522-16.8564-0.8271-29.5-0.8271-37.9307
			c0-1.7314,0.9048-2.5996,2.7178-2.5996c2.4409,0,6.124,0.1182,11.0483,0.3545c4.9224,0.2363,8.6055,0.3545,11.0483,0.3545
			c2.4409,0,6.0449-0.1182,10.812-0.3545c4.7651-0.2363,8.3691-0.3545,10.812-0.3545c2.2837,0,3.4268,0.8682,3.4268,2.5996
			c0,8.4307-0.4541,21.0742-1.3589,37.9307C821.7871,1691.8379,821.335,1704.4814,821.335,1712.9102z"/>
		<path class="st1" d="M992.3848,1716.4551c0,23.1602-7.4443,43.248-22.333,60.2637
			c-13.1567,15.2041-31.6294,23.2012-55.4189,23.9873c-4.5698,0.1572-17.1338,0.2363-37.6943,0.2363
			c-3.8608,0-9.6709-0.1182-17.4292-0.3545c-7.7603-0.2363-13.5703-0.3545-17.4292-0.3545c-2.2856,0-3.4268-0.9043-3.4268-2.7178
			c0-8.665,0.334-21.6826,1.0044-39.0537c0.6685-17.3691,1.0044-30.3857,1.0044-39.0527c0-9.0576-0.3359-22.6289-1.0044-40.707
			c-0.6704-18.0801-1.0044-31.6094-1.0044-40.5898c0-1.6543,1.1411-2.6387,3.4268-2.9541
			c5.5923-0.6299,14.7705-0.9453,27.5322-0.9453c24.2622,0,39.978,0.3545,47.1475,1.0635
			c18.6699,1.8906,33.2817,6.6172,43.8389,14.1797c9.9258,7.0898,17.7632,17.0156,23.5146,29.7773
			C989.6265,1691.2861,992.3848,1703.6934,992.3848,1716.4551z M947.1279,1716.4551c0-13.3115-3.979-24.1826-11.9346-32.6133
			c-8.0352-8.7441-18.6699-13.1162-31.9043-13.1162c-12.1323,0-18.1973,1.6152-18.1973,4.8447
			c0,4.6494-0.0796,11.6396-0.2363,20.9736c-0.1587,9.3359-0.2363,16.3271-0.2363,20.9746c0,4.5693,0.0776,11.4434,0.2363,20.6191
			c0.1567,9.1787,0.2363,16.0908,0.2363,20.7383c0,3.3877,6.3013,5.0811,18.9062,5.0811c13.6274,0,24.3418-4.5293,32.1406-13.5889
			C943.4648,1741.7832,947.1279,1730.4775,947.1279,1716.4551z"/>
		<path class="st1" d="M1179.6221,1796.5703c0,2.4424-1.1426,3.6631-3.4277,3.6631h-41.8301c-2.2852,0-3.4258-1.377-3.4258-4.1357
			c0-7.9561,0.2949-19.8906,0.8848-35.8037c0.5918-15.9111,0.8867-27.8457,0.8867-35.8037c0-2.2842-0.3535-3.5039-1.0625-3.6631
			c-0.8691,0.4727-6.1445,12.6436-15.834,36.5127c-5.6719,14.0225-11.3438,28.0049-17.0156,41.9482
			c-0.7891,1.8115-1.7734,2.875-2.9551,3.1904c-0.3945,0.0771-1.9688,0.1182-4.7266,0.1182c-4.0957,0-6.5391-0.7881-7.3262-2.3633
			c-4.2539-8.665-9.8477-21.2695-16.7793-37.8125c-7.4043-17.4883-12.959-30.1318-16.6602-37.9307
			c-0.1602-0.3936-0.5137-0.8271-1.0645-1.2998c-0.5508,0.709-0.8262,1.8516-0.8262,3.4268c0,7.7217,0.1953,19.3018,0.5898,34.7402
			c0.3945,15.4404,0.5918,27.0205,0.5918,34.7402c0,2.7588-1.1055,4.1357-3.3086,4.1357h-39.4668
			c-1.5771,0-2.541-0.2549-2.8955-0.7676c-0.3545-0.5117-0.5312-1.3984-0.5312-2.6592c0-8.585,0.4131-21.4854,1.2402-38.6982
			c0.8271-17.2119,1.2412-30.1123,1.2412-38.6992c0-9.1377-0.3955-26.2715-1.1816-51.4014
			c-0.0801-6.5381-0.4346-16.2656-1.0635-29.1865l-0.1182-2.0088c-0.0801-1.5752,1.5742-2.3633,4.9629-2.3633
			c4.3311,0,10.8301-0.1367,19.4971-0.4131c8.665-0.2754,15.1631-0.4141,19.4971-0.4141c0.8652,0,2.0859,1.6543,3.6621,4.9629
			l34.5039,75.7432c2.4414,5.1221,4.4902,7.6807,6.1445,7.6807c0.8672,0,2.7188-2.9541,5.5547-8.8623
			c7.9551-16.543,19.7324-41.4756,35.3301-74.7979c1.3398-3.0723,2.7949-4.6084,4.373-4.6084c2.2832,0,5.7305,0.1182,10.3379,0.3545
			c4.6094,0.2363,8.0957,0.3545,10.459,0.3545c1.9668,0,4.9805-0.1953,9.0391-0.5908c4.0566-0.3936,7.0703-0.5908,9.0391-0.5908
			c2.3633,0,3.5449,0.9453,3.5449,2.8359c0,9.2959-0.3359,23.1807-1.0039,41.6533c-0.6699,18.4736-1.0039,32.3584-1.0039,41.6523
			c0,8.5869,0.3535,21.4668,1.0625,38.6396C1179.2666,1775.2236,1179.6221,1788.0625,1179.6221,1796.5703z"/>
		<path class="st1" d="M1277.8818,1709.2471c0,2.4424-0.5518,5.6328-1.6543,9.5713c-0.9453,3.1514-1.8516,6.3418-2.7178,9.5713
			c-0.3154,3.9404-1.0635,9.6504-2.2451,17.1338c-0.2363,1.1045-1.1816,1.6543-2.8359,1.6543
			c-2.9951,0-7.5029-0.0391-13.5303-0.1182c-6.0254-0.0771-10.5752-0.1182-13.6475-0.1182c-8.2715,0-19.3789,0.75-33.3223,2.2451
			c-0.7881,0.0791-2.915,0.3955-6.3809,0.9453c-2.7588,0.4727-4.9238,0.709-6.499,0.709c-2.0498,0-3.0723-1.9297-3.0723-5.79
			c0-2.0479,1.3389-7.7578,4.0176-17.1338c2.5996-8.9014,4.4902-14.6523,5.6719-17.252c0.5498-1.2588,1.5752-1.8906,3.0723-1.8906
			c3.0723,0,7.6807,0.1592,13.8252,0.4727c6.1445,0.3154,10.7529,0.4727,13.8252,0.4727c6.458,0,17.1338-0.9453,32.0225-2.8359
			c7.7988-1.0225,11.4619-1.5361,10.9893-1.5361C1277.0547,1705.3477,1277.8818,1706.6475,1277.8818,1709.2471z"/>
		<path class="st1" d="M1337.8574,1712.9102c0,9.2959,0.2363,23.2783,0.709,41.9482s0.709,32.6543,0.709,41.9482
			c0,1.5771-0.3545,2.5605-1.0635,2.9541c-0.1592,0.0791-1.1816,0.2363-3.0723,0.4727c-5.1221,0.6299-11.9756,0.9453-20.5605,0.9453
			c-11.5029,0-18.8291-0.3154-21.9785-0.9453c-2.2861-0.4727-3.4268-1.6934-3.4268-3.6631c0,1.2607,0.3545-5.6719,1.0635-20.7969
			c1.418-31.9043,2.127-52.8584,2.127-62.8633c0-8.4287-0.2773-21.0723-0.8271-37.9307c-0.5518-16.8564-0.8271-29.5-0.8271-37.9307
			c0-1.7314,0.9043-2.5996,2.7178-2.5996c2.4404,0,6.124,0.1182,11.0488,0.3545c4.9219,0.2363,8.6055,0.3545,11.0479,0.3545
			c2.4404,0,6.0449-0.1182,10.8115-0.3545c4.7656-0.2363,8.3701-0.3545,10.8125-0.3545c2.2842,0,3.4268,0.8682,3.4268,2.5996
			c0,8.4307-0.4541,21.0742-1.3584,37.9307C1338.3096,1691.8379,1337.8574,1704.4814,1337.8574,1712.9102z"/>
		<path class="st1" d="M1469.7949,1670.6074c0,1.5771-0.8682,2.3633-2.5996,2.3633c-2.9951,0-14.8496-0.5908-35.5674-1.7725
			c-0.4727,19.9307-0.709,33.8359-0.709,41.7119c0,9.2959,0.373,23.2783,1.1221,41.9482c0.748,18.6699,1.123,32.6543,1.123,41.9482
			c0,1.4971-0.3545,2.4424-1.0635,2.8359c-0.2363,0.1592-1.3408,0.3545-3.3086,0.5908c-4.7266,0.6299-11.6592,0.9453-20.7969,0.9453
			c-10.1621,0-17.293-0.3154-21.3877-0.9453c-2.2061-0.3936-3.3086-1.6133-3.3086-3.6631c0-9.2939,0.3936-23.2373,1.1816-41.8301
			c0.7861-18.5908,1.1816-32.5342,1.1816-41.8301c0-6.1445-0.3154-19.8516-0.9453-41.1211
			c-15.7568,1.5771-28.3203,2.3633-37.6943,2.3633c-1.2607,0-1.8906-0.3936-1.8906-1.1816c0-1.0225,0.5498-4.0566,1.6543-9.0986
			c1.2588-5.5127,1.9678-8.8623,2.127-10.0439c0.2363-3.7021,0.5117-7.4033,0.8271-11.1074
			c0.5498-5.9082,1.4951-8.8623,2.8359-8.8623c0.1572,0,0.709,0.041,1.6543,0.1182c12.7617,1.6543,31.627,2.4814,56.6006,2.4814
			c7.0898,0,20.165-0.748,39.2305-2.2451c10.2393-0.7861,15.4004-1.1816,15.4795-1.1816c1.5752,0,2.4814,0.0996,2.7178,0.2959
			c0.2363,0.1973,0.3936,0.9648,0.4727,2.3037c0,2.127-0.0791,5.0811-0.2363,8.8623c-0.1592,4.1768-0.2363,7.1309-0.2363,8.8623
			c0,1.9697,0.2549,4.8652,0.7686,8.6846C1469.5381,1665.8623,1469.7949,1668.7168,1469.7949,1670.6074z"/>
		<path class="st1" d="M1613.1943,1773.5283c0,1.2607-0.8271,2.915-2.4814,4.9629c-14.4951,17.252-33.7559,25.8779-57.7822,25.8779
			c-24.5781,0-44.5088-8.3896-59.791-25.1689c-14.8887-16.2275-22.333-36.708-22.333-61.4453
			c0-23.9463,7.2852-44.2705,21.8604-60.9727c15.2021-17.4883,34.543-26.2324,58.0186-26.2324
			c25.5234,0,45.5322,7.8398,60.0273,23.5146c1.5752,1.7334,2.3633,3.2695,2.3633,4.6084c0,1.4971-2.7383,7.0508-8.2119,16.6611
			c-5.4766,9.6123-8.9219,15.0068-10.3398,16.1885c-0.6318,0.6318-1.418,0.9453-2.3633,0.9453
			c-0.3955,0-2.3633-1.5752-5.9082-4.7266c-4.2539-3.7812-8.4307-6.7354-12.5254-8.8623
			c-6.2236-3.1494-12.6846-4.7266-19.3789-4.7266c-11.5801,0-20.8379,4.333-27.7686,12.998
			c-6.3809,8.0352-9.5713,17.9609-9.5713,29.7773c0,11.9756,3.1904,22.0195,9.5713,30.1318
			c6.9307,8.8232,16.1885,13.2344,27.7686,13.2344c6.8535,0,13.3525-1.4951,19.4971-4.4902
			c4.0176-1.9678,8.1123-4.7266,12.2891-8.2715c3.4658-2.9932,5.3945-4.4902,5.79-4.4902c0.7861,0,1.5752,0.4336,2.3633,1.2998
			c1.2588,1.418,4.6855,6.3418,10.2803,14.7705C1610.3174,1767.8564,1613.1943,1772.6621,1613.1943,1773.5283z"/>
	</g>
	<g>
		<path class="st1" d="M424.5117,1712.9102c0,9.2959,0.2363,23.2783,0.709,41.9482s0.709,32.6543,0.709,41.9482
			c0,1.5771-0.3545,2.5605-1.0635,2.9541c-0.1587,0.0791-1.1816,0.2363-3.0723,0.4727c-5.1216,0.6299-11.9751,0.9453-20.5605,0.9453
			c-11.5024,0-18.8286-0.3154-21.9785-0.9453c-2.2856-0.4727-3.4268-1.6934-3.4268-3.6631c0,1.2607,0.3545-5.6719,1.0635-20.7969
			c1.418-31.9043,2.127-52.8584,2.127-62.8633c0-8.4287-0.2769-21.0723-0.8271-37.9307c-0.5522-16.8564-0.8271-29.5-0.8271-37.9307
			c0-1.7314,0.9048-2.5996,2.7178-2.5996c2.4409,0,6.124,0.1182,11.0483,0.3545c4.9224,0.2363,8.6055,0.3545,11.0483,0.3545
			c2.4409,0,6.0449-0.1182,10.812-0.3545c4.7651-0.2363,8.3691-0.3545,10.812-0.3545c2.2837,0,3.4268,0.8682,3.4268,2.5996
			c0,8.4307-0.4541,21.0742-1.3589,37.9307C424.9639,1691.8379,424.5117,1704.4814,424.5117,1712.9102z"/>
		<path class="st1" d="M521.9453,1745.8779c0,15.9932-6.7354,29.7002-20.2061,41.1211
			c-11.8164,10.085-26.1938,16.502-43.1299,19.2607c-0.6313,0.0771-1.1431,0.1182-1.5361,0.1182
			c-1.813,0-5.8306-5.5352-12.0527-16.6016c-6.2241-11.0674-9.335-17.8232-9.335-20.2656c0-0.8662,0.5908-1.418,1.7725-1.6543
			c11.4214-2.5996,18.9839-4.8037,22.6875-6.6172c8.1919-4.0947,12.2891-10.1621,12.2891-18.1973
			c0-5.1201-2.6792-10.8301-8.0352-17.1338c-9.2964-10.7119-14.3384-16.6611-15.125-17.8428
			c-5.4355-8.1924-8.1533-17.252-8.1533-27.1777c0-14.416,6.6558-26.3896,19.9697-35.9219
			c10.8711-7.876,24.2236-12.998,40.0576-15.3613c0.8657-0.0771,1.5361-0.1182,2.0088-0.1182c1.1816,0,2.127,0.9453,2.8359,2.8359
			c2.0474,5.751,6.813,16.1494,14.2979,31.1953c0.2363,0.4727,0.3545,0.8682,0.3545,1.1816c0,1.3408-0.709,2.0088-2.127,2.0088
			c-0.6313,0-1.6948-0.1182-3.1904-0.3545c-1.4976-0.2363-2.6401-0.3545-3.4268-0.3545c-5.6719,0-10.6348,1.2998-14.8887,3.8994
			c-5.1216,2.9951-7.6807,7.1689-7.6807,12.5254c0,4.8057,2.8359,10.7139,8.5078,17.7246
			c10.0034,12.6045,15.2432,19.2217,15.7158,19.8516C519.1479,1728.667,521.9453,1737.293,521.9453,1745.8779z"/>
		<path class="st1" d="M672.3159,1773.5283c0,1.2607-0.8271,2.915-2.4814,4.9629c-14.4956,17.252-33.7563,25.8779-57.7822,25.8779
			c-24.5781,0-44.5093-8.3896-59.791-25.1689c-14.8887-16.2275-22.333-36.708-22.333-61.4453
			c0-23.9463,7.2856-44.2705,21.8604-60.9727c15.2026-17.4883,34.5425-26.2324,58.0186-26.2324
			c25.5234,0,45.5317,7.8398,60.0273,23.5146c1.5747,1.7334,2.3633,3.2695,2.3633,4.6084c0,1.4971-2.7383,7.0508-8.2124,16.6611
			c-5.4761,9.6123-8.9214,15.0068-10.3394,16.1885c-0.6313,0.6318-1.418,0.9453-2.3633,0.9453c-0.395,0-2.3633-1.5752-5.9082-4.7266
			c-4.2539-3.7812-8.4302-6.7354-12.5254-8.8623c-6.2241-3.1494-12.6841-4.7266-19.3789-4.7266
			c-11.5801,0-20.8374,4.333-27.7686,12.998c-6.3809,8.0352-9.5713,17.9609-9.5713,29.7773c0,11.9756,3.1904,22.0195,9.5713,30.1318
			c6.9312,8.8232,16.1885,13.2344,27.7686,13.2344c6.8535,0,13.3525-1.4951,19.4971-4.4902
			c4.0176-1.9678,8.1128-4.7266,12.2891-8.2715c3.4653-2.9932,5.395-4.4902,5.79-4.4902c0.7866,0,1.5747,0.4336,2.3633,1.2998
			c1.2593,1.418,4.686,6.3418,10.2803,14.7705C669.4395,1767.8564,672.3159,1772.6621,672.3159,1773.5283z"/>
		<path class="st1" d="M761.3599,1709.2471c0,2.4424-0.5522,5.6328-1.6543,9.5713c-0.9453,3.1514-1.8521,6.3418-2.7178,9.5713
			c-0.3159,3.9404-1.0635,9.6504-2.2451,17.1338c-0.2363,1.1045-1.1816,1.6543-2.8359,1.6543
			c-2.9946,0-7.5034-0.0391-13.5298-0.1182c-6.0264-0.0771-10.5757-0.1182-13.6479-0.1182c-8.2715,0-19.3789,0.75-33.3223,2.2451
			c-0.7886,0.0791-2.9155,0.3955-6.3809,0.9453c-2.7583,0.4727-4.9243,0.709-6.499,0.709c-2.0493,0-3.0723-1.9297-3.0723-5.79
			c0-2.0479,1.3384-7.7578,4.0176-17.1338c2.5996-8.9014,4.4902-14.6523,5.6719-17.252c0.5503-1.2588,1.5747-1.8906,3.0723-1.8906
			c3.0723,0,7.6807,0.1592,13.8252,0.4727c6.1445,0.3154,10.7529,0.4727,13.8252,0.4727c6.4585,0,17.1338-0.9453,32.0225-2.8359
			c7.7988-1.0225,11.4619-1.5361,10.9893-1.5361C760.5327,1705.3477,761.3599,1706.6475,761.3599,1709.2471z"/>
		<path class="st1" d="M821.335,1712.9102c0,9.2959,0.2363,23.2783,0.709,41.9482s0.709,32.6543,0.709,41.9482
			c0,1.5771-0.3545,2.5605-1.0635,2.9541c-0.1587,0.0791-1.1816,0.2363-3.0723,0.4727c-5.1216,0.6299-11.9751,0.9453-20.5605,0.9453
			c-11.5024,0-18.8286-0.3154-21.9785-0.9453c-2.2856-0.4727-3.4268-1.6934-3.4268-3.6631c0,1.2607,0.3545-5.6719,1.0635-20.7969
			c1.418-31.9043,2.127-52.8584,2.127-62.8633c0-8.4287-0.2769-21.0723-0.8271-37.9307c-0.5522-16.8564-0.8271-29.5-0.8271-37.9307
			c0-1.7314,0.9048-2.5996,2.7178-2.5996c2.4409,0,6.124,0.1182,11.0483,0.3545c4.9224,0.2363,8.6055,0.3545,11.0483,0.3545
			c2.4409,0,6.0449-0.1182,10.812-0.3545c4.7651-0.2363,8.3691-0.3545,10.812-0.3545c2.2837,0,3.4268,0.8682,3.4268,2.5996
			c0,8.4307-0.4541,21.0742-1.3589,37.9307C821.7871,1691.8379,821.335,1704.4814,821.335,1712.9102z"/>
		<path class="st1" d="M992.3848,1716.4551c0,23.1602-7.4443,43.248-22.333,60.2637
			c-13.1567,15.2041-31.6294,23.2012-55.4189,23.9873c-4.5698,0.1572-17.1338,0.2363-37.6943,0.2363
			c-3.8608,0-9.6709-0.1182-17.4292-0.3545c-7.7603-0.2363-13.5703-0.3545-17.4292-0.3545c-2.2856,0-3.4268-0.9043-3.4268-2.7178
			c0-8.665,0.334-21.6826,1.0044-39.0537c0.6685-17.3691,1.0044-30.3857,1.0044-39.0527c0-9.0576-0.3359-22.6289-1.0044-40.707
			c-0.6704-18.0801-1.0044-31.6094-1.0044-40.5898c0-1.6543,1.1411-2.6387,3.4268-2.9541
			c5.5923-0.6299,14.7705-0.9453,27.5322-0.9453c24.2622,0,39.978,0.3545,47.1475,1.0635
			c18.6699,1.8906,33.2817,6.6172,43.8389,14.1797c9.9258,7.0898,17.7632,17.0156,23.5146,29.7773
			C989.6265,1691.2861,992.3848,1703.6934,992.3848,1716.4551z M947.1279,1716.4551c0-13.3115-3.979-24.1826-11.9346-32.6133
			c-8.0352-8.7441-18.6699-13.1162-31.9043-13.1162c-12.1323,0-18.1973,1.6152-18.1973,4.8447
			c0,4.6494-0.0796,11.6396-0.2363,20.9736c-0.1587,9.3359-0.2363,16.3271-0.2363,20.9746c0,4.5693,0.0776,11.4434,0.2363,20.6191
			c0.1567,9.1787,0.2363,16.0908,0.2363,20.7383c0,3.3877,6.3013,5.0811,18.9062,5.0811c13.6274,0,24.3418-4.5293,32.1406-13.5889
			C943.4648,1741.7832,947.1279,1730.4775,947.1279,1716.4551z"/>
		<path class="st1" d="M1179.6221,1796.5703c0,2.4424-1.1426,3.6631-3.4277,3.6631h-41.8301c-2.2852,0-3.4258-1.377-3.4258-4.1357
			c0-7.9561,0.2949-19.8906,0.8848-35.8037c0.5918-15.9111,0.8867-27.8457,0.8867-35.8037c0-2.2842-0.3535-3.5039-1.0625-3.6631
			c-0.8691,0.4727-6.1445,12.6436-15.834,36.5127c-5.6719,14.0225-11.3438,28.0049-17.0156,41.9482
			c-0.7891,1.8115-1.7734,2.875-2.9551,3.1904c-0.3945,0.0771-1.9688,0.1182-4.7266,0.1182c-4.0957,0-6.5391-0.7881-7.3262-2.3633
			c-4.2539-8.665-9.8477-21.2695-16.7793-37.8125c-7.4043-17.4883-12.959-30.1318-16.6602-37.9307
			c-0.1602-0.3936-0.5137-0.8271-1.0645-1.2998c-0.5508,0.709-0.8262,1.8516-0.8262,3.4268c0,7.7217,0.1953,19.3018,0.5898,34.7402
			c0.3945,15.4404,0.5918,27.0205,0.5918,34.7402c0,2.7588-1.1055,4.1357-3.3086,4.1357h-39.4668
			c-1.5771,0-2.541-0.2549-2.8955-0.7676c-0.3545-0.5117-0.5312-1.3984-0.5312-2.6592c0-8.585,0.4131-21.4854,1.2402-38.6982
			c0.8271-17.2119,1.2412-30.1123,1.2412-38.6992c0-9.1377-0.3955-26.2715-1.1816-51.4014
			c-0.0801-6.5381-0.4346-16.2656-1.0635-29.1865l-0.1182-2.0088c-0.0801-1.5752,1.5742-2.3633,4.9629-2.3633
			c4.3311,0,10.8301-0.1367,19.4971-0.4131c8.665-0.2754,15.1631-0.4141,19.4971-0.4141c0.8652,0,2.0859,1.6543,3.6621,4.9629
			l34.5039,75.7432c2.4414,5.1221,4.4902,7.6807,6.1445,7.6807c0.8672,0,2.7188-2.9541,5.5547-8.8623
			c7.9551-16.543,19.7324-41.4756,35.3301-74.7979c1.3398-3.0723,2.7949-4.6084,4.373-4.6084c2.2832,0,5.7305,0.1182,10.3379,0.3545
			c4.6094,0.2363,8.0957,0.3545,10.459,0.3545c1.9668,0,4.9805-0.1953,9.0391-0.5908c4.0566-0.3936,7.0703-0.5908,9.0391-0.5908
			c2.3633,0,3.5449,0.9453,3.5449,2.8359c0,9.2959-0.3359,23.1807-1.0039,41.6533c-0.6699,18.4736-1.0039,32.3584-1.0039,41.6523
			c0,8.5869,0.3535,21.4668,1.0625,38.6396C1179.2666,1775.2236,1179.6221,1788.0625,1179.6221,1796.5703z"/>
		<path class="st1" d="M1277.8818,1709.2471c0,2.4424-0.5518,5.6328-1.6543,9.5713c-0.9453,3.1514-1.8516,6.3418-2.7178,9.5713
			c-0.3154,3.9404-1.0635,9.6504-2.2451,17.1338c-0.2363,1.1045-1.1816,1.6543-2.8359,1.6543
			c-2.9951,0-7.5029-0.0391-13.5303-0.1182c-6.0254-0.0771-10.5752-0.1182-13.6475-0.1182c-8.2715,0-19.3789,0.75-33.3223,2.2451
			c-0.7881,0.0791-2.915,0.3955-6.3809,0.9453c-2.7588,0.4727-4.9238,0.709-6.499,0.709c-2.0498,0-3.0723-1.9297-3.0723-5.79
			c0-2.0479,1.3389-7.7578,4.0176-17.1338c2.5996-8.9014,4.4902-14.6523,5.6719-17.252c0.5498-1.2588,1.5752-1.8906,3.0723-1.8906
			c3.0723,0,7.6807,0.1592,13.8252,0.4727c6.1445,0.3154,10.7529,0.4727,13.8252,0.4727c6.458,0,17.1338-0.9453,32.0225-2.8359
			c7.7988-1.0225,11.4619-1.5361,10.9893-1.5361C1277.0547,1705.3477,1277.8818,1706.6475,1277.8818,1709.2471z"/>
		<path class="st1" d="M1337.8574,1712.9102c0,9.2959,0.2363,23.2783,0.709,41.9482s0.709,32.6543,0.709,41.9482
			c0,1.5771-0.3545,2.5605-1.0635,2.9541c-0.1592,0.0791-1.1816,0.2363-3.0723,0.4727c-5.1221,0.6299-11.9756,0.9453-20.5605,0.9453
			c-11.5029,0-18.8291-0.3154-21.9785-0.9453c-2.2861-0.4727-3.4268-1.6934-3.4268-3.6631c0,1.2607,0.3545-5.6719,1.0635-20.7969
			c1.418-31.9043,2.127-52.8584,2.127-62.8633c0-8.4287-0.2773-21.0723-0.8271-37.9307c-0.5518-16.8564-0.8271-29.5-0.8271-37.9307
			c0-1.7314,0.9043-2.5996,2.7178-2.5996c2.4404,0,6.124,0.1182,11.0488,0.3545c4.9219,0.2363,8.6055,0.3545,11.0479,0.3545
			c2.4404,0,6.0449-0.1182,10.8115-0.3545c4.7656-0.2363,8.3701-0.3545,10.8125-0.3545c2.2842,0,3.4268,0.8682,3.4268,2.5996
			c0,8.4307-0.4541,21.0742-1.3584,37.9307C1338.3096,1691.8379,1337.8574,1704.4814,1337.8574,1712.9102z"/>
		<path class="st1" d="M1469.7949,1670.6074c0,1.5771-0.8682,2.3633-2.5996,2.3633c-2.9951,0-14.8496-0.5908-35.5674-1.7725
			c-0.4727,19.9307-0.709,33.8359-0.709,41.7119c0,9.2959,0.373,23.2783,1.1221,41.9482c0.748,18.6699,1.123,32.6543,1.123,41.9482
			c0,1.4971-0.3545,2.4424-1.0635,2.8359c-0.2363,0.1592-1.3408,0.3545-3.3086,0.5908c-4.7266,0.6299-11.6592,0.9453-20.7969,0.9453
			c-10.1621,0-17.293-0.3154-21.3877-0.9453c-2.2061-0.3936-3.3086-1.6133-3.3086-3.6631c0-9.2939,0.3936-23.2373,1.1816-41.8301
			c0.7861-18.5908,1.1816-32.5342,1.1816-41.8301c0-6.1445-0.3154-19.8516-0.9453-41.1211
			c-15.7568,1.5771-28.3203,2.3633-37.6943,2.3633c-1.2607,0-1.8906-0.3936-1.8906-1.1816c0-1.0225,0.5498-4.0566,1.6543-9.0986
			c1.2588-5.5127,1.9678-8.8623,2.127-10.0439c0.2363-3.7021,0.5117-7.4033,0.8271-11.1074
			c0.5498-5.9082,1.4951-8.8623,2.8359-8.8623c0.1572,0,0.709,0.041,1.6543,0.1182c12.7617,1.6543,31.627,2.4814,56.6006,2.4814
			c7.0898,0,20.165-0.748,39.2305-2.2451c10.2393-0.7861,15.4004-1.1816,15.4795-1.1816c1.5752,0,2.4814,0.0996,2.7178,0.2959
			c0.2363,0.1973,0.3936,0.9648,0.4727,2.3037c0,2.127-0.0791,5.0811-0.2363,8.8623c-0.1592,4.1768-0.2363,7.1309-0.2363,8.8623
			c0,1.9697,0.2549,4.8652,0.7686,8.6846C1469.5381,1665.8623,1469.7949,1668.7168,1469.7949,1670.6074z"/>
		<path class="st1" d="M1613.1943,1773.5283c0,1.2607-0.8271,2.915-2.4814,4.9629c-14.4951,17.252-33.7559,25.8779-57.7822,25.8779
			c-24.5781,0-44.5088-8.3896-59.791-25.1689c-14.8887-16.2275-22.333-36.708-22.333-61.4453
			c0-23.9463,7.2852-44.2705,21.8604-60.9727c15.2021-17.4883,34.543-26.2324,58.0186-26.2324
			c25.5234,0,45.5322,7.8398,60.0273,23.5146c1.5752,1.7334,2.3633,3.2695,2.3633,4.6084c0,1.4971-2.7383,7.0508-8.2119,16.6611
			c-5.4766,9.6123-8.9219,15.0068-10.3398,16.1885c-0.6318,0.6318-1.418,0.9453-2.3633,0.9453
			c-0.3955,0-2.3633-1.5752-5.9082-4.7266c-4.2539-3.7812-8.4307-6.7354-12.5254-8.8623
			c-6.2236-3.1494-12.6846-4.7266-19.3789-4.7266c-11.5801,0-20.8379,4.333-27.7686,12.998
			c-6.3809,8.0352-9.5713,17.9609-9.5713,29.7773c0,11.9756,3.1904,22.0195,9.5713,30.1318
			c6.9307,8.8232,16.1885,13.2344,27.7686,13.2344c6.8535,0,13.3525-1.4951,19.4971-4.4902
			c4.0176-1.9678,8.1123-4.7266,12.2891-8.2715c3.4658-2.9932,5.3945-4.4902,5.79-4.4902c0.7861,0,1.5752,0.4336,2.3633,1.2998
			c1.2588,1.418,4.6855,6.3418,10.2803,14.7705C1610.3174,1767.8564,1613.1943,1772.6621,1613.1943,1773.5283z"/>
	</g>
</g>
<rect x="139.264" y="1461.1172" class="st2" width="1709.166" height="40.4426"/>
<path class="st3" d="M162.4479,712.3683h1663.6407c11.9252,0,21.5924-9.6672,21.5924-21.5924V524.2585
	c0-11.9251-9.6672-21.5923-21.5924-21.5923H162.4479c-11.9251,0-21.5924,9.6672-21.5924,21.5923v166.5174
	C140.8555,702.701,150.5227,712.3683,162.4479,712.3683z"/>
<circle class="st4" cx="264.1959" cy="609.5768" r="33"/>
<polygon class="st4" points="763.5491,538.8491 581.5576,538.8491 453.4895,683.113 635.481,683.113 "/>
<polygon class="st4" points="1089.1492,538.8491 907.1577,538.8491 779.0895,683.113 961.0811,683.113 "/>
<polygon class="st4" points="1419.1492,536.6491 1237.1576,536.6491 1109.0896,680.913 1291.0811,680.913 "/>
<polygon class="st4" points="1746.9491,536.6491 1564.9576,536.6491 1436.8895,680.913 1618.881,680.913 "/>
<linearGradient id="SVGID_1_" gradientUnits="userSpaceOnUse" x1="120.4227" y1="306.5385" x2="1827.016" y2="306.5385">
	<stop  offset="0" style="stop-color:#FFFFFE"/>
	<stop  offset="0.2672" style="stop-color:#CBCEE0;stop-opacity:0.7328"/>
	<stop  offset="0.7743" style="stop-color:#667CA8;stop-opacity:0.2257"/>
	<stop  offset="1" style="stop-color:#3B6194;stop-opacity:0"/>
</linearGradient>
<path class="st5" d="M181.128,579.8843l1628.2229-341.454c11.6713-2.4476,19.1486-13.8931,16.7009-25.5644L1791.875,49.8935
	c-2.4475-11.6712-13.8931-19.1485-25.5643-16.7009L138.0877,374.6467c-11.6712,2.4476-19.1485,13.8931-16.7009,25.5644
	l34.1769,162.9724C158.0112,574.8547,169.4568,582.3319,181.128,579.8843z"/>
<circle class="st4" cx="259.6125" cy="458.3979" r="33"/>
<polygon class="st4" points="733.8182,286.6862 555.7013,324.0391 459.9691,491.517 638.0861,454.1642 "/>
<polygon class="st4" points="1052.4865,219.8585 874.3694,257.2113 778.6373,424.6892 956.7543,387.3364 "/>
<polygon class="st4" points="1375.0094,149.9744 1196.8925,187.3273 1101.1603,354.8052 1279.2772,317.4523 "/>
<polygon class="st4" points="1695.8307,82.6951 1517.7137,120.048 1421.9816,287.5258 1600.0986,250.173 "/>
<rect x="345.1278" y="793.2534" class="st6" width="1460.4255" height="734.7064"/>
<text transform="matrix(1 0 0 1 345.1278 1413.6425)" class="st7 st8 st9">FCI</text>
<g class="st10">
	<rect x="365.6658" y="1629.6278" class="st11" width="1341.028" height="176.9362"/>
	<text transform="matrix(1 0 0 1 365.6659 1800.2333)" class="st12 st8 st13 st14">ISC-IDM-ITC</text>
	<g class="st15">
		
			<linearGradient id="SVGID_00000080924385758078719700000005475527418308900996_" gradientUnits="userSpaceOnUse" x1="776.5556" y1="1717.9321" x2="1102.9398" y2="1717.9321">
			<stop  offset="0" style="stop-color:#FFFFFE"/>
			<stop  offset="1" style="stop-color:#FFFFFF"/>
		</linearGradient>
		<path style="fill:url(#SVGID_00000080924385758078719700000005475527418308900996_);" d="M424.5117,1712.9102
			c0,9.2959,0.2363,23.2783,0.709,41.9482s0.709,32.6543,0.709,41.9482c0,1.5771-0.3545,2.5605-1.0635,2.9541
			c-0.1587,0.0791-1.1816,0.2363-3.0723,0.4727c-5.1216,0.6299-11.9751,0.9453-20.5605,0.9453
			c-11.5024,0-18.8286-0.3154-21.9785-0.9453c-2.2856-0.4727-3.4268-1.6934-3.4268-3.6631c0,1.2607,0.3545-5.6719,1.0635-20.7969
			c1.418-31.9043,2.127-52.8584,2.127-62.8633c0-8.4287-0.2769-21.0723-0.8271-37.9307c-0.5522-16.8564-0.8271-29.5-0.8271-37.9307
			c0-1.7314,0.9048-2.5996,2.7178-2.5996c2.4409,0,6.124,0.1182,11.0483,0.3545c4.9224,0.2363,8.6055,0.3545,11.0483,0.3545
			c2.4409,0,6.0449-0.1182,10.812-0.3545c4.7651-0.2363,8.3691-0.3545,10.812-0.3545c2.2837,0,3.4268,0.8682,3.4268,2.5996
			c0,8.4307-0.4541,21.0742-1.3589,37.9307C424.9639,1691.8379,424.5117,1704.4814,424.5117,1712.9102z"/>
		
			<linearGradient id="SVGID_00000023959907903411237660000017808575768462276257_" gradientUnits="userSpaceOnUse" x1="776.5556" y1="1717.9321" x2="1102.9398" y2="1717.9321">
			<stop  offset="0" style="stop-color:#FFFFFE"/>
			<stop  offset="1" style="stop-color:#FFFFFF"/>
		</linearGradient>
		<path style="fill:url(#SVGID_00000023959907903411237660000017808575768462276257_);" d="M521.9453,1745.8779
			c0,15.9932-6.7354,29.7002-20.2061,41.1211c-11.8164,10.085-26.1938,16.502-43.1299,19.2607
			c-0.6313,0.0771-1.1431,0.1182-1.5361,0.1182c-1.813,0-5.8306-5.5352-12.0527-16.6016
			c-6.2241-11.0674-9.335-17.8232-9.335-20.2656c0-0.8662,0.5908-1.418,1.7725-1.6543c11.4214-2.5996,18.9839-4.8037,22.6875-6.6172
			c8.1919-4.0947,12.2891-10.1621,12.2891-18.1973c0-5.1201-2.6792-10.8301-8.0352-17.1338
			c-9.2964-10.7119-14.3384-16.6611-15.125-17.8428c-5.4355-8.1924-8.1533-17.252-8.1533-27.1777
			c0-14.416,6.6558-26.3896,19.9697-35.9219c10.8711-7.876,24.2236-12.998,40.0576-15.3613
			c0.8657-0.0771,1.5361-0.1182,2.0088-0.1182c1.1816,0,2.127,0.9453,2.8359,2.8359c2.0474,5.751,6.813,16.1494,14.2979,31.1953
			c0.2363,0.4727,0.3545,0.8682,0.3545,1.1816c0,1.3408-0.709,2.0088-2.127,2.0088c-0.6313,0-1.6948-0.1182-3.1904-0.3545
			c-1.4976-0.2363-2.6401-0.3545-3.4268-0.3545c-5.6719,0-10.6348,1.2998-14.8887,3.8994
			c-5.1216,2.9951-7.6807,7.1689-7.6807,12.5254c0,4.8057,2.8359,10.7139,8.5078,17.7246
			c10.0034,12.6045,15.2432,19.2217,15.7158,19.8516C519.1479,1728.667,521.9453,1737.293,521.9453,1745.8779z"/>
		
			<linearGradient id="SVGID_00000126311182753253610910000005390143581530077878_" gradientUnits="userSpaceOnUse" x1="776.5556" y1="1717.9321" x2="1102.9398" y2="1717.9321">
			<stop  offset="0" style="stop-color:#FFFFFE"/>
			<stop  offset="1" style="stop-color:#FFFFFF"/>
		</linearGradient>
		<path style="fill:url(#SVGID_00000126311182753253610910000005390143581530077878_);" d="M672.3159,1773.5283
			c0,1.2607-0.8271,2.915-2.4814,4.9629c-14.4956,17.252-33.7563,25.8779-57.7822,25.8779c-24.5781,0-44.5093-8.3896-59.791-25.1689
			c-14.8887-16.2275-22.333-36.708-22.333-61.4453c0-23.9463,7.2856-44.2705,21.8604-60.9727
			c15.2026-17.4883,34.5425-26.2324,58.0186-26.2324c25.5234,0,45.5317,7.8398,60.0273,23.5146
			c1.5747,1.7334,2.3633,3.2695,2.3633,4.6084c0,1.4971-2.7383,7.0508-8.2124,16.6611
			c-5.4761,9.6123-8.9214,15.0068-10.3394,16.1885c-0.6313,0.6318-1.418,0.9453-2.3633,0.9453c-0.395,0-2.3633-1.5752-5.9082-4.7266
			c-4.2539-3.7812-8.4302-6.7354-12.5254-8.8623c-6.2241-3.1494-12.6841-4.7266-19.3789-4.7266
			c-11.5801,0-20.8374,4.333-27.7686,12.998c-6.3809,8.0352-9.5713,17.9609-9.5713,29.7773c0,11.9756,3.1904,22.0195,9.5713,30.1318
			c6.9312,8.8232,16.1885,13.2344,27.7686,13.2344c6.8535,0,13.3525-1.4951,19.4971-4.4902
			c4.0176-1.9678,8.1128-4.7266,12.2891-8.2715c3.4653-2.9932,5.395-4.4902,5.79-4.4902c0.7866,0,1.5747,0.4336,2.3633,1.2998
			c1.2593,1.418,4.686,6.3418,10.2803,14.7705C669.4395,1767.8564,672.3159,1772.6621,672.3159,1773.5283z"/>
		
			<linearGradient id="SVGID_00000175292558454238966830000010764772737073022848_" gradientUnits="userSpaceOnUse" x1="776.5556" y1="1717.9321" x2="1102.9398" y2="1717.9321">
			<stop  offset="0" style="stop-color:#FFFFFE"/>
			<stop  offset="1" style="stop-color:#FFFFFF"/>
		</linearGradient>
		<path style="fill:url(#SVGID_00000175292558454238966830000010764772737073022848_);" d="M761.3599,1709.2471
			c0,2.4424-0.5522,5.6328-1.6543,9.5713c-0.9453,3.1514-1.8521,6.3418-2.7178,9.5713c-0.3159,3.9404-1.0635,9.6504-2.2451,17.1338
			c-0.2363,1.1045-1.1816,1.6543-2.8359,1.6543c-2.9946,0-7.5034-0.0391-13.5298-0.1182
			c-6.0264-0.0771-10.5757-0.1182-13.6479-0.1182c-8.2715,0-19.3789,0.75-33.3223,2.2451
			c-0.7886,0.0791-2.9155,0.3955-6.3809,0.9453c-2.7583,0.4727-4.9243,0.709-6.499,0.709c-2.0493,0-3.0723-1.9297-3.0723-5.79
			c0-2.0479,1.3384-7.7578,4.0176-17.1338c2.5996-8.9014,4.4902-14.6523,5.6719-17.252c0.5503-1.2588,1.5747-1.8906,3.0723-1.8906
			c3.0723,0,7.6807,0.1592,13.8252,0.4727c6.1445,0.3154,10.7529,0.4727,13.8252,0.4727c6.4585,0,17.1338-0.9453,32.0225-2.8359
			c7.7988-1.0225,11.4619-1.5361,10.9893-1.5361C760.5327,1705.3477,761.3599,1706.6475,761.3599,1709.2471z"/>
		
			<linearGradient id="SVGID_00000075884710476606988650000003192414727357941176_" gradientUnits="userSpaceOnUse" x1="776.5556" y1="1717.9321" x2="1102.9398" y2="1717.9321">
			<stop  offset="0" style="stop-color:#FFFFFE"/>
			<stop  offset="1" style="stop-color:#FFFFFF"/>
		</linearGradient>
		<path style="fill:url(#SVGID_00000075884710476606988650000003192414727357941176_);" d="M821.335,1712.9102
			c0,9.2959,0.2363,23.2783,0.709,41.9482s0.709,32.6543,0.709,41.9482c0,1.5771-0.3545,2.5605-1.0635,2.9541
			c-0.1587,0.0791-1.1816,0.2363-3.0723,0.4727c-5.1216,0.6299-11.9751,0.9453-20.5605,0.9453
			c-11.5024,0-18.8286-0.3154-21.9785-0.9453c-2.2856-0.4727-3.4268-1.6934-3.4268-3.6631c0,1.2607,0.3545-5.6719,1.0635-20.7969
			c1.418-31.9043,2.127-52.8584,2.127-62.8633c0-8.4287-0.2769-21.0723-0.8271-37.9307c-0.5522-16.8564-0.8271-29.5-0.8271-37.9307
			c0-1.7314,0.9048-2.5996,2.7178-2.5996c2.4409,0,6.124,0.1182,11.0483,0.3545c4.9224,0.2363,8.6055,0.3545,11.0483,0.3545
			c2.4409,0,6.0449-0.1182,10.812-0.3545c4.7651-0.2363,8.3691-0.3545,10.812-0.3545c2.2837,0,3.4268,0.8682,3.4268,2.5996
			c0,8.4307-0.4541,21.0742-1.3589,37.9307C821.7871,1691.8379,821.335,1704.4814,821.335,1712.9102z"/>
		
			<linearGradient id="SVGID_00000052104037565283947260000005503302505082763930_" gradientUnits="userSpaceOnUse" x1="776.5556" y1="1717.9321" x2="1102.9398" y2="1717.9321">
			<stop  offset="0" style="stop-color:#FFFFFE"/>
			<stop  offset="1" style="stop-color:#FFFFFF"/>
		</linearGradient>
		<path style="fill:url(#SVGID_00000052104037565283947260000005503302505082763930_);" d="M992.3848,1716.4551
			c0,23.1602-7.4443,43.248-22.333,60.2637c-13.1567,15.2041-31.6294,23.2012-55.4189,23.9873
			c-4.5698,0.1572-17.1338,0.2363-37.6943,0.2363c-3.8608,0-9.6709-0.1182-17.4292-0.3545
			c-7.7603-0.2363-13.5703-0.3545-17.4292-0.3545c-2.2856,0-3.4268-0.9043-3.4268-2.7178c0-8.665,0.334-21.6826,1.0044-39.0537
			c0.6685-17.3691,1.0044-30.3857,1.0044-39.0527c0-9.0576-0.3359-22.6289-1.0044-40.707
			c-0.6704-18.0801-1.0044-31.6094-1.0044-40.5898c0-1.6543,1.1411-2.6387,3.4268-2.9541
			c5.5923-0.6299,14.7705-0.9453,27.5322-0.9453c24.2622,0,39.978,0.3545,47.1475,1.0635
			c18.6699,1.8906,33.2817,6.6172,43.8389,14.1797c9.9258,7.0898,17.7632,17.0156,23.5146,29.7773
			C989.6265,1691.2861,992.3848,1703.6934,992.3848,1716.4551z M947.1279,1716.4551c0-13.3115-3.979-24.1826-11.9346-32.6133
			c-8.0352-8.7441-18.6699-13.1162-31.9043-13.1162c-12.1323,0-18.1973,1.6152-18.1973,4.8447
			c0,4.6494-0.0796,11.6396-0.2363,20.9736c-0.1587,9.3359-0.2363,16.3271-0.2363,20.9746c0,4.5693,0.0776,11.4434,0.2363,20.6191
			c0.1567,9.1787,0.2363,16.0908,0.2363,20.7383c0,3.3877,6.3013,5.0811,18.9062,5.0811c13.6274,0,24.3418-4.5293,32.1406-13.5889
			C943.4648,1741.7832,947.1279,1730.4775,947.1279,1716.4551z"/>
		
			<linearGradient id="SVGID_00000068671130905847634740000012586399290331508904_" gradientUnits="userSpaceOnUse" x1="776.5556" y1="1717.9321" x2="1102.9398" y2="1717.9321">
			<stop  offset="0" style="stop-color:#FFFFFE"/>
			<stop  offset="1" style="stop-color:#FFFFFF"/>
		</linearGradient>
		<path style="fill:url(#SVGID_00000068671130905847634740000012586399290331508904_);" d="M1179.6221,1796.5703
			c0,2.4424-1.1426,3.6631-3.4277,3.6631h-41.8301c-2.2852,0-3.4258-1.377-3.4258-4.1357c0-7.9561,0.2949-19.8906,0.8848-35.8037
			c0.5918-15.9111,0.8867-27.8457,0.8867-35.8037c0-2.2842-0.3535-3.5039-1.0625-3.6631
			c-0.8691,0.4727-6.1445,12.6436-15.834,36.5127c-5.6719,14.0225-11.3438,28.0049-17.0156,41.9482
			c-0.7891,1.8115-1.7734,2.875-2.9551,3.1904c-0.3945,0.0771-1.9688,0.1182-4.7266,0.1182c-4.0957,0-6.5391-0.7881-7.3262-2.3633
			c-4.2539-8.665-9.8477-21.2695-16.7793-37.8125c-7.4043-17.4883-12.959-30.1318-16.6602-37.9307
			c-0.1602-0.3936-0.5137-0.8271-1.0645-1.2998c-0.5508,0.709-0.8262,1.8516-0.8262,3.4268c0,7.7217,0.1953,19.3018,0.5898,34.7402
			c0.3945,15.4404,0.5918,27.0205,0.5918,34.7402c0,2.7588-1.1055,4.1357-3.3086,4.1357h-39.4668
			c-1.5771,0-2.541-0.2549-2.8955-0.7676c-0.3545-0.5117-0.5312-1.3984-0.5312-2.6592c0-8.585,0.4131-21.4854,1.2402-38.6982
			c0.8271-17.2119,1.2412-30.1123,1.2412-38.6992c0-9.1377-0.3955-26.2715-1.1816-51.4014
			c-0.0801-6.5381-0.4346-16.2656-1.0635-29.1865l-0.1182-2.0088c-0.0801-1.5752,1.5742-2.3633,4.9629-2.3633
			c4.3311,0,10.8301-0.1367,19.4971-0.4131c8.665-0.2754,15.1631-0.4141,19.4971-0.4141c0.8652,0,2.0859,1.6543,3.6621,4.9629
			l34.5039,75.7432c2.4414,5.1221,4.4902,7.6807,6.1445,7.6807c0.8672,0,2.7188-2.9541,5.5547-8.8623
			c7.9551-16.543,19.7324-41.4756,35.3301-74.7979c1.3398-3.0723,2.7949-4.6084,4.373-4.6084c2.2832,0,5.7305,0.1182,10.3379,0.3545
			c4.6094,0.2363,8.0957,0.3545,10.459,0.3545c1.9668,0,4.9805-0.1953,9.0391-0.5908c4.0566-0.3936,7.0703-0.5908,9.0391-0.5908
			c2.3633,0,3.5449,0.9453,3.5449,2.8359c0,9.2959-0.3359,23.1807-1.0039,41.6533c-0.6699,18.4736-1.0039,32.3584-1.0039,41.6523
			c0,8.5869,0.3535,21.4668,1.0625,38.6396C1179.2666,1775.2236,1179.6221,1788.0625,1179.6221,1796.5703z"/>
		
			<linearGradient id="SVGID_00000137132091771199261680000008122092382421839007_" gradientUnits="userSpaceOnUse" x1="776.5556" y1="1717.9321" x2="1102.9398" y2="1717.9321">
			<stop  offset="0" style="stop-color:#FFFFFE"/>
			<stop  offset="1" style="stop-color:#FFFFFF"/>
		</linearGradient>
		<path style="fill:url(#SVGID_00000137132091771199261680000008122092382421839007_);" d="M1277.8818,1709.2471
			c0,2.4424-0.5518,5.6328-1.6543,9.5713c-0.9453,3.1514-1.8516,6.3418-2.7178,9.5713c-0.3154,3.9404-1.0635,9.6504-2.2451,17.1338
			c-0.2363,1.1045-1.1816,1.6543-2.8359,1.6543c-2.9951,0-7.5029-0.0391-13.5303-0.1182
			c-6.0254-0.0771-10.5752-0.1182-13.6475-0.1182c-8.2715,0-19.3789,0.75-33.3223,2.2451c-0.7881,0.0791-2.915,0.3955-6.3809,0.9453
			c-2.7588,0.4727-4.9238,0.709-6.499,0.709c-2.0498,0-3.0723-1.9297-3.0723-5.79c0-2.0479,1.3389-7.7578,4.0176-17.1338
			c2.5996-8.9014,4.4902-14.6523,5.6719-17.252c0.5498-1.2588,1.5752-1.8906,3.0723-1.8906c3.0723,0,7.6807,0.1592,13.8252,0.4727
			c6.1445,0.3154,10.7529,0.4727,13.8252,0.4727c6.458,0,17.1338-0.9453,32.0225-2.8359
			c7.7988-1.0225,11.4619-1.5361,10.9893-1.5361C1277.0547,1705.3477,1277.8818,1706.6475,1277.8818,1709.2471z"/>
		
			<linearGradient id="SVGID_00000169528665952421186810000013004700288283633041_" gradientUnits="userSpaceOnUse" x1="776.5556" y1="1717.9321" x2="1102.9398" y2="1717.9321">
			<stop  offset="0" style="stop-color:#FFFFFE"/>
			<stop  offset="1" style="stop-color:#FFFFFF"/>
		</linearGradient>
		<path style="fill:url(#SVGID_00000169528665952421186810000013004700288283633041_);" d="M1337.8574,1712.9102
			c0,9.2959,0.2363,23.2783,0.709,41.9482s0.709,32.6543,0.709,41.9482c0,1.5771-0.3545,2.5605-1.0635,2.9541
			c-0.1592,0.0791-1.1816,0.2363-3.0723,0.4727c-5.1221,0.6299-11.9756,0.9453-20.5605,0.9453
			c-11.5029,0-18.8291-0.3154-21.9785-0.9453c-2.2861-0.4727-3.4268-1.6934-3.4268-3.6631c0,1.2607,0.3545-5.6719,1.0635-20.7969
			c1.418-31.9043,2.127-52.8584,2.127-62.8633c0-8.4287-0.2773-21.0723-0.8271-37.9307c-0.5518-16.8564-0.8271-29.5-0.8271-37.9307
			c0-1.7314,0.9043-2.5996,2.7178-2.5996c2.4404,0,6.124,0.1182,11.0488,0.3545c4.9219,0.2363,8.6055,0.3545,11.0479,0.3545
			c2.4404,0,6.0449-0.1182,10.8115-0.3545c4.7656-0.2363,8.3701-0.3545,10.8125-0.3545c2.2842,0,3.4268,0.8682,3.4268,2.5996
			c0,8.4307-0.4541,21.0742-1.3584,37.9307C1338.3096,1691.8379,1337.8574,1704.4814,1337.8574,1712.9102z"/>
		
			<linearGradient id="SVGID_00000044136526182859818550000000484222499327789706_" gradientUnits="userSpaceOnUse" x1="776.5556" y1="1717.9321" x2="1102.9398" y2="1717.9321">
			<stop  offset="0" style="stop-color:#FFFFFE"/>
			<stop  offset="1" style="stop-color:#FFFFFF"/>
		</linearGradient>
		<path style="fill:url(#SVGID_00000044136526182859818550000000484222499327789706_);" d="M1469.7949,1670.6074
			c0,1.5771-0.8682,2.3633-2.5996,2.3633c-2.9951,0-14.8496-0.5908-35.5674-1.7725c-0.4727,19.9307-0.709,33.8359-0.709,41.7119
			c0,9.2959,0.373,23.2783,1.1221,41.9482c0.748,18.6699,1.123,32.6543,1.123,41.9482c0,1.4971-0.3545,2.4424-1.0635,2.8359
			c-0.2363,0.1592-1.3408,0.3545-3.3086,0.5908c-4.7266,0.6299-11.6592,0.9453-20.7969,0.9453
			c-10.1621,0-17.293-0.3154-21.3877-0.9453c-2.2061-0.3936-3.3086-1.6133-3.3086-3.6631c0-9.2939,0.3936-23.2373,1.1816-41.8301
			c0.7861-18.5908,1.1816-32.5342,1.1816-41.8301c0-6.1445-0.3154-19.8516-0.9453-41.1211
			c-15.7568,1.5771-28.3203,2.3633-37.6943,2.3633c-1.2607,0-1.8906-0.3936-1.8906-1.1816c0-1.0225,0.5498-4.0566,1.6543-9.0986
			c1.2588-5.5127,1.9678-8.8623,2.127-10.0439c0.2363-3.7021,0.5117-7.4033,0.8271-11.1074
			c0.5498-5.9082,1.4951-8.8623,2.8359-8.8623c0.1572,0,0.709,0.041,1.6543,0.1182c12.7617,1.6543,31.627,2.4814,56.6006,2.4814
			c7.0898,0,20.165-0.748,39.2305-2.2451c10.2393-0.7861,15.4004-1.1816,15.4795-1.1816c1.5752,0,2.4814,0.0996,2.7178,0.2959
			c0.2363,0.1973,0.3936,0.9648,0.4727,2.3037c0,2.127-0.0791,5.0811-0.2363,8.8623c-0.1592,4.1768-0.2363,7.1309-0.2363,8.8623
			c0,1.9697,0.2549,4.8652,0.7686,8.6846C1469.5381,1665.8623,1469.7949,1668.7168,1469.7949,1670.6074z"/>
		
			<linearGradient id="SVGID_00000116230080430632500610000007607603175674307210_" gradientUnits="userSpaceOnUse" x1="776.5556" y1="1717.9321" x2="1102.9398" y2="1717.9321">
			<stop  offset="0" style="stop-color:#FFFFFE"/>
			<stop  offset="1" style="stop-color:#FFFFFF"/>
		</linearGradient>
		<path style="fill:url(#SVGID_00000116230080430632500610000007607603175674307210_);" d="M1613.1943,1773.5283
			c0,1.2607-0.8271,2.915-2.4814,4.9629c-14.4951,17.252-33.7559,25.8779-57.7822,25.8779c-24.5781,0-44.5088-8.3896-59.791-25.1689
			c-14.8887-16.2275-22.333-36.708-22.333-61.4453c0-23.9463,7.2852-44.2705,21.8604-60.9727
			c15.2021-17.4883,34.543-26.2324,58.0186-26.2324c25.5234,0,45.5322,7.8398,60.0273,23.5146
			c1.5752,1.7334,2.3633,3.2695,2.3633,4.6084c0,1.4971-2.7383,7.0508-8.2119,16.6611
			c-5.4766,9.6123-8.9219,15.0068-10.3398,16.1885c-0.6318,0.6318-1.418,0.9453-2.3633,0.9453
			c-0.3955,0-2.3633-1.5752-5.9082-4.7266c-4.2539-3.7812-8.4307-6.7354-12.5254-8.8623
			c-6.2236-3.1494-12.6846-4.7266-19.3789-4.7266c-11.5801,0-20.8379,4.333-27.7686,12.998
			c-6.3809,8.0352-9.5713,17.9609-9.5713,29.7773c0,11.9756,3.1904,22.0195,9.5713,30.1318
			c6.9307,8.8232,16.1885,13.2344,27.7686,13.2344c6.8535,0,13.3525-1.4951,19.4971-4.4902
			c4.0176-1.9678,8.1123-4.7266,12.2891-8.2715c3.4658-2.9932,5.3945-4.4902,5.79-4.4902c0.7861,0,1.5752,0.4336,2.3633,1.2998
			c1.2588,1.418,4.6855,6.3418,10.2803,14.7705C1610.3174,1767.8564,1613.1943,1772.6621,1613.1943,1773.5283z"/>
	</g>
</g>
</svg>
