<?xml version="1.0" encoding="UTF-8"?>
<svg id="Capa_1" data-name="Capa 1" xmlns="http://www.w3.org/2000/svg" xmlns:xlink="http://www.w3.org/1999/xlink" viewBox="0 0 1602.3617 1647.2979">
  <defs>
    <style>
      .cls-1, .cls-2 {
        fill: #fff;
      }

      .cls-3, .cls-4, .cls-2, .cls-5 {
        stroke-miterlimit: 10;
      }

      .cls-3, .cls-5 {
        stroke: #000;
      }

      .cls-4 {
        stroke: url(#Degradado_sin_nombre);
      }

      .cls-6 {
        fill: #fffffe;
      }

      .cls-7 {
        fill: none;
      }

      .cls-2 {
        stroke: #fff;
      }

      .cls-5 {
        stroke-width: 10px;
      }
    </style>
    <linearGradient id="Degradado_sin_nombre" data-name="Degradado sin nombre" x1="150.2244" y1="1374.1852" x2="1464.5312" y2="1374.1852" gradientTransform="translate(0 1654.1064) scale(1 -1)" gradientUnits="userSpaceOnUse">
      <stop offset="0" stop-color="#fffffe"/>
      <stop offset=".2672" stop-color="#cbcee0" stop-opacity=".7328"/>
      <stop offset=".7743" stop-color="#667ca8" stop-opacity=".2257"/>
      <stop offset="1" stop-color="#3b6194" stop-opacity="0"/>
    </linearGradient>
  </defs>
  <path class="cls-5" d="M1349.7101,1531.8232l-228.8163,19.6128c-8.9224,.7648-17.8733,1.1477-26.8284,1.1477H478.7298c-13.3082,0-26.5967-1.0213-39.7485-3.0552l-148.0573-22.8954c-70.9318-20.7606-117.6429-37.1766-117.6429-115.0479V625.2809c0-5.7329,4.6474-10.3802,10.3803-10.3802H1462.163c5.7328,0,10.3802,4.6474,10.3802,10.3802v786.3042c0,77.8714-50.1713,104.6677-122.8331,120.2381Z"/>
  <g>
    <path class="cls-2" d="M695.5792,776.0557c0,2.4296-2.2074,3.6395-6.6172,3.6395-16.543,0-41.6363-1.4321-75.2705-4.3011-33.639-2.8642-58.8411-4.3011-75.6014-4.3011-21.175,0-33.5303,.7752-37.0563,2.316-8.1628,3.753-12.2417,14.3405-12.2417,31.7625,0,20.9577,5.2938,32.8686,15.8813,35.7328,4.4099,1.1061,11.1357,1.6543,20.1824,1.6543,15.2195,0,37.9921-.8271,68.3225-2.4814,30.3255-1.6543,53.1029-2.4814,68.3225-2.4814,7.2789,0,10.9184,19.4124,10.9184,58.2313,0,33.7477-1.2147,53.3819-3.6395,58.893-1.5456,3.9703-4.5234,5.9555-8.9333,5.9555,2.8642,0-4.0839-.77-20.8441-2.316-23.6046-2.2025-59.3374-3.3086-107.1985-3.3086-15.4417,0-24.1527,.1135-26.1379,.3309-11.2492,1.7678-16.8739,6.5089-16.8739,14.227,0,31.3234,1.3235,67.387,3.9703,108.191,2.2025,36.8389,3.3086,53.2684,3.3086,49.298,0,5.7329-6.948,9.0415-20.8441,9.9258,3.7481-.2226-6.069-.3309-29.4465-.3309-41.2487,0-67.8261-1.437-79.7371-4.3012-6.3998-1.5408-9.5949-4.9629-9.5949-10.2566,0-24.4836,.8271-61.2609,2.4815-110.3416,1.6543-49.0755,2.4815-85.858,2.4815-110.3416,0-29.1156-1.3235-65.7275-3.9703-109.8453-3.9703-68.157-6.069-104.7689-6.2864-109.8453l-.3309-3.9703c-.2222-5.5111,3.0864-8.2715,9.9258-8.2715,16.3208,0,40.9698,.3309,73.9471,.9926,32.9724,.6617,57.735,.9926,74.2779,.9926,17.6443,0,44.1697-1.3235,79.5716-3.9703,35.4019-2.6468,61.9225-3.9703,79.5716-3.9703,11.027,0,17.2047,4.5234,18.5281,13.5652,0,9.4863,.4395,23.7132,1.3235,42.6809,.4395,4.8542,1.8717,14.227,4.3011,28.123,2.2027,12.1328,3.3089,21.5055,3.3089,28.1226Z"/>
    <path class="cls-2" d="M1121.0643,1057.6171c0,3.5312-2.316,8.1632-6.948,13.8961-40.5874,48.3055-94.5175,72.4582-161.7902,72.4582-68.8187,0-124.6253-23.491-167.4148-70.473-41.6883-45.436-62.5324-102.7837-62.5324-172.0469,0-67.0509,20.3998-123.9588,61.209-170.7235,42.5673-48.9672,96.7193-73.4508,162.452-73.4508,71.4656,0,127.4891,21.9502,168.0766,65.841,4.4095,4.8542,6.6172,9.1554,6.6172,12.9035,0,4.1925-7.6669,19.7429-22.9947,46.6511-15.3338,26.9131-24.9799,42.0191-28.9502,45.3277-1.7686,1.7678-3.9703,2.6469-6.6172,2.6469-1.1069,0-6.6172-4.4095-16.543-13.2344-11.9109-10.5875-23.6053-18.859-35.0711-24.8145-17.4273-8.8197-35.5162-13.2344-54.2609-13.2344-32.4242,0-58.3455,12.1331-77.752,36.3945-17.8664,22.4985-26.7996,50.2906-26.7996,83.3765,0,33.5303,8.9332,61.6534,26.7996,84.3691,19.4064,24.7062,45.3277,37.0563,77.752,37.0563,19.1898,0,37.3871-4.1876,54.5918-12.5727,11.2492-5.5111,22.715-13.2344,34.4094-23.1602,9.7032-8.3798,15.1052-12.5727,16.2121-12.5727,2.2017,0,4.4095,1.2152,6.6172,3.6395,3.5252,3.9703,13.1201,17.7581,28.7848,41.3574,16.0977,24.4838,24.1526,37.9407,24.1526,40.365Z"/>
    <path class="cls-2" d="M1291.126,887.8863c0,26.0296,.6617,65.1793,1.9852,117.4551,1.3234,52.2758,1.9852,91.4307,1.9852,117.4551,0,4.4147-.9926,7.1706-2.9777,8.2715-.4444,.2226-3.3086,.6617-8.6023,1.3234-14.3405,1.7626-33.5303,2.6469-57.5695,2.6469-32.2069,0-52.7202-.8843-61.5398-2.6469-6.3999-1.3234-9.5949-4.7403-9.5949-10.2566,0,3.5312,.9926-15.8812,2.9777-58.2313,3.9703-89.332,5.9555-148.0024,5.9555-176.0172,0-23.5993-.7753-59.0013-2.316-106.2059-1.546-47.1994-2.316-82.6013-2.316-106.2059,0-4.8494,2.5333-7.2789,7.6098-7.2789,6.8345,0,17.1475,.3309,30.9354,.9926,13.7825,.6617,24.0956,.9926,30.9354,.9926,6.8345,0,16.9257-.3309,30.2736-.9926,13.3427-.6617,23.4339-.9926,30.2736-.9926,6.3946,0,9.5949,2.4296,9.5949,7.2789,0,23.6046-1.2716,59.0065-3.8049,106.2059-2.5386,47.2046-3.8049,82.6066-3.8049,106.2059Z"/>
  </g>
  <g>
    <g>
      <path class="cls-2" d="M384.4879,1362.8274c0,7.1578,.1819,17.9243,.5459,32.3001s.5459,25.1438,.5459,32.3001c0,1.2144-.273,1.9716-.8189,2.2747-.1222,.0609-.9098,.182-2.3657,.3639-3.9436,.485-9.2208,.7279-15.8316,.7279-8.8569,0-14.498-.2429-16.9234-.7279-1.7599-.3639-2.6386-1.3039-2.6386-2.8206,0,.9708,.273-4.3673,.8189-16.0136,1.0919-24.5663,1.6378-40.701,1.6378-48.4047,0-6.4901-.2132-16.2256-.6369-29.2066-.4252-12.9795-.6369-22.715-.6369-29.2066,0-1.3332,.6967-2.0017,2.0927-2.0017,1.8795,0,4.7155,.091,8.5072,.273,3.7902,.182,6.6262,.273,8.5072,.273,1.8795,0,4.6546-.091,8.3252-.273,3.6691-.182,6.4442-.273,8.3252-.273,1.7584,0,2.6386,.6685,2.6386,2.0017,0,6.4916-.3497,16.2271-1.0463,29.2066-.6984,12.981-1.0466,22.7165-1.0466,29.2066Z"/>
      <path class="cls-2" d="M459.5118,1388.2126c0,12.3147-5.1863,22.8692-15.5587,31.6632-9.0986,7.7654-20.1692,12.7065-33.21,14.8308-.4861,.0594-.8802,.091-1.1828,.091-1.396,0-4.4896-4.2621-9.2806-12.7832-4.7925-8.5219-7.1879-13.7239-7.1879-15.6045,0-.667,.4549-1.0918,1.3648-1.2738,8.7945-2.0017,14.6176-3.6989,17.4694-5.0952,6.3078-3.1529,9.4626-7.8248,9.4626-14.0119,0-3.9425-2.063-8.3392-6.1871-13.193-7.1582-8.2482-11.0406-12.8291-11.6462-13.7389-4.1853-6.3081-6.278-13.284-6.278-20.9269,0-11.1003,5.125-20.32,15.3767-27.6598,8.3707-6.0645,18.6522-10.0085,30.8443-11.8282,.6666-.0594,1.1828-.091,1.5468-.091,.9098,0,1.6378,.7279,2.1836,2.1837,1.5765,4.4283,5.246,12.435,11.0094,24.0204,.182,.3639,.273,.6685,.273,.9099,0,1.0324-.5459,1.5468-1.6378,1.5468-.4861,0-1.305-.091-2.4566-.273-1.1532-.182-2.0329-.273-2.6386-.273-4.3674,0-8.1888,1.0008-11.4643,3.0025-3.9436,2.3062-5.9141,5.5201-5.9141,9.6446,0,3.7004,2.1836,8.2497,6.551,13.6479,7.7026,9.7055,11.7373,14.8007,12.1012,15.2857,4.3062,6.6736,6.4602,13.3156,6.4602,19.926Z"/>
      <path class="cls-2" d="M575.2971,1409.5034c0,.9708-.6369,2.2446-1.9107,3.8214-11.1616,13.284-25.9923,19.926-44.4923,19.926-18.9252,0-34.2721-6.46-46.0391-19.3801-11.4643-12.4952-17.1964-28.2652-17.1964-47.3129,0-18.4386,5.6099-34.0883,16.8325-46.9489,11.706-13.466,26.5977-20.199,44.6743-20.199,19.653,0,35.0594,6.0367,46.221,18.1063,1.2125,1.3347,1.8197,2.5175,1.8197,3.5485,0,1.1527-2.1085,5.4291-6.3235,12.8291-4.2166,7.4015-6.8695,11.5553-7.9614,12.4651-.4861,.4865-1.0919,.7279-1.8197,.7279-.3042,0-1.8197-1.2129-4.5493-3.6395-3.2755-2.9116-6.4912-5.1862-9.6446-6.824-4.7926-2.425-9.7667-3.6395-14.9218-3.6395-8.9167,0-16.0448,3.3364-21.3818,10.0085-4.9133,6.1871-7.3699,13.8299-7.3699,22.9286,0,9.2212,2.4566,16.955,7.3699,23.2015,5.337,6.7939,12.4651,10.1905,21.3818,10.1905,5.2772,0,10.2814-1.1512,15.0128-3.4575,3.0935-1.5152,6.2469-3.6395,9.4626-6.369,2.6683-2.3047,4.1542-3.4575,4.4583-3.4575,.6057,0,1.2125,.3339,1.8197,1.0008,.9696,1.0918,3.6082,4.8832,7.9158,11.3733,4.4271,6.733,6.6419,10.4333,6.6419,11.1003Z"/>
      <path class="cls-2" d="M643.861,1360.0068c0,1.8806-.4252,4.3373-1.2738,7.3699-.7279,2.4266-1.4261,4.8832-2.0927,7.3699-.2433,3.0341-.8189,7.4308-1.7287,13.193-.182,.8505-.9098,1.2738-2.1836,1.2738-2.3059,0-5.7776-.0301-10.4179-.091-4.6403-.0594-8.1433-.091-10.5089-.091-6.369,0-14.9218,.5775-25.6582,1.7287-.6072,.0609-2.245,.3045-4.9133,.7279-2.1239,.3639-3.7917,.5459-5.0042,.5459-1.578,0-2.3657-1.4859-2.3657-4.4583,0-1.5768,1.0306-5.9735,3.0935-13.193,2.0017-6.8541,3.4574-11.2823,4.3673-13.284,.4237-.9693,1.2125-1.4558,2.3657-1.4558,2.3657,0,5.9142,.1226,10.6454,.3639,4.7312,.2429,8.2798,.3639,10.6454,.3639,4.973,0,13.193-.7279,24.6573-2.1837,6.0051-.7873,8.8257-1.1828,8.4618-1.1828,1.2737,0,1.9106,1.0008,1.9106,3.0025Z"/>
      <path class="cls-2" d="M690.0418,1362.8274c0,7.1578,.182,17.9243,.5459,32.3001,.3639,14.3758,.5459,25.1438,.5459,32.3001,0,1.2144-.273,1.9716-.8189,2.2747-.1222,.0609-.9098,.182-2.3657,.3639-3.9436,.485-9.2208,.7279-15.8316,.7279-8.8568,0-14.498-.2429-16.9235-.7279-1.7599-.3639-2.6387-1.3039-2.6387-2.8206,0,.9708,.273-4.3673,.8189-16.0136,1.0919-24.5663,1.6378-40.701,1.6378-48.4047,0-6.4901-.2132-16.2256-.6369-29.2066-.4252-12.9795-.6369-22.715-.6369-29.2066,0-1.3332,.6967-2.0017,2.0927-2.0017,1.8795,0,4.7155,.091,8.5072,.273,3.7903,.182,6.6263,.273,8.5072,.273,1.8795,0,4.6546-.091,8.3252-.273,3.6691-.182,6.4442-.273,8.3252-.273,1.7584,0,2.6387,.6685,2.6387,2.0017,0,6.4916-.3497,16.2271-1.0463,29.2066-.6983,12.981-1.0464,22.7165-1.0464,29.2066Z"/>
      <path class="cls-2" d="M821.7502,1365.557c0,17.8333-5.7321,33.301-17.1964,46.403-10.1306,11.7072-24.3546,17.8649-42.6725,18.4702-3.5188,.1211-13.193,.182-29.0246,.182-2.9728,0-7.4466-.091-13.4205-.273-5.9754-.182-10.4491-.273-13.4205-.273-1.7599,0-2.6387-.6963-2.6387-2.0927,0-6.6721,.2572-16.6956,.7734-30.0714,.5148-13.3742,.7734-23.397,.7734-30.0706,0-6.9744-.2586-17.4243-.7734-31.3444-.5162-13.9217-.7734-24.3392-.7734-31.2542,0-1.2738,.8787-2.0318,2.6387-2.2747,4.3061-.485,11.3733-.7279,21.1998-.7279,18.6819,0,30.7831,.273,36.3036,.8189,14.3758,1.4558,25.6269,5.0952,33.756,10.9184,7.6429,5.4592,13.6777,13.102,18.1062,22.9286,4.245,9.2806,6.3689,18.8342,6.3689,28.6607Zm-34.8478,0c0-10.2499-3.0638-18.6206-9.1896-25.1122-6.1871-6.733-14.3758-10.0995-24.5663-10.0995-9.3419,0-14.0119,1.2437-14.0119,3.7304,0,3.58-.0613,8.9625-.182,16.1497-.1222,7.1887-.182,12.5719-.182,16.1504,0,3.5184,.0597,8.8114,.182,15.8767,.1206,7.0676,.182,12.3899,.182,15.9685,0,2.6085,4.852,3.9124,14.5578,3.9124,10.4931,0,18.7432-3.4876,24.7483-10.4634,5.6412-6.6104,8.4618-15.3158,8.4618-26.1131Z"/>
      <path class="cls-2" d="M965.9229,1427.2457c0,1.8806-.8798,2.8206-2.6394,2.8206h-32.2092c-1.7596,0-2.6379-1.0603-2.6379-3.1845,0-6.1262,.2271-15.3158,.6813-27.5689,.4557-12.2516,.6828-21.4412,.6828-27.5689,0-1.7588-.2722-2.698-.8181-2.8206-.6692,.3639-4.7313,9.7355-12.1922,28.1148-4.3673,10.7973-8.7347,21.5638-13.102,32.3001-.6076,1.3949-1.3655,2.2137-2.2754,2.4566-.3038,.0594-1.5159,.091-3.6395,.091-3.1537,0-5.0351-.6068-5.6412-1.8197-3.2755-6.6721-7.5827-16.3775-12.9201-29.1156-5.7013-13.466-9.9784-23.2015-12.8283-29.2066-.1233-.303-.3955-.6369-.8196-1.0008-.4241,.5459-.6362,1.4257-.6362,2.6386,0,5.9457,.1504,14.8624,.4542,26.75,.3038,11.8891,.4557,20.8058,.4557,26.75,0,2.1243-.8512,3.1845-2.5476,3.1845h-30.3894c-1.2144,0-1.9566-.1963-2.2295-.591-.273-.394-.409-1.0768-.409-2.0476,0-6.6104,.3181-16.5437,.9549-29.7976,.6369-13.2532,.9557-23.1865,.9557-29.7984,0-7.036-.3045-20.229-.9098-39.5791-.0617-5.0343-.3346-12.5245-.8189-22.4736l-.091-1.5468c-.0617-1.2129,1.2121-1.8197,3.8214-1.8197,3.335,0,8.3392-.1053,15.0127-.3181,6.6721-.2121,11.6756-.3188,15.0127-.3188,.6662,0,1.6062,1.2738,2.8198,3.8214l26.568,58.3222c1.8799,3.944,3.4575,5.9141,4.7313,5.9141,.6677,0,2.0934-2.2747,4.2771-6.824,6.1254-12.7381,15.194-31.9362,27.2042-57.5943,1.0317-2.3656,2.1521-3.5485,3.3672-3.5485,1.7581,0,4.4125,.091,7.9602,.273,3.5492,.182,6.2337,.273,8.0534,.273,1.5144,0,3.835-.1504,6.9601-.4549,3.1236-.303,5.4441-.4549,6.9601-.4549,1.8197,0,2.7296,.7279,2.7296,2.1837,0,7.1578-.2587,17.8491-.773,32.0731-.5158,14.2247-.773,24.916-.773,32.0723,0,6.6119,.2722,16.5294,.8181,29.7525,.5459,13.2246,.8196,23.1105,.8196,29.6615Z"/>
      <path class="cls-2" d="M1041.5829,1360.0068c0,1.8806-.4249,4.3373-1.2738,7.3699-.7279,2.4266-1.4257,4.8832-2.0927,7.3699-.2429,3.0341-.8189,7.4308-1.7287,13.193-.182,.8505-.9099,1.2738-2.1837,1.2738-2.3062,0-5.7773-.0301-10.4183-.091-4.6396-.0594-8.1429-.091-10.5085-.091-6.369,0-14.9218,.5775-25.6581,1.7287-.6068,.0609-2.2446,.3045-4.9133,.7279-2.1243,.3639-3.7913,.5459-5.0042,.5459-1.5783,0-2.3656-1.4859-2.3656-4.4583,0-1.5768,1.0309-5.9735,3.0935-13.193,2.0017-6.8541,3.4575-11.2823,4.3673-13.284,.4233-.9693,1.2129-1.4558,2.3656-1.4558,2.3656,0,5.9141,.1226,10.6454,.3639,4.7313,.2429,8.2798,.3639,10.6454,.3639,4.9727,0,13.193-.7279,24.6573-2.1837,6.0051-.7873,8.8257-1.1828,8.4617-1.1828,1.2738,0,1.9107,1.0008,1.9107,3.0025Z"/>
      <path class="cls-2" d="M1087.7641,1362.8274c0,7.1578,.182,17.9243,.5459,32.3001,.3639,14.3758,.5459,25.1438,.5459,32.3001,0,1.2144-.273,1.9716-.8189,2.2747-.1226,.0609-.9099,.182-2.3656,.3639-3.944,.485-9.2212,.7279-15.8316,.7279-8.8573,0-14.4984-.2429-16.9235-.7279-1.7603-.3639-2.6386-1.3039-2.6386-2.8206,0,.9708,.273-4.3673,.8189-16.0136,1.0918-24.5663,1.6378-40.701,1.6378-48.4047,0-6.4901-.2136-16.2256-.6369-29.2066-.4249-12.9795-.6369-22.715-.6369-29.2066,0-1.3332,.6963-2.0017,2.0927-2.0017,1.8791,0,4.7155,.091,8.5076,.273,3.7898,.182,6.6262,.273,8.5068,.273,1.8791,0,4.6546-.091,8.3249-.273,3.6695-.182,6.445-.273,8.3256-.273,1.7588,0,2.6386,.6685,2.6386,2.0017,0,6.4916-.3497,16.2271-1.046,29.2066-.6986,12.981-1.0467,22.7165-1.0467,29.2066Z"/>
      <path class="cls-2" d="M1189.356,1330.2543c0,1.2144-.6685,1.8197-2.0017,1.8197-2.3062,0-11.4342-.4549-27.3869-1.3648-.3639,15.3466-.5459,26.0537-.5459,32.1182,0,7.1578,.2872,17.9243,.864,32.3001,.576,14.3758,.8647,25.1438,.8647,32.3001,0,1.1527-.273,1.8806-.8189,2.1837-.182,.1226-1.0324,.273-2.5476,.4549-3.6395,.485-8.9776,.7279-16.0136,.7279-7.8248,0-13.3156-.2429-16.4685-.7279-1.6987-.303-2.5476-1.2422-2.5476-2.8206,0-7.1563,.303-17.8927,.9099-32.2092,.6053-14.3149,.9099-25.0513,.9099-32.2092,0-4.7313-.2429-15.2857-.7279-31.6632-12.1328,1.2144-21.8066,1.8197-29.0246,1.8197-.9708,0-1.4558-.303-1.4558-.9099,0-.7873,.4233-3.1236,1.2738-7.0059,.9693-4.2448,1.5152-6.824,1.6378-7.7338,.182-2.8507,.394-5.7006,.6369-8.5527,.4233-4.5493,1.1512-6.824,2.1837-6.824,.1211,0,.5459,.0316,1.2738,.091,9.8265,1.2738,24.3528,1.9107,43.5825,1.9107,5.4592,0,15.5271-.576,30.2075-1.7287,7.8842-.6053,11.8583-.9099,11.9192-.9099,1.2129,0,1.9107,.0767,2.0927,.2278,.182,.1519,.303,.7429,.3639,1.7739,0,1.6378-.0609,3.9124-.182,6.824-.1226,3.2161-.182,5.4908-.182,6.824,0,1.5167,.1963,3.7462,.5918,6.6871,.3933,2.9431,.591,5.1411,.591,6.5969Z"/>
      <path class="cls-2" d="M1299.7735,1409.5034c0,.9708-.6369,2.2446-1.9107,3.8214-11.1612,13.284-25.992,19.926-44.4923,19.926-18.9252,0-34.2718-6.46-46.0391-19.3801-11.4643-12.4952-17.1964-28.2652-17.1964-47.3129,0-18.4386,5.6096-34.0883,16.8325-46.9489,11.7057-13.466,26.5981-20.199,44.6743-20.199,19.653,0,35.0598,6.0367,46.2211,18.1063,1.2129,1.3347,1.8197,2.5175,1.8197,3.5485,0,1.1527-2.1085,5.4291-6.3232,12.8291-4.217,7.4015-6.8698,11.5553-7.9617,12.4651-.4865,.4865-1.0918,.7279-1.8197,.7279-.3045,0-1.8197-1.2129-4.5493-3.6395-3.2755-2.9116-6.4916-5.1862-9.6446-6.824-4.7922-2.425-9.7671-3.6395-14.9218-3.6395-8.9167,0-16.0452,3.3364-21.3818,10.0085-4.9133,6.1871-7.3699,13.8299-7.3699,22.9286,0,9.2212,2.4566,16.955,7.3699,23.2015,5.3366,6.7939,12.4651,10.1905,21.3818,10.1905,5.2772,0,10.2815-1.1512,15.0127-3.4575,3.0935-1.5152,6.2465-3.6395,9.4626-6.369,2.6687-2.3047,4.1538-3.4575,4.4583-3.4575,.6053,0,1.2129,.3339,1.8197,1.0008,.9693,1.0918,3.6079,4.8832,7.9158,11.3733,4.4267,6.733,6.642,10.4333,6.642,11.1003Z"/>
    </g>
    <g>
      <path class="cls-2" d="M384.4879,1362.8274c0,7.1578,.1819,17.9243,.5459,32.3001s.5459,25.1438,.5459,32.3001c0,1.2144-.273,1.9716-.8189,2.2747-.1222,.0609-.9098,.182-2.3657,.3639-3.9436,.485-9.2208,.7279-15.8316,.7279-8.8569,0-14.498-.2429-16.9234-.7279-1.7599-.3639-2.6386-1.3039-2.6386-2.8206,0,.9708,.273-4.3673,.8189-16.0136,1.0919-24.5663,1.6378-40.701,1.6378-48.4047,0-6.4901-.2132-16.2256-.6369-29.2066-.4252-12.9795-.6369-22.715-.6369-29.2066,0-1.3332,.6967-2.0017,2.0927-2.0017,1.8795,0,4.7155,.091,8.5072,.273,3.7902,.182,6.6262,.273,8.5072,.273,1.8795,0,4.6546-.091,8.3252-.273,3.6691-.182,6.4442-.273,8.3252-.273,1.7584,0,2.6386,.6685,2.6386,2.0017,0,6.4916-.3497,16.2271-1.0463,29.2066-.6984,12.981-1.0466,22.7165-1.0466,29.2066Z"/>
      <path class="cls-2" d="M459.5118,1388.2126c0,12.3147-5.1863,22.8692-15.5587,31.6632-9.0986,7.7654-20.1692,12.7065-33.21,14.8308-.4861,.0594-.8802,.091-1.1828,.091-1.396,0-4.4896-4.2621-9.2806-12.7832-4.7925-8.5219-7.1879-13.7239-7.1879-15.6045,0-.667,.4549-1.0918,1.3648-1.2738,8.7945-2.0017,14.6176-3.6989,17.4694-5.0952,6.3078-3.1529,9.4626-7.8248,9.4626-14.0119,0-3.9425-2.063-8.3392-6.1871-13.193-7.1582-8.2482-11.0406-12.8291-11.6462-13.7389-4.1853-6.3081-6.278-13.284-6.278-20.9269,0-11.1003,5.125-20.32,15.3767-27.6598,8.3707-6.0645,18.6522-10.0085,30.8443-11.8282,.6666-.0594,1.1828-.091,1.5468-.091,.9098,0,1.6378,.7279,2.1836,2.1837,1.5765,4.4283,5.246,12.435,11.0094,24.0204,.182,.3639,.273,.6685,.273,.9099,0,1.0324-.5459,1.5468-1.6378,1.5468-.4861,0-1.305-.091-2.4566-.273-1.1532-.182-2.0329-.273-2.6386-.273-4.3674,0-8.1888,1.0008-11.4643,3.0025-3.9436,2.3062-5.9141,5.5201-5.9141,9.6446,0,3.7004,2.1836,8.2497,6.551,13.6479,7.7026,9.7055,11.7373,14.8007,12.1012,15.2857,4.3062,6.6736,6.4602,13.3156,6.4602,19.926Z"/>
      <path class="cls-2" d="M575.2971,1409.5034c0,.9708-.6369,2.2446-1.9107,3.8214-11.1616,13.284-25.9923,19.926-44.4923,19.926-18.9252,0-34.2721-6.46-46.0391-19.3801-11.4643-12.4952-17.1964-28.2652-17.1964-47.3129,0-18.4386,5.6099-34.0883,16.8325-46.9489,11.706-13.466,26.5977-20.199,44.6743-20.199,19.653,0,35.0594,6.0367,46.221,18.1063,1.2125,1.3347,1.8197,2.5175,1.8197,3.5485,0,1.1527-2.1085,5.4291-6.3235,12.8291-4.2166,7.4015-6.8695,11.5553-7.9614,12.4651-.4861,.4865-1.0919,.7279-1.8197,.7279-.3042,0-1.8197-1.2129-4.5493-3.6395-3.2755-2.9116-6.4912-5.1862-9.6446-6.824-4.7926-2.425-9.7667-3.6395-14.9218-3.6395-8.9167,0-16.0448,3.3364-21.3818,10.0085-4.9133,6.1871-7.3699,13.8299-7.3699,22.9286,0,9.2212,2.4566,16.955,7.3699,23.2015,5.337,6.7939,12.4651,10.1905,21.3818,10.1905,5.2772,0,10.2814-1.1512,15.0128-3.4575,3.0935-1.5152,6.2469-3.6395,9.4626-6.369,2.6683-2.3047,4.1542-3.4575,4.4583-3.4575,.6057,0,1.2125,.3339,1.8197,1.0008,.9696,1.0918,3.6082,4.8832,7.9158,11.3733,4.4271,6.733,6.6419,10.4333,6.6419,11.1003Z"/>
      <path class="cls-2" d="M643.861,1360.0068c0,1.8806-.4252,4.3373-1.2738,7.3699-.7279,2.4266-1.4261,4.8832-2.0927,7.3699-.2433,3.0341-.8189,7.4308-1.7287,13.193-.182,.8505-.9098,1.2738-2.1836,1.2738-2.3059,0-5.7776-.0301-10.4179-.091-4.6403-.0594-8.1433-.091-10.5089-.091-6.369,0-14.9218,.5775-25.6582,1.7287-.6072,.0609-2.245,.3045-4.9133,.7279-2.1239,.3639-3.7917,.5459-5.0042,.5459-1.578,0-2.3657-1.4859-2.3657-4.4583,0-1.5768,1.0306-5.9735,3.0935-13.193,2.0017-6.8541,3.4574-11.2823,4.3673-13.284,.4237-.9693,1.2125-1.4558,2.3657-1.4558,2.3657,0,5.9142,.1226,10.6454,.3639,4.7312,.2429,8.2798,.3639,10.6454,.3639,4.973,0,13.193-.7279,24.6573-2.1837,6.0051-.7873,8.8257-1.1828,8.4618-1.1828,1.2737,0,1.9106,1.0008,1.9106,3.0025Z"/>
      <path class="cls-2" d="M690.0418,1362.8274c0,7.1578,.182,17.9243,.5459,32.3001,.3639,14.3758,.5459,25.1438,.5459,32.3001,0,1.2144-.273,1.9716-.8189,2.2747-.1222,.0609-.9098,.182-2.3657,.3639-3.9436,.485-9.2208,.7279-15.8316,.7279-8.8568,0-14.498-.2429-16.9235-.7279-1.7599-.3639-2.6387-1.3039-2.6387-2.8206,0,.9708,.273-4.3673,.8189-16.0136,1.0919-24.5663,1.6378-40.701,1.6378-48.4047,0-6.4901-.2132-16.2256-.6369-29.2066-.4252-12.9795-.6369-22.715-.6369-29.2066,0-1.3332,.6967-2.0017,2.0927-2.0017,1.8795,0,4.7155,.091,8.5072,.273,3.7903,.182,6.6263,.273,8.5072,.273,1.8795,0,4.6546-.091,8.3252-.273,3.6691-.182,6.4442-.273,8.3252-.273,1.7584,0,2.6387,.6685,2.6387,2.0017,0,6.4916-.3497,16.2271-1.0463,29.2066-.6983,12.981-1.0464,22.7165-1.0464,29.2066Z"/>
      <path class="cls-2" d="M821.7502,1365.557c0,17.8333-5.7321,33.301-17.1964,46.403-10.1306,11.7072-24.3546,17.8649-42.6725,18.4702-3.5188,.1211-13.193,.182-29.0246,.182-2.9728,0-7.4466-.091-13.4205-.273-5.9754-.182-10.4491-.273-13.4205-.273-1.7599,0-2.6387-.6963-2.6387-2.0927,0-6.6721,.2572-16.6956,.7734-30.0714,.5148-13.3742,.7734-23.397,.7734-30.0706,0-6.9744-.2586-17.4243-.7734-31.3444-.5162-13.9217-.7734-24.3392-.7734-31.2542,0-1.2738,.8787-2.0318,2.6387-2.2747,4.3061-.485,11.3733-.7279,21.1998-.7279,18.6819,0,30.7831,.273,36.3036,.8189,14.3758,1.4558,25.6269,5.0952,33.756,10.9184,7.6429,5.4592,13.6777,13.102,18.1062,22.9286,4.245,9.2806,6.3689,18.8342,6.3689,28.6607Zm-34.8478,0c0-10.2499-3.0638-18.6206-9.1896-25.1122-6.1871-6.733-14.3758-10.0995-24.5663-10.0995-9.3419,0-14.0119,1.2437-14.0119,3.7304,0,3.58-.0613,8.9625-.182,16.1497-.1222,7.1887-.182,12.5719-.182,16.1504,0,3.5184,.0597,8.8114,.182,15.8767,.1206,7.0676,.182,12.3899,.182,15.9685,0,2.6085,4.852,3.9124,14.5578,3.9124,10.4931,0,18.7432-3.4876,24.7483-10.4634,5.6412-6.6104,8.4618-15.3158,8.4618-26.1131Z"/>
      <path class="cls-2" d="M965.9229,1427.2457c0,1.8806-.8798,2.8206-2.6394,2.8206h-32.2092c-1.7596,0-2.6379-1.0603-2.6379-3.1845,0-6.1262,.2271-15.3158,.6813-27.5689,.4557-12.2516,.6828-21.4412,.6828-27.5689,0-1.7588-.2722-2.698-.8181-2.8206-.6692,.3639-4.7313,9.7355-12.1922,28.1148-4.3673,10.7973-8.7347,21.5638-13.102,32.3001-.6076,1.3949-1.3655,2.2137-2.2754,2.4566-.3038,.0594-1.5159,.091-3.6395,.091-3.1537,0-5.0351-.6068-5.6412-1.8197-3.2755-6.6721-7.5827-16.3775-12.9201-29.1156-5.7013-13.466-9.9784-23.2015-12.8283-29.2066-.1233-.303-.3955-.6369-.8196-1.0008-.4241,.5459-.6362,1.4257-.6362,2.6386,0,5.9457,.1504,14.8624,.4542,26.75,.3038,11.8891,.4557,20.8058,.4557,26.75,0,2.1243-.8512,3.1845-2.5476,3.1845h-30.3894c-1.2144,0-1.9566-.1963-2.2295-.591-.273-.394-.409-1.0768-.409-2.0476,0-6.6104,.3181-16.5437,.9549-29.7976,.6369-13.2532,.9557-23.1865,.9557-29.7984,0-7.036-.3045-20.229-.9098-39.5791-.0617-5.0343-.3346-12.5245-.8189-22.4736l-.091-1.5468c-.0617-1.2129,1.2121-1.8197,3.8214-1.8197,3.335,0,8.3392-.1053,15.0127-.3181,6.6721-.2121,11.6756-.3188,15.0127-.3188,.6662,0,1.6062,1.2738,2.8198,3.8214l26.568,58.3222c1.8799,3.944,3.4575,5.9141,4.7313,5.9141,.6677,0,2.0934-2.2747,4.2771-6.824,6.1254-12.7381,15.194-31.9362,27.2042-57.5943,1.0317-2.3656,2.1521-3.5485,3.3672-3.5485,1.7581,0,4.4125,.091,7.9602,.273,3.5492,.182,6.2337,.273,8.0534,.273,1.5144,0,3.835-.1504,6.9601-.4549,3.1236-.303,5.4441-.4549,6.9601-.4549,1.8197,0,2.7296,.7279,2.7296,2.1837,0,7.1578-.2587,17.8491-.773,32.0731-.5158,14.2247-.773,24.916-.773,32.0723,0,6.6119,.2722,16.5294,.8181,29.7525,.5459,13.2246,.8196,23.1105,.8196,29.6615Z"/>
      <path class="cls-2" d="M1041.5829,1360.0068c0,1.8806-.4249,4.3373-1.2738,7.3699-.7279,2.4266-1.4257,4.8832-2.0927,7.3699-.2429,3.0341-.8189,7.4308-1.7287,13.193-.182,.8505-.9099,1.2738-2.1837,1.2738-2.3062,0-5.7773-.0301-10.4183-.091-4.6396-.0594-8.1429-.091-10.5085-.091-6.369,0-14.9218,.5775-25.6581,1.7287-.6068,.0609-2.2446,.3045-4.9133,.7279-2.1243,.3639-3.7913,.5459-5.0042,.5459-1.5783,0-2.3656-1.4859-2.3656-4.4583,0-1.5768,1.0309-5.9735,3.0935-13.193,2.0017-6.8541,3.4575-11.2823,4.3673-13.284,.4233-.9693,1.2129-1.4558,2.3656-1.4558,2.3656,0,5.9141,.1226,10.6454,.3639,4.7313,.2429,8.2798,.3639,10.6454,.3639,4.9727,0,13.193-.7279,24.6573-2.1837,6.0051-.7873,8.8257-1.1828,8.4617-1.1828,1.2738,0,1.9107,1.0008,1.9107,3.0025Z"/>
      <path class="cls-2" d="M1087.7641,1362.8274c0,7.1578,.182,17.9243,.5459,32.3001,.3639,14.3758,.5459,25.1438,.5459,32.3001,0,1.2144-.273,1.9716-.8189,2.2747-.1226,.0609-.9099,.182-2.3656,.3639-3.944,.485-9.2212,.7279-15.8316,.7279-8.8573,0-14.4984-.2429-16.9235-.7279-1.7603-.3639-2.6386-1.3039-2.6386-2.8206,0,.9708,.273-4.3673,.8189-16.0136,1.0918-24.5663,1.6378-40.701,1.6378-48.4047,0-6.4901-.2136-16.2256-.6369-29.2066-.4249-12.9795-.6369-22.715-.6369-29.2066,0-1.3332,.6963-2.0017,2.0927-2.0017,1.8791,0,4.7155,.091,8.5076,.273,3.7898,.182,6.6262,.273,8.5068,.273,1.8791,0,4.6546-.091,8.3249-.273,3.6695-.182,6.445-.273,8.3256-.273,1.7588,0,2.6386,.6685,2.6386,2.0017,0,6.4916-.3497,16.2271-1.046,29.2066-.6986,12.981-1.0467,22.7165-1.0467,29.2066Z"/>
      <path class="cls-2" d="M1189.356,1330.2543c0,1.2144-.6685,1.8197-2.0017,1.8197-2.3062,0-11.4342-.4549-27.3869-1.3648-.3639,15.3466-.5459,26.0537-.5459,32.1182,0,7.1578,.2872,17.9243,.864,32.3001,.576,14.3758,.8647,25.1438,.8647,32.3001,0,1.1527-.273,1.8806-.8189,2.1837-.182,.1226-1.0324,.273-2.5476,.4549-3.6395,.485-8.9776,.7279-16.0136,.7279-7.8248,0-13.3156-.2429-16.4685-.7279-1.6987-.303-2.5476-1.2422-2.5476-2.8206,0-7.1563,.303-17.8927,.9099-32.2092,.6053-14.3149,.9099-25.0513,.9099-32.2092,0-4.7313-.2429-15.2857-.7279-31.6632-12.1328,1.2144-21.8066,1.8197-29.0246,1.8197-.9708,0-1.4558-.303-1.4558-.9099,0-.7873,.4233-3.1236,1.2738-7.0059,.9693-4.2448,1.5152-6.824,1.6378-7.7338,.182-2.8507,.394-5.7006,.6369-8.5527,.4233-4.5493,1.1512-6.824,2.1837-6.824,.1211,0,.5459,.0316,1.2738,.091,9.8265,1.2738,24.3528,1.9107,43.5825,1.9107,5.4592,0,15.5271-.576,30.2075-1.7287,7.8842-.6053,11.8583-.9099,11.9192-.9099,1.2129,0,1.9107,.0767,2.0927,.2278,.182,.1519,.303,.7429,.3639,1.7739,0,1.6378-.0609,3.9124-.182,6.824-.1226,3.2161-.182,5.4908-.182,6.824,0,1.5167,.1963,3.7462,.5918,6.6871,.3933,2.9431,.591,5.1411,.591,6.5969Z"/>
      <path class="cls-2" d="M1299.7735,1409.5034c0,.9708-.6369,2.2446-1.9107,3.8214-11.1612,13.284-25.992,19.926-44.4923,19.926-18.9252,0-34.2718-6.46-46.0391-19.3801-11.4643-12.4952-17.1964-28.2652-17.1964-47.3129,0-18.4386,5.6096-34.0883,16.8325-46.9489,11.7057-13.466,26.5981-20.199,44.6743-20.199,19.653,0,35.0598,6.0367,46.2211,18.1063,1.2129,1.3347,1.8197,2.5175,1.8197,3.5485,0,1.1527-2.1085,5.4291-6.3232,12.8291-4.217,7.4015-6.8698,11.5553-7.9617,12.4651-.4865,.4865-1.0918,.7279-1.8197,.7279-.3045,0-1.8197-1.2129-4.5493-3.6395-3.2755-2.9116-6.4916-5.1862-9.6446-6.824-4.7922-2.425-9.7671-3.6395-14.9218-3.6395-8.9167,0-16.0452,3.3364-21.3818,10.0085-4.9133,6.1871-7.3699,13.8299-7.3699,22.9286,0,9.2212,2.4566,16.955,7.3699,23.2015,5.3366,6.7939,12.4651,10.1905,21.3818,10.1905,5.2772,0,10.2815-1.1512,15.0127-3.4575,3.0935-1.5152,6.2465-3.6395,9.4626-6.369,2.6687-2.3047,4.1538-3.4575,4.4583-3.4575,.6053,0,1.2129,.3339,1.8197,1.0008,.9693,1.0918,3.6079,4.8832,7.9158,11.3733,4.4267,6.733,6.642,10.4333,6.642,11.1003Z"/>
    </g>
  </g>
  <rect class="cls-1" x="164.8472" y="1168.9468" width="1316.0579" height="31.1408"/>
  <path class="cls-3" d="M182.6988,592.4101H1463.7021c9.1824,0,16.6262-7.4437,16.6262-16.6262v-128.2184c0-9.1823-7.4438-16.6261-16.6262-16.6261H182.6988c-9.1823,0-16.6262,7.4437-16.6262,16.6261v128.2184c0,9.1823,7.4437,16.6262,16.6262,16.6262Z"/>
  <circle class="cls-6" cx="261.0447" cy="513.2607" r="25.41"/>
  <polygon class="cls-6" points="645.5467 458.8004 505.4132 458.8004 406.8008 569.8835 546.9343 569.8835 645.5467 458.8004"/>
  <polygon class="cls-6" points="896.2587 458.8004 756.1253 458.8004 657.5128 569.8835 797.6463 569.8835 896.2587 458.8004"/>
  <polygon class="cls-6" points="1150.3587 457.1064 1010.2252 457.1064 911.6129 568.1896 1051.7463 568.1896 1150.3587 457.1064"/>
  <polygon class="cls-6" points="1402.7647 457.1064 1262.6313 457.1064 1164.0188 568.1896 1304.1522 568.1896 1402.7647 457.1064"/>
  <path class="cls-4" d="M197.0824,490.3974L1450.8141,227.4779c8.9869-1.8847,14.7444-10.6977,12.8597-19.6846l-26.3162-125.4887c-1.8846-8.9868-10.6977-14.7443-19.6845-12.8597L163.9414,332.3645c-8.9868,1.8847-14.7443,10.6977-12.8597,19.6846l26.3162,125.4887c1.8846,8.9868,10.6977,14.7443,19.6845,12.8596Z"/>
  <circle class="cls-6" cx="257.5155" cy="396.8529" r="25.41"/>
  <polygon class="cls-6" points="622.6539 264.6349 485.5039 293.3967 411.7901 422.3546 548.9402 393.593 622.6539 264.6349"/>
  <polygon class="cls-6" points="868.0284 213.1776 730.8783 241.9393 657.1646 370.8972 794.3147 342.1356 868.0284 213.1776"/>
  <polygon class="cls-6" points="1116.3711 159.3668 979.2211 188.1286 905.5073 317.0866 1042.6573 288.3248 1116.3711 159.3668"/>
  <polygon class="cls-6" points="1363.4035 107.5618 1226.2535 136.3235 1152.5397 265.2814 1289.6898 236.5198 1363.4035 107.5618"/>
  <rect class="cls-7" x="323.3623" y="654.6917" width="1124.5277" height="565.7239"/>
</svg>