<?xml version="1.0" encoding="UTF-8"?>
<svg id="Capa_1" data-name="Capa 1" xmlns="http://www.w3.org/2000/svg" xmlns:xlink="http://www.w3.org/1999/xlink" viewBox="0 0 1602.3617 1647.2979">
  <defs>
    <style>
      .cls-1, .cls-2 {
        fill: #fff;
      }

      .cls-3, .cls-4, .cls-2, .cls-5 {
        stroke-miterlimit: 10;
      }

      .cls-3, .cls-5 {
        stroke: #000;
      }

      .cls-4 {
        stroke: url(#Degradado_sin_nombre);
      }

      .cls-6 {
        fill: #fffffe;
      }

      .cls-7 {
        fill: none;
      }

      .cls-2 {
        stroke: #fff;
      }

      .cls-5 {
        stroke-width: 10px;
      }
    </style>
    <linearGradient id="Degradado_sin_nombre" data-name="Degradado sin nombre" x1="439.469" y1="1088.6806" x2="1037.4266" y2="1088.6806" gradientTransform="translate(0 1654.1064) scale(1 -1)" gradientUnits="userSpaceOnUse">
      <stop offset="0" stop-color="#fffffe"/>
      <stop offset=".2672" stop-color="#cbcee0" stop-opacity=".7328"/>
      <stop offset=".7743" stop-color="#667ca8" stop-opacity=".2257"/>
      <stop offset="1" stop-color="#3b6194" stop-opacity="0"/>
    </linearGradient>
  </defs>
  <path class="cls-5" d="M984.9625,1134.4721l-104.0074,8.9149c-4.0556,.3477-8.1242,.5217-12.1947,.5217h-279.698c-6.0492,0-12.0894-.4642-18.0675-1.3887l-67.2988-10.407c-32.2417-9.4366-53.4741-16.8984-53.4741-52.2945v-357.4111c0-2.6059,2.1125-4.7183,4.7183-4.7183h581.1371c2.6058,0,4.7183,2.1125,4.7183,4.7183v357.411c0,35.3961-22.8052,47.5762-55.8332,54.6537Z"/>
  <g>
    <path class="cls-2" d="M687.6303,790.9415c0,1.1043-1.0033,1.6543-3.0078,1.6543-7.5195,0-18.9256-.651-34.2139-1.9551-15.2905-1.3019-26.7459-1.9551-34.3643-1.9551-9.625,0-15.2411,.3524-16.8438,1.0527-3.7104,1.7059-5.5644,6.5184-5.5644,14.4375,0,9.5262,2.4062,14.9403,7.2188,16.2422,2.0045,.5028,5.0617,.752,9.1738,.752,6.918,0,17.2691-.376,31.0557-1.1279,13.7843-.752,24.1377-1.1279,31.0557-1.1279,3.3086,0,4.9629,8.8238,4.9629,26.4687,0,15.3398-.5522,24.2645-1.6543,26.7695-.7026,1.8047-2.0561,2.707-4.0606,2.707,1.3019,0-1.8563-.35-9.4746-1.0527-10.7293-1.0011-26.9715-1.5039-48.7266-1.5039-7.019,0-10.9785,.0516-11.8809,.1504-5.1133,.8036-7.6699,2.9586-7.6699,6.4668,0,14.2379,.6016,30.6305,1.8047,49.1777,1.0011,16.745,1.5039,24.2129,1.5039,22.4082,0,2.6059-3.1582,4.1098-9.4746,4.5117,1.7037-.1012-2.7586-.1504-13.3848-.1504-18.7494,0-30.8301-.6532-36.2441-1.9551-2.909-.7003-4.3613-2.2559-4.3613-4.6621,0-11.1289,.376-27.8458,1.1279-50.1553,.7519-22.307,1.1279-39.0264,1.1279-50.1553,0-13.2344-.6016-29.8761-1.8047-49.9297-1.8047-30.9805-2.7586-47.6222-2.8574-49.9297l-.1504-1.8047c-.101-2.505,1.4029-3.7598,4.5117-3.7598,7.4185,0,18.6226,.1504,33.6123,.4512,14.9875,.3008,26.2432,.4512,33.7627,.4512,8.0201,0,20.0771-.6016,36.1689-1.8047,16.0918-1.2031,28.1466-1.8047,36.1689-1.8047,5.0123,0,7.8203,2.0561,8.4219,6.166,0,4.3119,.1998,10.7787,.6016,19.4004,.1998,2.2065,.8508,6.4668,1.9551,12.7832,1.0012,5.5149,1.5041,9.7752,1.5041,12.783Z"/>
    <path class="cls-2" d="M881.0326,918.9239c0,1.6051-1.0527,3.7105-3.1582,6.3164-18.4488,21.957-42.9625,32.9355-73.541,32.9355-31.2812,0-56.6479-10.6777-76.0977-32.0332-18.9492-20.6527-28.4238-46.7199-28.4238-78.2031,0-30.4777,9.2726-56.3449,27.8223-77.6016,19.3488-22.2578,43.9633-33.3867,73.8418-33.3867,32.4844,0,57.9496,9.9774,76.3984,29.9277,2.0043,2.2065,3.0078,4.1615,3.0078,5.8652,0,1.9057-3.485,8.974-10.4521,21.2051-6.9699,12.2332-11.3545,19.0996-13.1592,20.6035-.8039,.8036-1.8047,1.2031-3.0078,1.2031-.5031,0-3.0078-2.0043-7.5195-6.0156-5.4141-4.8125-10.7297-8.5723-15.9414-11.2793-7.9215-4.0089-16.1437-6.0156-24.6641-6.0156-14.7383,0-26.5207,5.5151-35.3418,16.543-8.1211,10.2266-12.1816,22.8594-12.1816,37.8984,0,15.2411,4.0605,28.0243,12.1816,38.3496,8.8211,11.2301,20.6035,16.8438,35.3418,16.8438,8.7227,0,16.9941-1.9035,24.8145-5.7148,5.1133-2.505,10.325-6.0156,15.6406-10.5273,4.4105-3.809,6.866-5.7148,7.3691-5.7148,1.0008,0,2.0043,.5523,3.0078,1.6543,1.6023,1.8047,5.9637,8.0719,13.084,18.7988,7.3171,11.129,10.9785,17.2458,10.9785,18.3477Z"/>
    <path class="cls-2" d="M958.3334,841.7735c0,11.8316,.3008,29.627,.9023,53.3887s.9023,41.5594,.9023,53.3887c0,2.0067-.4512,3.2594-1.3535,3.7598-.202,.1012-1.5039,.3008-3.9102,.6016-6.5184,.8012-15.2411,1.2031-26.168,1.2031-14.6395,0-23.9637-.402-27.9727-1.2031-2.909-.6016-4.3613-2.1547-4.3613-4.6621,0,1.6051,.4512-7.2188,1.3535-26.4688,1.8047-40.6055,2.707-67.2738,2.707-80.0078,0-10.727-.3524-26.8188-1.0527-48.2754-.7027-21.4543-1.0527-37.546-1.0527-48.2754,0-2.2043,1.1515-3.3086,3.459-3.3086,3.1066,0,7.7943,.1504,14.0615,.4512,6.2648,.3008,10.9525,.4512,14.0615,.4512,3.1066,0,7.6935-.1504,13.7607-.4512,6.0648-.3008,10.6518-.4512,13.7607-.4512,2.9066,0,4.3613,1.1043,4.3613,3.3086,0,10.7293-.578,26.8211-1.7295,48.2754-1.1539,21.4566-1.7295,37.5484-1.7295,48.2754Z"/>
  </g>
  <g>
    <g>
      <path class="cls-2" d="M546.2251,1057.6558c0,3.2536,.0827,8.1474,.2482,14.6819s.2482,11.429,.2482,14.6819c0,.552-.1241,.8962-.3722,1.0339-.0555,.0277-.4136,.0827-1.0753,.1654-1.7926,.2205-4.1913,.3309-7.1962,.3309-4.0258,0-6.59-.1104-7.6925-.3309-.8-.1654-1.1994-.5927-1.1994-1.2821,0,.4413,.1241-1.9852,.3722-7.2789,.4963-11.1665,.7445-18.5004,.7445-22.0021,0-2.95-.0969-7.3753-.2895-13.2757-.1933-5.8998-.2895-10.325-.2895-13.2757,0-.606,.3167-.9099,.9512-.9099,.8543,0,2.1434,.0414,3.8669,.1241,1.7228,.0827,3.0119,.1241,3.8669,.1241,.8543,0,2.1157-.0414,3.7842-.1241,1.6678-.0827,2.9292-.1241,3.7842-.1241,.7993,0,1.1994,.3039,1.1994,.9099,0,2.9507-.1589,7.376-.4756,13.2757-.3174,5.9004-.4757,10.3257-.4757,13.2757Z"/>
      <path class="cls-2" d="M580.3269,1069.1946c0,5.5976-2.3574,10.3951-7.0721,14.3924-4.1357,3.5297-9.1678,5.7757-15.0955,6.7413-.221,.027-.4001,.0414-.5376,.0414-.6345,0-2.0407-1.9373-4.2184-5.8105-2.1784-3.8736-3.2672-6.2381-3.2672-7.093,0-.3032,.2068-.4963,.6204-.579,3.9975-.9099,6.6444-1.6813,7.9406-2.316,2.8672-1.4332,4.3012-3.5567,4.3012-6.369,0-1.792-.9377-3.7905-2.8123-5.9968-3.2537-3.7492-5.0184-5.8314-5.2938-6.245-1.9024-2.8673-2.8537-6.0382-2.8537-9.5122,0-5.0456,2.3295-9.2364,6.9894-12.5727,3.8049-2.7566,8.4783-4.5493,14.0202-5.3765,.303-.027,.5376-.0414,.7031-.0414,.4136,0,.7445,.3309,.9926,.9926,.7166,2.0128,2.3846,5.6523,5.0043,10.9184,.0827,.1654,.1241,.3039,.1241,.4136,0,.4693-.2481,.7031-.7445,.7031-.221,0-.5932-.0414-1.1167-.1241-.5242-.0827-.924-.1241-1.1994-.1241-1.9852,0-3.7222,.4549-5.211,1.3648-1.7926,1.0483-2.6882,2.5091-2.6882,4.3839,0,1.682,.9926,3.7499,2.9777,6.2036,3.5012,4.4116,5.3351,6.7276,5.5005,6.948,1.9574,3.0334,2.9365,6.0525,2.9365,9.0573Z"/>
      <path class="cls-2" d="M632.9566,1078.8722c0,.4413-.2895,1.0203-.8685,1.737-5.0735,6.0382-11.8147,9.0573-20.2238,9.0573-8.6023,0-15.5782-2.9364-20.9269-8.8091-5.211-5.6796-7.8166-12.8478-7.8166-21.5059,0-8.3812,2.55-15.4947,7.6511-21.3404,5.3209-6.1209,12.0899-9.1813,20.3065-9.1813,8.9332,0,15.9361,2.7439,21.0095,8.2301,.5511,.6067,.8271,1.1443,.8271,1.6129,0,.524-.9584,2.4678-2.8743,5.8314-1.9166,3.3643-3.1225,5.2524-3.6188,5.666-.221,.2211-.4963,.3309-.8271,.3309-.1383,0-.8271-.5513-2.0679-1.6543-1.4889-1.3234-2.9506-2.3574-4.3839-3.1018-2.1784-1.1023-4.4394-1.6543-6.7826-1.6543-4.053,0-7.2931,1.5166-9.719,4.5493-2.2333,2.8123-3.35,6.2863-3.35,10.4221,0,4.1915,1.1167,7.7068,3.35,10.5461,2.4259,3.0881,5.666,4.632,9.719,4.632,2.3987,0,4.6734-.5233,6.824-1.5716,1.4062-.6887,2.8395-1.6543,4.3012-2.895,1.2128-1.0476,1.8883-1.5716,2.0265-1.5716,.2753,0,.5511,.1518,.8271,.4549,.4407,.4963,1.6401,2.2196,3.5981,5.1697,2.0123,3.0604,3.019,4.7424,3.019,5.0456Z"/>
      <path class="cls-2" d="M664.122,1056.3738c0,.8548-.1933,1.9715-.579,3.35-.3309,1.103-.6482,2.2196-.9512,3.35-.1106,1.3792-.3722,3.3776-.7858,5.9968-.0827,.3866-.4136,.579-.9926,.579-1.0481,0-2.6262-.0137-4.7354-.0414-2.1092-.027-3.7015-.0414-4.7768-.0414-2.895,0-6.7826,.2625-11.6628,.7858-.276,.0277-1.0204,.1384-2.2333,.3309-.9654,.1654-1.7235,.2481-2.2747,.2481-.7173,0-1.0753-.6754-1.0753-2.0265,0-.7167,.4684-2.7152,1.4062-5.9968,.9099-3.1155,1.5716-5.1283,1.9852-6.0382,.1926-.4406,.5511-.6617,1.0753-.6617,1.0753,0,2.6883,.0557,4.8388,.1654,2.1506,.1104,3.7635,.1654,4.8388,.1654,2.2605,0,5.9968-.3309,11.2079-.9926,2.7296-.3579,4.0117-.5376,3.8463-.5376,.5789,0,.8685,.4549,.8685,1.3648Z"/>
      <path class="cls-2" d="M685.1133,1057.6558c0,3.2536,.0827,8.1474,.2481,14.6819s.2481,11.429,.2481,14.6819c0,.552-.1241,.8962-.3722,1.0339-.0555,.0277-.4136,.0827-1.0753,.1654-1.7926,.2205-4.1913,.3309-7.1962,.3309-4.0258,0-6.59-.1104-7.6925-.3309-.8-.1654-1.1994-.5927-1.1994-1.2821,0,.4413,.1241-1.9852,.3722-7.2789,.4963-11.1665,.7445-18.5004,.7445-22.0021,0-2.95-.0969-7.3753-.2895-13.2757-.1933-5.8998-.2895-10.325-.2895-13.2757,0-.606,.3167-.9099,.9512-.9099,.8543,0,2.1434,.0414,3.8669,.1241,1.7228,.0827,3.0119,.1241,3.8669,.1241,.8543,0,2.1157-.0414,3.7842-.1241,1.6678-.0827,2.9292-.1241,3.7842-.1241,.7993,0,1.1994,.3039,1.1994,.9099,0,2.9507-.1589,7.376-.4756,13.2757-.3174,5.9004-.4756,10.3257-.4756,13.2757Z"/>
      <path class="cls-2" d="M744.9807,1058.8966c0,8.1061-2.6055,15.1368-7.8166,21.0923-4.6048,5.3214-11.0703,8.1204-19.3966,8.3956-1.5994,.055-5.9968,.0827-13.193,.0827-1.3513,0-3.3848-.0414-6.1002-.1241-2.7161-.0827-4.7496-.1241-6.1002-.1241-.8,0-1.1994-.3165-1.1994-.9512,0-3.0328,.1169-7.5889,.3515-13.6688,.234-6.0792,.3515-10.635,.3515-13.6685,0-3.1702-.1176-7.9201-.3515-14.2475-.2346-6.328-.3515-11.0633-.3515-14.2064,0-.579,.3994-.9235,1.1994-1.0339,1.9573-.2205,5.1697-.3309,9.6363-.3309,8.4918,0,13.9923,.1241,16.5016,.3722,6.5345,.6617,11.6486,2.316,15.3436,4.9629,3.474,2.4814,6.2171,5.9555,8.2301,10.4221,1.9296,4.2185,2.895,8.561,2.895,13.0276Zm-15.8399,0c0-4.659-1.3927-8.4639-4.1771-11.4146-2.8123-3.0604-6.5345-4.5907-11.1665-4.5907-4.2463,0-6.3691,.5653-6.3691,1.6957,0,1.6273-.0279,4.0739-.0827,7.3408-.0555,3.2676-.0827,5.7145-.0827,7.3411,0,1.5993,.0272,4.0052,.0827,7.2167,.0548,3.2125,.0827,5.6318,.0827,7.2584,0,1.1857,2.2055,1.7784,6.6172,1.7784,4.7696,0,8.5196-1.5853,11.2492-4.7561,2.5642-3.0047,3.8463-6.9617,3.8463-11.8696Z"/>
      <path class="cls-2" d="M810.5138,1086.9369c0,.8548-.3999,1.2821-1.1997,1.2821h-14.6405c-.7998,0-1.199-.4819-1.199-1.4475,0-2.7846,.1032-6.9617,.3097-12.5313,.2071-5.5689,.3104-9.746,.3104-12.5313,0-.7995-.1237-1.2264-.3719-1.2821-.3042,.1654-2.1506,4.4252-5.5419,12.7794-1.9852,4.9079-3.9703,9.8017-5.9555,14.6819-.2762,.634-.6207,1.0063-1.0343,1.1167-.1381,.027-.6891,.0414-1.6543,.0414-1.4335,0-2.2887-.2758-2.5642-.8271-1.4889-3.0328-3.4467-7.4443-5.8728-13.2344-2.5915-6.1209-4.5356-10.5461-5.8311-13.2757-.0561-.1377-.1798-.2895-.3726-.4549-.1928,.2481-.2892,.648-.2892,1.1994,0,2.7026,.0684,6.7556,.2064,12.1591,.1381,5.4042,.2071,9.4572,.2071,12.1591,0,.9656-.3869,1.4475-1.158,1.4475h-13.8134c-.552,0-.8894-.0892-1.0134-.2687-.1241-.1791-.1859-.4895-.1859-.9307,0-3.0047,.1446-7.5199,.4341-13.5444,.2895-6.0242,.4344-10.5393,.4344-13.5447,0-3.1982-.1384-9.195-.4136-17.9905-.028-2.2883-.1521-5.693-.3722-10.2153l-.0414-.7031c-.028-.5513,.551-.8271,1.737-.8271,1.5159,0,3.7905-.0479,6.824-.1446,3.0328-.0964,5.3071-.1449,6.824-.1449,.3028,0,.7301,.579,1.2817,1.737l12.0764,26.5101c.8545,1.7927,1.5716,2.6882,2.1506,2.6882,.3035,0,.9516-1.0339,1.9441-3.1018,2.7843-5.79,6.9063-14.5165,12.3655-26.1792,.4689-1.0753,.9782-1.6129,1.5306-1.6129,.7991,0,2.0057,.0414,3.6183,.1241,1.6133,.0827,2.8335,.1241,3.6606,.1241,.6884,0,1.7432-.0684,3.1637-.2068,1.4198-.1377,2.4746-.2068,3.1637-.2068,.8271,0,1.2407,.3309,1.2407,.9926,0,3.2536-.1176,8.1132-.3514,14.5787-.2345,6.4658-.3514,11.3254-.3514,14.5783,0,3.0054,.1237,7.5134,.3719,13.5239,.2481,6.0112,.3726,10.5048,.3726,13.4825Z"/>
      <path class="cls-2" d="M844.9047,1056.3738c0,.8548-.1931,1.9715-.579,3.35-.3309,1.103-.648,2.2196-.9512,3.35-.1104,1.3792-.3722,3.3776-.7858,5.9968-.0827,.3866-.4136,.579-.9926,.579-1.0483,0-2.626-.0137-4.7356-.0414-2.1089-.027-3.7013-.0414-4.7766-.0414-2.895,0-6.7826,.2625-11.6628,.7858-.2758,.0277-1.0203,.1384-2.2333,.3309-.9656,.1654-1.7233,.2481-2.2747,.2481-.7174,0-1.0753-.6754-1.0753-2.0265,0-.7167,.4686-2.7152,1.4062-5.9968,.9099-3.1155,1.5716-5.1283,1.9852-6.0382,.1924-.4406,.5513-.6617,1.0753-.6617,1.0753,0,2.6882,.0557,4.8388,.1654,2.1506,.1104,3.7635,.1654,4.8388,.1654,2.2603,0,5.9968-.3309,11.2079-.9926,2.7296-.3579,4.0117-.5376,3.8462-.5376,.579,0,.8685,.4549,.8685,1.3648Z"/>
      <path class="cls-2" d="M865.8961,1057.6558c0,3.2536,.0827,8.1474,.2481,14.6819,.1654,6.5345,.2481,11.429,.2481,14.6819,0,.552-.1241,.8962-.3722,1.0339-.0557,.0277-.4136,.0827-1.0753,.1654-1.7927,.2205-4.1915,.3309-7.1962,.3309-4.026,0-6.5902-.1104-7.6925-.3309-.8001-.1654-1.1994-.5927-1.1994-1.2821,0,.4413,.1241-1.9852,.3722-7.2789,.4963-11.1665,.7444-18.5004,.7444-22.0021,0-2.95-.0971-7.3753-.2895-13.2757-.1931-5.8998-.2895-10.325-.2895-13.2757,0-.606,.3165-.9099,.9512-.9099,.8542,0,2.1434,.0414,3.8671,.1241,1.7227,.0827,3.0119,.1241,3.8667,.1241,.8542,0,2.1157-.0414,3.784-.1241,1.668-.0827,2.9295-.1241,3.7844-.1241,.7995,0,1.1994,.3039,1.1994,.9099,0,2.9507-.1589,7.376-.4754,13.2757-.3175,5.9004-.4758,10.3257-.4758,13.2757Z"/>
      <path class="cls-2" d="M912.0743,1042.8499c0,.552-.3039,.8271-.9099,.8271-1.0483,0-5.1974-.2068-12.4486-.6204-.1654,6.9757-.2481,11.8426-.2481,14.5992,0,3.2536,.1306,8.1474,.3927,14.6819,.2618,6.5345,.3931,11.429,.3931,14.6819,0,.524-.1241,.8548-.3722,.9926-.0827,.0557-.4693,.1241-1.158,.2068-1.6543,.2205-4.0807,.3309-7.2789,.3309-3.5567,0-6.0525-.1104-7.4857-.3309-.7721-.1377-1.158-.5646-1.158-1.2821,0-3.2529,.1377-8.1331,.4136-14.6405,.2751-6.5068,.4136-11.387,.4136-14.6405,0-2.1506-.1104-6.948-.3309-14.3924-5.5149,.552-9.9121,.8271-13.193,.8271-.4413,0-.6617-.1377-.6617-.4136,0-.3579,.1924-1.4198,.579-3.1845,.4406-1.9294,.6887-3.1018,.7444-3.5154,.0827-1.2958,.1791-2.5912,.2895-3.8876,.1924-2.0679,.5233-3.1018,.9926-3.1018,.055,0,.2481,.0144,.579,.0414,4.4666,.579,11.0694,.8685,19.8102,.8685,2.4814,0,7.0578-.2618,13.7307-.7858,3.5837-.2751,5.3901-.4136,5.4178-.4136,.5513,0,.8685,.0349,.9512,.1036,.0827,.069,.1377,.3377,.1654,.8063,0,.7444-.0277,1.7784-.0827,3.1018-.0557,1.4619-.0827,2.4958-.0827,3.1018,0,.6894,.0892,1.7028,.269,3.0396,.1788,1.3378,.2687,2.3369,.2687,2.9986Z"/>
      <path class="cls-2" d="M962.2641,1078.8722c0,.4413-.2895,1.0203-.8685,1.737-5.0733,6.0382-11.8146,9.0573-20.2238,9.0573-8.6023,0-15.5781-2.9364-20.9269-8.8091-5.211-5.6796-7.8166-12.8478-7.8166-21.5059,0-8.3812,2.5498-15.4947,7.6511-21.3404,5.3208-6.1209,12.09-9.1813,20.3065-9.1813,8.9332,0,15.9363,2.7439,21.0096,8.2301,.5513,.6067,.8271,1.1443,.8271,1.6129,0,.524-.9584,2.4678-2.8742,5.8314-1.9168,3.3643-3.1227,5.2524-3.6189,5.666-.2211,.2211-.4963,.3309-.8271,.3309-.1384,0-.8271-.5513-2.0679-1.6543-1.4889-1.3234-2.9507-2.3574-4.3839-3.1018-2.1783-1.1023-4.4396-1.6543-6.7826-1.6543-4.053,0-7.2933,1.5166-9.719,4.5493-2.2333,2.8123-3.35,6.2863-3.35,10.4221,0,4.1915,1.1167,7.7068,3.35,10.5461,2.4257,3.0881,5.666,4.632,9.719,4.632,2.3987,0,4.6734-.5233,6.824-1.5716,1.4062-.6887,2.8393-1.6543,4.3012-2.895,1.213-1.0476,1.8881-1.5716,2.0265-1.5716,.2751,0,.5513,.1518,.8271,.4549,.4406,.4963,1.6399,2.2196,3.5981,5.1697,2.0122,3.0604,3.0191,4.7424,3.0191,5.0456Z"/>
    </g>
    <g>
      <path class="cls-2" d="M546.2251,1057.6558c0,3.2536,.0827,8.1474,.2482,14.6819s.2482,11.429,.2482,14.6819c0,.552-.1241,.8962-.3722,1.0339-.0555,.0277-.4136,.0827-1.0753,.1654-1.7926,.2205-4.1913,.3309-7.1962,.3309-4.0258,0-6.59-.1104-7.6925-.3309-.8-.1654-1.1994-.5927-1.1994-1.2821,0,.4413,.1241-1.9852,.3722-7.2789,.4963-11.1665,.7445-18.5004,.7445-22.0021,0-2.95-.0969-7.3753-.2895-13.2757-.1933-5.8998-.2895-10.325-.2895-13.2757,0-.606,.3167-.9099,.9512-.9099,.8543,0,2.1434,.0414,3.8669,.1241,1.7228,.0827,3.0119,.1241,3.8669,.1241,.8543,0,2.1157-.0414,3.7842-.1241,1.6678-.0827,2.9292-.1241,3.7842-.1241,.7993,0,1.1994,.3039,1.1994,.9099,0,2.9507-.1589,7.376-.4756,13.2757-.3174,5.9004-.4757,10.3257-.4757,13.2757Z"/>
      <path class="cls-2" d="M580.3269,1069.1946c0,5.5976-2.3574,10.3951-7.0721,14.3924-4.1357,3.5297-9.1678,5.7757-15.0955,6.7413-.221,.027-.4001,.0414-.5376,.0414-.6345,0-2.0407-1.9373-4.2184-5.8105-2.1784-3.8736-3.2672-6.2381-3.2672-7.093,0-.3032,.2068-.4963,.6204-.579,3.9975-.9099,6.6444-1.6813,7.9406-2.316,2.8672-1.4332,4.3012-3.5567,4.3012-6.369,0-1.792-.9377-3.7905-2.8123-5.9968-3.2537-3.7492-5.0184-5.8314-5.2938-6.245-1.9024-2.8673-2.8537-6.0382-2.8537-9.5122,0-5.0456,2.3295-9.2364,6.9894-12.5727,3.8049-2.7566,8.4783-4.5493,14.0202-5.3765,.303-.027,.5376-.0414,.7031-.0414,.4136,0,.7445,.3309,.9926,.9926,.7166,2.0128,2.3846,5.6523,5.0043,10.9184,.0827,.1654,.1241,.3039,.1241,.4136,0,.4693-.2481,.7031-.7445,.7031-.221,0-.5932-.0414-1.1167-.1241-.5242-.0827-.924-.1241-1.1994-.1241-1.9852,0-3.7222,.4549-5.211,1.3648-1.7926,1.0483-2.6882,2.5091-2.6882,4.3839,0,1.682,.9926,3.7499,2.9777,6.2036,3.5012,4.4116,5.3351,6.7276,5.5005,6.948,1.9574,3.0334,2.9365,6.0525,2.9365,9.0573Z"/>
      <path class="cls-2" d="M632.9566,1078.8722c0,.4413-.2895,1.0203-.8685,1.737-5.0735,6.0382-11.8147,9.0573-20.2238,9.0573-8.6023,0-15.5782-2.9364-20.9269-8.8091-5.211-5.6796-7.8166-12.8478-7.8166-21.5059,0-8.3812,2.55-15.4947,7.6511-21.3404,5.3209-6.1209,12.0899-9.1813,20.3065-9.1813,8.9332,0,15.9361,2.7439,21.0095,8.2301,.5511,.6067,.8271,1.1443,.8271,1.6129,0,.524-.9584,2.4678-2.8743,5.8314-1.9166,3.3643-3.1225,5.2524-3.6188,5.666-.221,.2211-.4963,.3309-.8271,.3309-.1383,0-.8271-.5513-2.0679-1.6543-1.4889-1.3234-2.9506-2.3574-4.3839-3.1018-2.1784-1.1023-4.4394-1.6543-6.7826-1.6543-4.053,0-7.2931,1.5166-9.719,4.5493-2.2333,2.8123-3.35,6.2863-3.35,10.4221,0,4.1915,1.1167,7.7068,3.35,10.5461,2.4259,3.0881,5.666,4.632,9.719,4.632,2.3987,0,4.6734-.5233,6.824-1.5716,1.4062-.6887,2.8395-1.6543,4.3012-2.895,1.2128-1.0476,1.8883-1.5716,2.0265-1.5716,.2753,0,.5511,.1518,.8271,.4549,.4407,.4963,1.6401,2.2196,3.5981,5.1697,2.0123,3.0604,3.019,4.7424,3.019,5.0456Z"/>
      <path class="cls-2" d="M664.122,1056.3738c0,.8548-.1933,1.9715-.579,3.35-.3309,1.103-.6482,2.2196-.9512,3.35-.1106,1.3792-.3722,3.3776-.7858,5.9968-.0827,.3866-.4136,.579-.9926,.579-1.0481,0-2.6262-.0137-4.7354-.0414-2.1092-.027-3.7015-.0414-4.7768-.0414-2.895,0-6.7826,.2625-11.6628,.7858-.276,.0277-1.0204,.1384-2.2333,.3309-.9654,.1654-1.7235,.2481-2.2747,.2481-.7173,0-1.0753-.6754-1.0753-2.0265,0-.7167,.4684-2.7152,1.4062-5.9968,.9099-3.1155,1.5716-5.1283,1.9852-6.0382,.1926-.4406,.5511-.6617,1.0753-.6617,1.0753,0,2.6883,.0557,4.8388,.1654,2.1506,.1104,3.7635,.1654,4.8388,.1654,2.2605,0,5.9968-.3309,11.2079-.9926,2.7296-.3579,4.0117-.5376,3.8463-.5376,.5789,0,.8685,.4549,.8685,1.3648Z"/>
      <path class="cls-2" d="M685.1133,1057.6558c0,3.2536,.0827,8.1474,.2481,14.6819s.2481,11.429,.2481,14.6819c0,.552-.1241,.8962-.3722,1.0339-.0555,.0277-.4136,.0827-1.0753,.1654-1.7926,.2205-4.1913,.3309-7.1962,.3309-4.0258,0-6.59-.1104-7.6925-.3309-.8-.1654-1.1994-.5927-1.1994-1.2821,0,.4413,.1241-1.9852,.3722-7.2789,.4963-11.1665,.7445-18.5004,.7445-22.0021,0-2.95-.0969-7.3753-.2895-13.2757-.1933-5.8998-.2895-10.325-.2895-13.2757,0-.606,.3167-.9099,.9512-.9099,.8543,0,2.1434,.0414,3.8669,.1241,1.7228,.0827,3.0119,.1241,3.8669,.1241,.8543,0,2.1157-.0414,3.7842-.1241,1.6678-.0827,2.9292-.1241,3.7842-.1241,.7993,0,1.1994,.3039,1.1994,.9099,0,2.9507-.1589,7.376-.4756,13.2757-.3174,5.9004-.4756,10.3257-.4756,13.2757Z"/>
      <path class="cls-2" d="M744.9807,1058.8966c0,8.1061-2.6055,15.1368-7.8166,21.0923-4.6048,5.3214-11.0703,8.1204-19.3966,8.3956-1.5994,.055-5.9968,.0827-13.193,.0827-1.3513,0-3.3848-.0414-6.1002-.1241-2.7161-.0827-4.7496-.1241-6.1002-.1241-.8,0-1.1994-.3165-1.1994-.9512,0-3.0328,.1169-7.5889,.3515-13.6688,.234-6.0792,.3515-10.635,.3515-13.6685,0-3.1702-.1176-7.9201-.3515-14.2475-.2346-6.328-.3515-11.0633-.3515-14.2064,0-.579,.3994-.9235,1.1994-1.0339,1.9573-.2205,5.1697-.3309,9.6363-.3309,8.4918,0,13.9923,.1241,16.5016,.3722,6.5345,.6617,11.6486,2.316,15.3436,4.9629,3.474,2.4814,6.2171,5.9555,8.2301,10.4221,1.9296,4.2185,2.895,8.561,2.895,13.0276Zm-15.8399,0c0-4.659-1.3927-8.4639-4.1771-11.4146-2.8123-3.0604-6.5345-4.5907-11.1665-4.5907-4.2463,0-6.3691,.5653-6.3691,1.6957,0,1.6273-.0279,4.0739-.0827,7.3408-.0555,3.2676-.0827,5.7145-.0827,7.3411,0,1.5993,.0272,4.0052,.0827,7.2167,.0548,3.2125,.0827,5.6318,.0827,7.2584,0,1.1857,2.2055,1.7784,6.6172,1.7784,4.7696,0,8.5196-1.5853,11.2492-4.7561,2.5642-3.0047,3.8463-6.9617,3.8463-11.8696Z"/>
      <path class="cls-2" d="M810.5138,1086.9369c0,.8548-.3999,1.2821-1.1997,1.2821h-14.6405c-.7998,0-1.199-.4819-1.199-1.4475,0-2.7846,.1032-6.9617,.3097-12.5313,.2071-5.5689,.3104-9.746,.3104-12.5313,0-.7995-.1237-1.2264-.3719-1.2821-.3042,.1654-2.1506,4.4252-5.5419,12.7794-1.9852,4.9079-3.9703,9.8017-5.9555,14.6819-.2762,.634-.6207,1.0063-1.0343,1.1167-.1381,.027-.6891,.0414-1.6543,.0414-1.4335,0-2.2887-.2758-2.5642-.8271-1.4889-3.0328-3.4467-7.4443-5.8728-13.2344-2.5915-6.1209-4.5356-10.5461-5.8311-13.2757-.0561-.1377-.1798-.2895-.3726-.4549-.1928,.2481-.2892,.648-.2892,1.1994,0,2.7026,.0684,6.7556,.2064,12.1591,.1381,5.4042,.2071,9.4572,.2071,12.1591,0,.9656-.3869,1.4475-1.158,1.4475h-13.8134c-.552,0-.8894-.0892-1.0134-.2687-.1241-.1791-.1859-.4895-.1859-.9307,0-3.0047,.1446-7.5199,.4341-13.5444,.2895-6.0242,.4344-10.5393,.4344-13.5447,0-3.1982-.1384-9.195-.4136-17.9905-.028-2.2883-.1521-5.693-.3722-10.2153l-.0414-.7031c-.028-.5513,.551-.8271,1.737-.8271,1.5159,0,3.7905-.0479,6.824-.1446,3.0328-.0964,5.3071-.1449,6.824-.1449,.3028,0,.7301,.579,1.2817,1.737l12.0764,26.5101c.8545,1.7927,1.5716,2.6882,2.1506,2.6882,.3035,0,.9516-1.0339,1.9441-3.1018,2.7843-5.79,6.9063-14.5165,12.3655-26.1792,.4689-1.0753,.9782-1.6129,1.5306-1.6129,.7991,0,2.0057,.0414,3.6183,.1241,1.6133,.0827,2.8335,.1241,3.6606,.1241,.6884,0,1.7432-.0684,3.1637-.2068,1.4198-.1377,2.4746-.2068,3.1637-.2068,.8271,0,1.2407,.3309,1.2407,.9926,0,3.2536-.1176,8.1132-.3514,14.5787-.2345,6.4658-.3514,11.3254-.3514,14.5783,0,3.0054,.1237,7.5134,.3719,13.5239,.2481,6.0112,.3726,10.5048,.3726,13.4825Z"/>
      <path class="cls-2" d="M844.9047,1056.3738c0,.8548-.1931,1.9715-.579,3.35-.3309,1.103-.648,2.2196-.9512,3.35-.1104,1.3792-.3722,3.3776-.7858,5.9968-.0827,.3866-.4136,.579-.9926,.579-1.0483,0-2.626-.0137-4.7356-.0414-2.1089-.027-3.7013-.0414-4.7766-.0414-2.895,0-6.7826,.2625-11.6628,.7858-.2758,.0277-1.0203,.1384-2.2333,.3309-.9656,.1654-1.7233,.2481-2.2747,.2481-.7174,0-1.0753-.6754-1.0753-2.0265,0-.7167,.4686-2.7152,1.4062-5.9968,.9099-3.1155,1.5716-5.1283,1.9852-6.0382,.1924-.4406,.5513-.6617,1.0753-.6617,1.0753,0,2.6882,.0557,4.8388,.1654,2.1506,.1104,3.7635,.1654,4.8388,.1654,2.2603,0,5.9968-.3309,11.2079-.9926,2.7296-.3579,4.0117-.5376,3.8462-.5376,.579,0,.8685,.4549,.8685,1.3648Z"/>
      <path class="cls-2" d="M865.8961,1057.6558c0,3.2536,.0827,8.1474,.2481,14.6819,.1654,6.5345,.2481,11.429,.2481,14.6819,0,.552-.1241,.8962-.3722,1.0339-.0557,.0277-.4136,.0827-1.0753,.1654-1.7927,.2205-4.1915,.3309-7.1962,.3309-4.026,0-6.5902-.1104-7.6925-.3309-.8001-.1654-1.1994-.5927-1.1994-1.2821,0,.4413,.1241-1.9852,.3722-7.2789,.4963-11.1665,.7444-18.5004,.7444-22.0021,0-2.95-.0971-7.3753-.2895-13.2757-.1931-5.8998-.2895-10.325-.2895-13.2757,0-.606,.3165-.9099,.9512-.9099,.8542,0,2.1434,.0414,3.8671,.1241,1.7227,.0827,3.0119,.1241,3.8667,.1241,.8542,0,2.1157-.0414,3.784-.1241,1.668-.0827,2.9295-.1241,3.7844-.1241,.7995,0,1.1994,.3039,1.1994,.9099,0,2.9507-.1589,7.376-.4754,13.2757-.3175,5.9004-.4758,10.3257-.4758,13.2757Z"/>
      <path class="cls-2" d="M912.0743,1042.8499c0,.552-.3039,.8271-.9099,.8271-1.0483,0-5.1974-.2068-12.4486-.6204-.1654,6.9757-.2481,11.8426-.2481,14.5992,0,3.2536,.1306,8.1474,.3927,14.6819,.2618,6.5345,.3931,11.429,.3931,14.6819,0,.524-.1241,.8548-.3722,.9926-.0827,.0557-.4693,.1241-1.158,.2068-1.6543,.2205-4.0807,.3309-7.2789,.3309-3.5567,0-6.0525-.1104-7.4857-.3309-.7721-.1377-1.158-.5646-1.158-1.2821,0-3.2529,.1377-8.1331,.4136-14.6405,.2751-6.5068,.4136-11.387,.4136-14.6405,0-2.1506-.1104-6.948-.3309-14.3924-5.5149,.552-9.9121,.8271-13.193,.8271-.4413,0-.6617-.1377-.6617-.4136,0-.3579,.1924-1.4198,.579-3.1845,.4406-1.9294,.6887-3.1018,.7444-3.5154,.0827-1.2958,.1791-2.5912,.2895-3.8876,.1924-2.0679,.5233-3.1018,.9926-3.1018,.055,0,.2481,.0144,.579,.0414,4.4666,.579,11.0694,.8685,19.8102,.8685,2.4814,0,7.0578-.2618,13.7307-.7858,3.5837-.2751,5.3901-.4136,5.4178-.4136,.5513,0,.8685,.0349,.9512,.1036,.0827,.069,.1377,.3377,.1654,.8063,0,.7444-.0277,1.7784-.0827,3.1018-.0557,1.4619-.0827,2.4958-.0827,3.1018,0,.6894,.0892,1.7028,.269,3.0396,.1788,1.3378,.2687,2.3369,.2687,2.9986Z"/>
      <path class="cls-2" d="M962.2641,1078.8722c0,.4413-.2895,1.0203-.8685,1.737-5.0733,6.0382-11.8146,9.0573-20.2238,9.0573-8.6023,0-15.5781-2.9364-20.9269-8.8091-5.211-5.6796-7.8166-12.8478-7.8166-21.5059,0-8.3812,2.5498-15.4947,7.6511-21.3404,5.3208-6.1209,12.09-9.1813,20.3065-9.1813,8.9332,0,15.9363,2.7439,21.0096,8.2301,.5513,.6067,.8271,1.1443,.8271,1.6129,0,.524-.9584,2.4678-2.8742,5.8314-1.9168,3.3643-3.1227,5.2524-3.6189,5.666-.2211,.2211-.4963,.3309-.8271,.3309-.1384,0-.8271-.5513-2.0679-1.6543-1.4889-1.3234-2.9507-2.3574-4.3839-3.1018-2.1783-1.1023-4.4396-1.6543-6.7826-1.6543-4.053,0-7.2933,1.5166-9.719,4.5493-2.2333,2.8123-3.35,6.2863-3.35,10.4221,0,4.1915,1.1167,7.7068,3.35,10.5461,2.4257,3.0881,5.666,4.632,9.719,4.632,2.3987,0,4.6734-.5233,6.824-1.5716,1.4062-.6887,2.8393-1.6543,4.3012-2.895,1.213-1.0476,1.8881-1.5716,2.0265-1.5716,.2751,0,.5513,.1518,.8271,.4549,.4406,.4963,1.6399,2.2196,3.5981,5.1697,2.0122,3.0604,3.0191,4.7424,3.0191,5.0456Z"/>
    </g>
  </g>
  <rect class="cls-1" x="446.3884" y="969.5283" width="598.2081" height="14.1549"/>
  <path class="cls-3" d="M454.5028,707.4662h582.2743c4.1738,0,7.5573-3.3835,7.5573-7.5573v-58.2811c0-4.1738-3.3835-7.5573-7.5573-7.5573H454.5028c-4.1738,0-7.5573,3.3835-7.5573,7.5573v58.2811c0,4.1738,3.3835,7.5573,7.5573,7.5573Z"/>
  <circle class="cls-6" cx="490.1146" cy="671.4892" r="11.55"/>
  <polygon class="cls-6" points="664.8882 646.7345 601.1912 646.7345 556.3674 697.2268 620.0644 697.2268 664.8882 646.7345"/>
  <polygon class="cls-6" points="778.8483 646.7345 715.1512 646.7345 670.3274 697.2268 734.0244 697.2268 778.8483 646.7345"/>
  <polygon class="cls-6" points="894.3483 645.9645 830.6512 645.9645 785.8274 696.4568 849.5244 696.4568 894.3483 645.9645"/>
  <polygon class="cls-6" points="1009.0782 645.9645 945.3812 645.9645 900.5574 696.4568 964.2544 696.4568 1009.0782 645.9645"/>
  <path class="cls-4" d="M461.0408,661.0968l569.878-119.5089c4.0849-.8567,6.702-4.8626,5.8453-8.9475l-11.9619-57.0403c-.8566-4.0849-4.8626-6.702-8.9475-5.8453l-569.878,119.5089c-4.0849,.8567-6.702,4.8626-5.8453,8.9475l11.9619,57.0403c.8566,4.0849,4.8626,6.702,8.9475,5.8453Z"/>
  <circle class="cls-6" cx="488.5104" cy="618.5766" r="11.55"/>
  <polygon class="cls-6" points="654.4824 558.4775 592.1415 571.551 558.6352 630.1682 620.9762 617.0948 654.4824 558.4775"/>
  <polygon class="cls-6" points="766.0163 535.0878 703.6753 548.1612 670.1691 606.7785 732.51 593.705 766.0163 535.0878"/>
  <polygon class="cls-6" points="878.8993 510.6283 816.5584 523.7018 783.0521 582.3191 845.3931 569.2456 878.8993 510.6283"/>
  <polygon class="cls-6" points="991.1868 487.0806 928.8459 500.1541 895.3396 558.7713 957.6806 545.6978 991.1868 487.0806"/>
  <rect class="cls-7" x="518.4408" y="735.776" width="511.1489" height="257.1472"/>
</svg>