<?xml version="1.0" encoding="UTF-8"?>
<svg id="Capa_1" data-name="Capa 1" xmlns="http://www.w3.org/2000/svg" xmlns:xlink="http://www.w3.org/1999/xlink" viewBox="0 0 1602.3617 1647.2979">
  <defs>
    <style>
      .cls-1, .cls-2 {
        fill: #fff;
      }

      .cls-3, .cls-4, .cls-2, .cls-5 {
        stroke-miterlimit: 10;
      }

      .cls-3, .cls-5 {
        stroke: #000;
      }

      .cls-4 {
        stroke: url(#Degradado_sin_nombre);
      }

      .cls-6 {
        fill: #fffffe;
      }

      .cls-7 {
        fill: none;
      }

      .cls-2 {
        stroke: #fff;
      }

      .cls-5 {
        stroke-width: 10px;
      }
    </style>
    <linearGradient id="Degradado_sin_nombre" data-name="Degradado sin nombre" x1="137.1552" y1="1330.0054" x2="1332.0705" y2="1330.0054" gradientTransform="translate(0 1654.1064) scale(1 -1)" gradientUnits="userSpaceOnUse">
      <stop offset="0" stop-color="#fffffe"/>
      <stop offset=".2672" stop-color="#cbcee0" stop-opacity=".7328"/>
      <stop offset=".7743" stop-color="#667ca8" stop-opacity=".2257"/>
      <stop offset="1" stop-color="#3b6194" stop-opacity="0"/>
    </linearGradient>
  </defs>
  <path class="cls-5" d="M1227.6422,1462.1938l-208.0148,17.8298c-8.1113,.6953-16.2484,1.0433-24.3894,1.0433H435.842c-12.0983,0-24.1788-.9285-36.135-2.7774l-134.5975-20.814c-64.4834-18.8733-106.9481-33.7969-106.9481-104.589V638.0644c0-5.2117,4.2249-9.4365,9.4366-9.4365H1329.8721c5.2116,0,9.4366,4.2249,9.4366,9.4365v714.822c0,70.7922-45.6103,95.1525-111.6665,109.3073Z"/>
  <g>
    <path class="cls-2" d="M632.9778,775.1324c0,2.2087-2.0067,3.3086-6.0157,3.3086-15.0391,0-37.8512-1.3019-68.4277-3.9101-30.5809-2.6038-53.4919-3.9101-68.7285-3.9101-19.25,0-30.4821,.7047-33.6875,2.1055-7.4208,3.4118-11.1289,13.0368-11.1289,28.875,0,19.0524,4.8125,29.8806,14.4375,32.4844,4.009,1.0056,10.1233,1.5039,18.3476,1.5039,13.8359,0,34.5382-.752,62.1113-2.2559,27.5687-1.5039,48.2753-2.2559,62.1113-2.2559,6.6172,0,9.9258,17.6477,9.9258,52.9375,0,30.6797-1.1043,48.529-3.3086,53.5391-1.4051,3.6094-4.1122,5.4141-8.1211,5.4141,2.6038,0-3.7126-.7-18.9492-2.1055-21.4587-2.0022-53.9431-3.0078-97.4532-3.0078-14.0379,0-21.957,.1032-23.7617,.3008-10.2266,1.6071-15.3399,5.9172-15.3399,12.9336,0,28.4758,1.2032,61.2609,3.6093,98.3555,2.0023,33.4899,3.0078,48.4258,3.0078,44.8164,0,5.2117-6.3164,8.2195-18.9492,9.0234,3.4074-.2023-5.5172-.3008-26.7695-.3008-37.4989,0-61.6601-1.3063-72.4883-3.9102-5.818-1.4007-8.7226-4.5117-8.7226-9.3242,0-22.2578,.7519-55.6917,2.2559-100.3105,1.5039-44.6141,2.2559-78.0527,2.2559-100.3105,0-26.4688-1.2032-59.7522-3.6093-99.8593-3.6093-61.9609-5.5173-95.2445-5.7149-99.8593l-.3008-3.6093c-.202-5.0101,2.8058-7.5195,9.0234-7.5195,14.8371,0,37.2452,.3008,67.2246,.9024,29.9749,.6016,52.4864,.9024,67.5253,.9024,16.0402,0,40.1543-1.2032,72.3378-3.6093,32.1836-2.4062,56.2932-3.6093,72.3378-3.6093,10.0246,0,15.6407,4.1122,16.8438,12.332,0,8.6239,.3996,21.5575,1.2032,38.8008,.3996,4.4129,1.7015,12.9336,3.9101,25.5664,2.0025,11.0298,3.0081,19.5504,3.0081,25.566Z"/>
    <path class="cls-2" d="M1019.7824,1031.0973c0,3.2102-2.1055,7.4211-6.3164,12.6328-36.8977,43.9141-85.925,65.8711-147.082,65.8711-62.5625,0-113.2958-21.3555-152.1953-64.0664-37.8984-41.3055-56.8476-93.4397-56.8476-156.4062,0-60.9554,18.5453-112.6898,55.6445-155.2032,38.6976-44.5157,87.9266-66.7734,147.6836-66.7734,64.9688,0,115.8992,19.9547,152.7969,59.8555,4.0086,4.4129,6.0156,8.3231,6.0156,11.7305,0,3.8114-6.9699,17.9481-20.9043,42.4101-13.9398,24.4665-22.709,38.1992-26.3184,41.207-1.6078,1.6071-3.6094,2.4062-6.0156,2.4062-1.0062,0-6.0156-4.0086-15.0391-12.0312-10.8281-9.625-21.4594-17.1445-31.8828-22.5586-15.843-8.0179-32.2875-12.0312-49.3281-12.0312-29.4766,0-53.0414,11.0301-70.6836,33.0859-16.2422,20.4532-24.3633,45.7187-24.3633,75.7968,0,30.4821,8.1211,56.0485,24.3633,76.6992,17.6422,22.4602,41.207,33.6875,70.6836,33.6875,17.4453,0,33.9883-3.8069,49.6289-11.4297,10.2266-5.0101,20.65-12.0312,31.2812-21.0547,8.8211-7.618,13.732-11.4297,14.7383-11.4297,2.0016,0,4.0086,1.1047,6.0156,3.3086,3.2047,3.6094,11.9273,16.1438,26.168,37.5977,14.6343,22.258,21.9569,34.4916,21.9569,36.6955Z"/>
    <path class="cls-2" d="M1174.384,876.7965c0,23.6633,.6016,59.2539,1.8047,106.7773s1.8047,83.1188,1.8047,106.7773c0,4.0134-.9023,6.5188-2.707,7.5195-.404,.2023-3.0078,.6016-7.8203,1.2031-13.0368,1.6023-30.4821,2.4062-52.3359,2.4062-29.279,0-47.9274-.8039-55.9453-2.4062-5.8181-1.2031-8.7227-4.3094-8.7227-9.3242,0,3.2102,.9023-14.4375,2.707-52.9375,3.6094-81.2109,5.4141-134.5477,5.4141-160.0156,0-21.4539-.7048-53.6375-2.1055-96.5508-1.4055-42.9085-2.1055-75.0921-2.1055-96.5508,0-4.4085,2.303-6.6172,6.918-6.6172,6.2132,0,15.5887,.3008,28.123,.9024,12.5296,.6016,21.9051,.9024,28.123,.9024,6.2132,0,15.387-.3008,27.5215-.9024,12.1297-.6016,21.3035-.9024,27.5215-.9024,5.8133,0,8.7227,2.2087,8.7227,6.6172,0,21.4587-1.156,53.6422-3.459,96.5508-2.3078,42.9133-3.459,75.0969-3.459,96.5508Z"/>
  </g>
  <g>
    <g>
      <path class="cls-2" d="M350.1675,1308.5612c0,6.5071,.1654,16.2948,.4963,29.3638s.4963,22.858,.4963,29.3638c0,1.104-.2481,1.7924-.7445,2.0679-.1111,.0554-.8271,.1654-2.1506,.3309-3.5851,.4409-8.3826,.6617-14.3923,.6617-8.0517,0-13.18-.2208-15.3849-.6617-1.5999-.3309-2.3988-1.1854-2.3988-2.5642,0,.8825,.2481-3.9703,.7445-14.5578,.9926-22.333,1.4889-37.0009,1.4889-44.0043,0-5.9001-.1938-14.7506-.579-26.5515-.3865-11.7995-.579-20.65-.579-26.5515,0-1.212,.6333-1.8197,1.9025-1.8197,1.7086,0,4.2868,.0827,7.7338,.2481,3.4457,.1654,6.0238,.2481,7.7338,.2481,1.7086,0,4.2314-.0827,7.5684-.2481,3.3356-.1654,5.8584-.2481,7.5684-.2481,1.5986,0,2.3988,.6077,2.3988,1.8197,0,5.9015-.3179,14.752-.9512,26.5515-.6349,11.8009-.9514,20.6514-.9514,26.5515Z"/>
      <path class="cls-2" d="M418.371,1331.6386c0,11.1952-4.7148,20.7901-14.1443,28.7848-8.2715,7.0595-18.3357,11.5514-30.1909,13.4825-.4419,.054-.8002,.0827-1.0753,.0827-1.2691,0-4.0814-3.8746-8.4369-11.6211-4.3569-7.7472-6.5345-12.4763-6.5345-14.1859,0-.6063,.4136-.9926,1.2407-1.158,7.995-1.8197,13.2887-3.3626,15.8813-4.632,5.7343-2.8663,8.6024-7.1135,8.6024-12.7381,0-3.5841-1.8754-7.5811-5.6246-11.9937-6.5075-7.4983-10.0369-11.6628-10.5875-12.4899-3.8048-5.7347-5.7073-12.0764-5.7073-19.0244,0-10.0912,4.6591-18.4728,13.9788-25.1453,7.6098-5.5132,16.9565-9.0986,28.0403-10.7529,.606-.054,1.0753-.0827,1.4062-.0827,.8271,0,1.4889,.6617,1.9851,1.9852,1.4332,4.0257,4.7691,11.3046,10.0085,21.8367,.1654,.3309,.2481,.6077,.2481,.8271,0,.9386-.4963,1.4062-1.4889,1.4062-.4419,0-1.1864-.0827-2.2333-.2481-1.0483-.1654-1.8481-.2481-2.3988-.2481-3.9703,0-7.4444,.9099-10.4221,2.7296-3.5851,2.0966-5.3765,5.0183-5.3765,8.7678,0,3.364,1.9851,7.4997,5.9555,12.4072,7.0024,8.8231,10.6702,13.4552,11.0011,13.8961,3.9147,6.0669,5.8729,12.1051,5.8729,18.1146Z"/>
      <path class="cls-2" d="M523.6304,1350.9939c0,.8825-.579,2.0405-1.737,3.474-10.1469,12.0764-23.6294,18.1146-40.4476,18.1146-17.2047,0-31.1565-5.8728-41.8537-17.6183-10.4221-11.3593-15.6331-25.6956-15.6331-43.0117,0-16.7624,5.0999-30.9894,15.3023-42.6809,10.6418-12.2418,24.1797-18.3627,40.613-18.3627,17.8664,0,31.8722,5.4879,42.0191,16.4603,1.1023,1.2134,1.6543,2.2887,1.6543,3.2259,0,1.0479-1.9168,4.9355-5.7487,11.6628-3.8333,6.7286-6.245,10.5048-7.2376,11.3319-.4419,.4423-.9926,.6617-1.6543,.6617-.2765,0-1.6543-1.1026-4.1357-3.3086-2.9777-2.6469-5.9011-4.7147-8.7678-6.2036-4.3569-2.2046-8.8789-3.3086-13.5652-3.3086-8.1061,0-14.5862,3.0331-19.438,9.0986-4.4666,5.6246-6.6999,12.5727-6.6999,20.8441,0,8.3829,2.2333,15.4137,6.6999,21.0923,4.8518,6.1763,11.3319,9.2641,19.438,9.2641,4.7975,0,9.3467-1.0466,13.648-3.1432,2.8123-1.3774,5.679-3.3086,8.6024-5.79,2.4257-2.0952,3.7765-3.1432,4.053-3.1432,.5506,0,1.1023,.3035,1.6543,.9099,.8815,.9926,3.2802,4.4393,7.1962,10.3394,4.0246,6.1209,6.0381,9.4849,6.0381,10.0912Z"/>
      <path class="cls-2" d="M585.9612,1305.997c0,1.7097-.3865,3.943-1.158,6.6999-.6617,2.206-1.2965,4.4393-1.9024,6.6999-.2211,2.7583-.7444,6.7553-1.5716,11.9937-.1654,.7731-.8271,1.158-1.9851,1.158-2.0962,0-5.2524-.0273-9.4708-.0827-4.2185-.054-7.403-.0827-9.5535-.0827-5.79,0-13.5652,.525-23.3256,1.5716-.552,.0554-2.0409,.2769-4.4666,.6617-1.9308,.3309-3.447,.4963-4.5493,.4963-1.4345,0-2.1506-1.3508-2.1506-4.053,0-1.4335,.9369-5.4305,2.8123-11.9937,1.8197-6.231,3.1431-10.2566,3.9703-12.0764,.3852-.8812,1.1023-1.3234,2.1506-1.3234,2.1506,0,5.3765,.1114,9.6776,.3309,4.3011,.2208,7.5271,.3309,9.6776,.3309,4.5209,0,11.9937-.6617,22.4158-1.9852,5.4592-.7157,8.0233-1.0753,7.6925-1.0753,1.1579,0,1.7369,.9099,1.7369,2.7296Z"/>
      <path class="cls-2" d="M627.9438,1308.5612c0,6.5071,.1654,16.2948,.4963,29.3638s.4963,22.858,.4963,29.3638c0,1.104-.2481,1.7924-.7444,2.0679-.1111,.0554-.8271,.1654-2.1506,.3309-3.5851,.4409-8.3826,.6617-14.3923,.6617-8.0517,0-13.18-.2208-15.385-.6617-1.5999-.3309-2.3988-1.1854-2.3988-2.5642,0,.8825,.2481-3.9703,.7444-14.5578,.9926-22.333,1.4889-37.0009,1.4889-44.0043,0-5.9001-.1938-14.7506-.579-26.5515-.3865-11.7995-.579-20.65-.579-26.5515,0-1.212,.6333-1.8197,1.9024-1.8197,1.7086,0,4.2868,.0827,7.7338,.2481,3.4457,.1654,6.0239,.2481,7.7338,.2481,1.7086,0,4.2314-.0827,7.5684-.2481,3.3356-.1654,5.8584-.2481,7.5684-.2481,1.5986,0,2.3988,.6077,2.3988,1.8197,0,5.9015-.3179,14.752-.9512,26.5515-.6348,11.8009-.9513,20.6514-.9513,26.5515Z"/>
      <path class="cls-2" d="M747.6787,1311.0426c0,16.2121-5.211,30.2736-15.6331,42.1846-9.2097,10.6429-22.1406,16.2408-38.7932,16.7911-3.1989,.1101-11.9937,.1654-26.386,.1654-2.7025,0-6.7696-.0827-12.2004-.2481-5.4322-.1654-9.4992-.2481-12.2004-.2481-1.5999,0-2.3988-.633-2.3988-1.9024,0-6.0655,.2338-15.1778,.7031-27.3376,.468-12.1584,.7031-21.27,.7031-27.3369,0-6.3403-.2351-15.8402-.7031-28.4949-.4693-12.6561-.7031-22.1266-.7031-28.4129,0-1.158,.7988-1.8471,2.3988-2.0679,3.9146-.4409,10.3394-.6617,19.2726-.6617,16.9835,0,27.9846,.2481,33.0033,.7444,13.0689,1.3234,23.2972,4.632,30.6872,9.9258,6.948,4.9629,12.4342,11.9109,16.4602,20.8441,3.8591,8.4369,5.7899,17.122,5.7899,26.0552Zm-31.6798,0c0-9.3181-2.7853-16.9278-8.3542-22.8293-5.6247-6.1209-13.0689-9.1813-22.333-9.1813-8.4926,0-12.7381,1.1307-12.7381,3.3913,0,3.2546-.0557,8.1478-.1654,14.6815-.1111,6.5352-.1654,11.429-.1654,14.6822,0,3.1985,.0543,8.0104,.1654,14.4334,.1097,6.4251,.1654,11.2636,.1654,14.5168,0,2.3714,4.4109,3.5567,13.2343,3.5567,9.5392,0,17.0393-3.1705,22.4984-9.5122,5.1284-6.0095,7.6926-13.9234,7.6926-23.7392Z"/>
      <path class="cls-2" d="M878.7448,1367.1233c0,1.7097-.7998,2.5642-2.3994,2.5642h-29.2811c-1.5996,0-2.398-.9639-2.398-2.895,0-5.5692,.2064-13.9234,.6193-25.0626,.4143-11.1378,.6207-19.492,.6207-25.0626,0-1.5989-.2475-2.4527-.7438-2.5642-.6084,.3309-4.3012,8.8505-11.0838,25.5589-3.9703,9.8157-7.9406,19.6034-11.9109,29.3638-.5523,1.2681-1.2414,2.0125-2.0686,2.2333-.2762,.054-1.3781,.0827-3.3086,.0827-2.867,0-4.5773-.5517-5.1283-1.6543-2.9777-6.0655-6.8934-14.8887-11.7455-26.4688-5.183-12.2418-9.0713-21.0923-11.6621-26.5515-.1121-.2755-.3596-.579-.7451-.9099-.3855,.4963-.5783,1.2961-.5783,2.3987,0,5.4052,.1367,13.5112,.4129,24.3182,.2762,10.8083,.4143,18.9144,.4143,24.3182,0,1.9312-.7738,2.895-2.316,2.895h-27.6268c-1.104,0-1.7787-.1784-2.0269-.5373-.2481-.3582-.3718-.9789-.3718-1.8614,0-6.0095,.2892-15.0397,.8681-27.0888,.579-12.0483,.8688-21.0786,.8688-27.0895,0-6.3964-.2769-18.39-.8271-35.981-.0561-4.5767-.3042-11.3859-.7444-20.4306l-.0828-1.4062c-.0561-1.1026,1.102-1.6543,3.474-1.6543,3.0318,0,7.5811-.0957,13.6479-.2892,6.0655-.1928,10.6142-.2898,13.6479-.2898,.6057,0,1.4602,1.158,2.5635,3.474l24.1527,53.0202c1.709,3.5854,3.1432,5.3765,4.3012,5.3765,.607,0,1.9031-2.0679,3.8883-6.2036,5.5686-11.5801,13.8127-29.0329,24.7311-52.3585,.9379-2.1506,1.9564-3.2259,3.0611-3.2259,1.5982,0,4.0113,.0827,7.2365,.2481,3.2266,.1654,5.667,.2481,7.3213,.2481,1.3768,0,3.4863-.1367,6.3273-.4136,2.8396-.2755,4.9492-.4136,6.3273-.4136,1.6543,0,2.4814,.6617,2.4814,1.9852,0,6.5071-.2352,16.2265-.7027,29.1573-.4689,12.9315-.7027,22.6509-.7027,29.1566,0,6.0108,.2475,15.0268,.7437,27.0478,.4963,12.0224,.7451,21.0096,.7451,26.965Z"/>
      <path class="cls-2" d="M947.5266,1305.997c0,1.7097-.3862,3.943-1.158,6.6999-.6617,2.206-1.2961,4.4393-1.9024,6.6999-.2208,2.7583-.7444,6.7553-1.5716,11.9937-.1654,.7731-.8271,1.158-1.9852,1.158-2.0966,0-5.2521-.0273-9.4712-.0827-4.2178-.054-7.4026-.0827-9.5532-.0827-5.79,0-13.5652,.525-23.3256,1.5716-.5517,.0554-2.0405,.2769-4.4666,.6617-1.9312,.3309-3.4467,.4963-4.5493,.4963-1.4349,0-2.1506-1.3508-2.1506-4.053,0-1.4335,.9372-5.4305,2.8123-11.9937,1.8197-6.231,3.1432-10.2566,3.9703-12.0764,.3849-.8812,1.1026-1.3234,2.1506-1.3234,2.1506,0,5.3765,.1114,9.6776,.3309,4.3012,.2208,7.5271,.3309,9.6776,.3309,4.5206,0,11.9937-.6617,22.4157-1.9852,5.4592-.7157,8.0233-1.0753,7.6925-1.0753,1.158,0,1.737,.9099,1.737,2.7296Z"/>
      <path class="cls-2" d="M989.5095,1308.5612c0,6.5071,.1654,16.2948,.4963,29.3638s.4963,22.858,.4963,29.3638c0,1.104-.2481,1.7924-.7444,2.0679-.1114,.0554-.8271,.1654-2.1506,.3309-3.5854,.4409-8.3829,.6617-14.3924,.6617-8.0521,0-13.1804-.2208-15.385-.6617-1.6003-.3309-2.3987-1.1854-2.3987-2.5642,0,.8825,.2481-3.9703,.7444-14.5578,.9926-22.333,1.4889-37.0009,1.4889-44.0043,0-5.9001-.1941-14.7506-.579-26.5515-.3862-11.7995-.579-20.65-.579-26.5515,0-1.212,.633-1.8197,1.9024-1.8197,1.7083,0,4.2868,.0827,7.7342,.2481,3.4453,.1654,6.0238,.2481,7.7335,.2481,1.7083,0,4.2314-.0827,7.5681-.2481,3.3359-.1654,5.8591-.2481,7.5688-.2481,1.5989,0,2.3987,.6077,2.3987,1.8197,0,5.9015-.3179,14.752-.9509,26.5515-.6351,11.8009-.9516,20.6514-.9516,26.5515Z"/>
      <path class="cls-2" d="M1081.8657,1278.9493c0,1.104-.6077,1.6543-1.8197,1.6543-2.0966,0-10.3947-.4136-24.8972-1.2407-.3309,13.9515-.4963,23.6852-.4963,29.1983,0,6.5071,.2611,16.2948,.7854,29.3638,.5236,13.0689,.7861,22.858,.7861,29.3638,0,1.0479-.2481,1.7097-.7444,1.9852-.1654,.1114-.9386,.2481-2.316,.4136-3.3086,.4409-8.1614,.6617-14.5578,.6617-7.1135,0-12.1051-.2208-14.9714-.6617-1.5442-.2755-2.316-1.1293-2.316-2.5642,0-6.5058,.2755-16.2661,.8271-29.2811,.5503-13.0136,.8271-22.7739,.8271-29.2811,0-4.3012-.2208-13.8961-.6617-28.7848-11.0298,1.104-19.8242,1.6543-26.386,1.6543-.8825,0-1.3234-.2755-1.3234-.8271,0-.7157,.3849-2.8396,1.158-6.369,.8812-3.8589,1.3774-6.2036,1.4889-7.0308,.1654-2.5915,.3582-5.1823,.579-7.7752,.3849-4.1357,1.0466-6.2036,1.9852-6.2036,.1101,0,.4963,.0287,1.158,.0827,8.9332,1.158,22.1389,1.737,39.6204,1.737,4.9629,0,14.1155-.5236,27.4613-1.5716,7.1675-.5503,10.7803-.8271,10.8356-.8271,1.1026,0,1.737,.0697,1.9024,.2071,.1654,.1381,.2755,.6754,.3309,1.6126,0,1.4889-.0554,3.5567-.1654,6.2036-.1114,2.9237-.1654,4.9916-.1654,6.2036,0,1.3788,.1784,3.4057,.538,6.0792,.3575,2.6756,.5373,4.6737,.5373,5.9972Z"/>
      <path class="cls-2" d="M1182.2453,1350.9939c0,.8825-.579,2.0405-1.737,3.474-10.1466,12.0764-23.6291,18.1146-40.4476,18.1146-17.2047,0-31.1562-5.8728-41.8537-17.6183-10.4221-11.3593-15.6331-25.6956-15.6331-43.0117,0-16.7624,5.0996-30.9894,15.3022-42.6809,10.6415-12.2418,24.1801-18.3627,40.613-18.3627,17.8664,0,31.8726,5.4879,42.0191,16.4603,1.1026,1.2134,1.6543,2.2887,1.6543,3.2259,0,1.0479-1.9168,4.9355-5.7483,11.6628-3.8336,6.7286-6.2453,10.5048-7.2379,11.3319-.4423,.4423-.9926,.6617-1.6543,.6617-.2769,0-1.6543-1.1026-4.1357-3.3086-2.9777-2.6469-5.9015-4.7147-8.7678-6.2036-4.3565-2.2046-8.8792-3.3086-13.5652-3.3086-8.1061,0-14.5865,3.0331-19.438,9.0986-4.4666,5.6246-6.6999,12.5727-6.6999,20.8441,0,8.3829,2.2333,15.4137,6.6999,21.0923,4.8515,6.1763,11.3319,9.2641,19.438,9.2641,4.7975,0,9.3468-1.0466,13.6479-3.1432,2.8123-1.3774,5.6786-3.3086,8.6023-5.79,2.4261-2.0952,3.7762-3.1432,4.053-3.1432,.5503,0,1.1026,.3035,1.6543,.9099,.8812,.9926,3.2799,4.4393,7.1962,10.3394,4.0243,6.1209,6.0382,9.4849,6.0382,10.0912Z"/>
    </g>
    <g>
      <path class="cls-2" d="M350.1675,1308.5612c0,6.5071,.1654,16.2948,.4963,29.3638s.4963,22.858,.4963,29.3638c0,1.104-.2481,1.7924-.7445,2.0679-.1111,.0554-.8271,.1654-2.1506,.3309-3.5851,.4409-8.3826,.6617-14.3923,.6617-8.0517,0-13.18-.2208-15.3849-.6617-1.5999-.3309-2.3988-1.1854-2.3988-2.5642,0,.8825,.2481-3.9703,.7445-14.5578,.9926-22.333,1.4889-37.0009,1.4889-44.0043,0-5.9001-.1938-14.7506-.579-26.5515-.3865-11.7995-.579-20.65-.579-26.5515,0-1.212,.6333-1.8197,1.9025-1.8197,1.7086,0,4.2868,.0827,7.7338,.2481,3.4457,.1654,6.0238,.2481,7.7338,.2481,1.7086,0,4.2314-.0827,7.5684-.2481,3.3356-.1654,5.8584-.2481,7.5684-.2481,1.5986,0,2.3988,.6077,2.3988,1.8197,0,5.9015-.3179,14.752-.9512,26.5515-.6349,11.8009-.9514,20.6514-.9514,26.5515Z"/>
      <path class="cls-2" d="M418.371,1331.6386c0,11.1952-4.7148,20.7901-14.1443,28.7848-8.2715,7.0595-18.3357,11.5514-30.1909,13.4825-.4419,.054-.8002,.0827-1.0753,.0827-1.2691,0-4.0814-3.8746-8.4369-11.6211-4.3569-7.7472-6.5345-12.4763-6.5345-14.1859,0-.6063,.4136-.9926,1.2407-1.158,7.995-1.8197,13.2887-3.3626,15.8813-4.632,5.7343-2.8663,8.6024-7.1135,8.6024-12.7381,0-3.5841-1.8754-7.5811-5.6246-11.9937-6.5075-7.4983-10.0369-11.6628-10.5875-12.4899-3.8048-5.7347-5.7073-12.0764-5.7073-19.0244,0-10.0912,4.6591-18.4728,13.9788-25.1453,7.6098-5.5132,16.9565-9.0986,28.0403-10.7529,.606-.054,1.0753-.0827,1.4062-.0827,.8271,0,1.4889,.6617,1.9851,1.9852,1.4332,4.0257,4.7691,11.3046,10.0085,21.8367,.1654,.3309,.2481,.6077,.2481,.8271,0,.9386-.4963,1.4062-1.4889,1.4062-.4419,0-1.1864-.0827-2.2333-.2481-1.0483-.1654-1.8481-.2481-2.3988-.2481-3.9703,0-7.4444,.9099-10.4221,2.7296-3.5851,2.0966-5.3765,5.0183-5.3765,8.7678,0,3.364,1.9851,7.4997,5.9555,12.4072,7.0024,8.8231,10.6702,13.4552,11.0011,13.8961,3.9147,6.0669,5.8729,12.1051,5.8729,18.1146Z"/>
      <path class="cls-2" d="M523.6304,1350.9939c0,.8825-.579,2.0405-1.737,3.474-10.1469,12.0764-23.6294,18.1146-40.4476,18.1146-17.2047,0-31.1565-5.8728-41.8537-17.6183-10.4221-11.3593-15.6331-25.6956-15.6331-43.0117,0-16.7624,5.0999-30.9894,15.3023-42.6809,10.6418-12.2418,24.1797-18.3627,40.613-18.3627,17.8664,0,31.8722,5.4879,42.0191,16.4603,1.1023,1.2134,1.6543,2.2887,1.6543,3.2259,0,1.0479-1.9168,4.9355-5.7487,11.6628-3.8333,6.7286-6.245,10.5048-7.2376,11.3319-.4419,.4423-.9926,.6617-1.6543,.6617-.2765,0-1.6543-1.1026-4.1357-3.3086-2.9777-2.6469-5.9011-4.7147-8.7678-6.2036-4.3569-2.2046-8.8789-3.3086-13.5652-3.3086-8.1061,0-14.5862,3.0331-19.438,9.0986-4.4666,5.6246-6.6999,12.5727-6.6999,20.8441,0,8.3829,2.2333,15.4137,6.6999,21.0923,4.8518,6.1763,11.3319,9.2641,19.438,9.2641,4.7975,0,9.3467-1.0466,13.648-3.1432,2.8123-1.3774,5.679-3.3086,8.6024-5.79,2.4257-2.0952,3.7765-3.1432,4.053-3.1432,.5506,0,1.1023,.3035,1.6543,.9099,.8815,.9926,3.2802,4.4393,7.1962,10.3394,4.0246,6.1209,6.0381,9.4849,6.0381,10.0912Z"/>
      <path class="cls-2" d="M585.9612,1305.997c0,1.7097-.3865,3.943-1.158,6.6999-.6617,2.206-1.2965,4.4393-1.9024,6.6999-.2211,2.7583-.7444,6.7553-1.5716,11.9937-.1654,.7731-.8271,1.158-1.9851,1.158-2.0962,0-5.2524-.0273-9.4708-.0827-4.2185-.054-7.403-.0827-9.5535-.0827-5.79,0-13.5652,.525-23.3256,1.5716-.552,.0554-2.0409,.2769-4.4666,.6617-1.9308,.3309-3.447,.4963-4.5493,.4963-1.4345,0-2.1506-1.3508-2.1506-4.053,0-1.4335,.9369-5.4305,2.8123-11.9937,1.8197-6.231,3.1431-10.2566,3.9703-12.0764,.3852-.8812,1.1023-1.3234,2.1506-1.3234,2.1506,0,5.3765,.1114,9.6776,.3309,4.3011,.2208,7.5271,.3309,9.6776,.3309,4.5209,0,11.9937-.6617,22.4158-1.9852,5.4592-.7157,8.0233-1.0753,7.6925-1.0753,1.1579,0,1.7369,.9099,1.7369,2.7296Z"/>
      <path class="cls-2" d="M627.9438,1308.5612c0,6.5071,.1654,16.2948,.4963,29.3638s.4963,22.858,.4963,29.3638c0,1.104-.2481,1.7924-.7444,2.0679-.1111,.0554-.8271,.1654-2.1506,.3309-3.5851,.4409-8.3826,.6617-14.3923,.6617-8.0517,0-13.18-.2208-15.385-.6617-1.5999-.3309-2.3988-1.1854-2.3988-2.5642,0,.8825,.2481-3.9703,.7444-14.5578,.9926-22.333,1.4889-37.0009,1.4889-44.0043,0-5.9001-.1938-14.7506-.579-26.5515-.3865-11.7995-.579-20.65-.579-26.5515,0-1.212,.6333-1.8197,1.9024-1.8197,1.7086,0,4.2868,.0827,7.7338,.2481,3.4457,.1654,6.0239,.2481,7.7338,.2481,1.7086,0,4.2314-.0827,7.5684-.2481,3.3356-.1654,5.8584-.2481,7.5684-.2481,1.5986,0,2.3988,.6077,2.3988,1.8197,0,5.9015-.3179,14.752-.9512,26.5515-.6348,11.8009-.9513,20.6514-.9513,26.5515Z"/>
      <path class="cls-2" d="M747.6787,1311.0426c0,16.2121-5.211,30.2736-15.6331,42.1846-9.2097,10.6429-22.1406,16.2408-38.7932,16.7911-3.1989,.1101-11.9937,.1654-26.386,.1654-2.7025,0-6.7696-.0827-12.2004-.2481-5.4322-.1654-9.4992-.2481-12.2004-.2481-1.5999,0-2.3988-.633-2.3988-1.9024,0-6.0655,.2338-15.1778,.7031-27.3376,.468-12.1584,.7031-21.27,.7031-27.3369,0-6.3403-.2351-15.8402-.7031-28.4949-.4693-12.6561-.7031-22.1266-.7031-28.4129,0-1.158,.7988-1.8471,2.3988-2.0679,3.9146-.4409,10.3394-.6617,19.2726-.6617,16.9835,0,27.9846,.2481,33.0033,.7444,13.0689,1.3234,23.2972,4.632,30.6872,9.9258,6.948,4.9629,12.4342,11.9109,16.4602,20.8441,3.8591,8.4369,5.7899,17.122,5.7899,26.0552Zm-31.6798,0c0-9.3181-2.7853-16.9278-8.3542-22.8293-5.6247-6.1209-13.0689-9.1813-22.333-9.1813-8.4926,0-12.7381,1.1307-12.7381,3.3913,0,3.2546-.0557,8.1478-.1654,14.6815-.1111,6.5352-.1654,11.429-.1654,14.6822,0,3.1985,.0543,8.0104,.1654,14.4334,.1097,6.4251,.1654,11.2636,.1654,14.5168,0,2.3714,4.4109,3.5567,13.2343,3.5567,9.5392,0,17.0393-3.1705,22.4984-9.5122,5.1284-6.0095,7.6926-13.9234,7.6926-23.7392Z"/>
      <path class="cls-2" d="M878.7448,1367.1233c0,1.7097-.7998,2.5642-2.3994,2.5642h-29.2811c-1.5996,0-2.398-.9639-2.398-2.895,0-5.5692,.2064-13.9234,.6193-25.0626,.4143-11.1378,.6207-19.492,.6207-25.0626,0-1.5989-.2475-2.4527-.7438-2.5642-.6084,.3309-4.3012,8.8505-11.0838,25.5589-3.9703,9.8157-7.9406,19.6034-11.9109,29.3638-.5523,1.2681-1.2414,2.0125-2.0686,2.2333-.2762,.054-1.3781,.0827-3.3086,.0827-2.867,0-4.5773-.5517-5.1283-1.6543-2.9777-6.0655-6.8934-14.8887-11.7455-26.4688-5.183-12.2418-9.0713-21.0923-11.6621-26.5515-.1121-.2755-.3596-.579-.7451-.9099-.3855,.4963-.5783,1.2961-.5783,2.3987,0,5.4052,.1367,13.5112,.4129,24.3182,.2762,10.8083,.4143,18.9144,.4143,24.3182,0,1.9312-.7738,2.895-2.316,2.895h-27.6268c-1.104,0-1.7787-.1784-2.0269-.5373-.2481-.3582-.3718-.9789-.3718-1.8614,0-6.0095,.2892-15.0397,.8681-27.0888,.579-12.0483,.8688-21.0786,.8688-27.0895,0-6.3964-.2769-18.39-.8271-35.981-.0561-4.5767-.3042-11.3859-.7444-20.4306l-.0828-1.4062c-.0561-1.1026,1.102-1.6543,3.474-1.6543,3.0318,0,7.5811-.0957,13.6479-.2892,6.0655-.1928,10.6142-.2898,13.6479-.2898,.6057,0,1.4602,1.158,2.5635,3.474l24.1527,53.0202c1.709,3.5854,3.1432,5.3765,4.3012,5.3765,.607,0,1.9031-2.0679,3.8883-6.2036,5.5686-11.5801,13.8127-29.0329,24.7311-52.3585,.9379-2.1506,1.9564-3.2259,3.0611-3.2259,1.5982,0,4.0113,.0827,7.2365,.2481,3.2266,.1654,5.667,.2481,7.3213,.2481,1.3768,0,3.4863-.1367,6.3273-.4136,2.8396-.2755,4.9492-.4136,6.3273-.4136,1.6543,0,2.4814,.6617,2.4814,1.9852,0,6.5071-.2352,16.2265-.7027,29.1573-.4689,12.9315-.7027,22.6509-.7027,29.1566,0,6.0108,.2475,15.0268,.7437,27.0478,.4963,12.0224,.7451,21.0096,.7451,26.965Z"/>
      <path class="cls-2" d="M947.5266,1305.997c0,1.7097-.3862,3.943-1.158,6.6999-.6617,2.206-1.2961,4.4393-1.9024,6.6999-.2208,2.7583-.7444,6.7553-1.5716,11.9937-.1654,.7731-.8271,1.158-1.9852,1.158-2.0966,0-5.2521-.0273-9.4712-.0827-4.2178-.054-7.4026-.0827-9.5532-.0827-5.79,0-13.5652,.525-23.3256,1.5716-.5517,.0554-2.0405,.2769-4.4666,.6617-1.9312,.3309-3.4467,.4963-4.5493,.4963-1.4349,0-2.1506-1.3508-2.1506-4.053,0-1.4335,.9372-5.4305,2.8123-11.9937,1.8197-6.231,3.1432-10.2566,3.9703-12.0764,.3849-.8812,1.1026-1.3234,2.1506-1.3234,2.1506,0,5.3765,.1114,9.6776,.3309,4.3012,.2208,7.5271,.3309,9.6776,.3309,4.5206,0,11.9937-.6617,22.4157-1.9852,5.4592-.7157,8.0233-1.0753,7.6925-1.0753,1.158,0,1.737,.9099,1.737,2.7296Z"/>
      <path class="cls-2" d="M989.5095,1308.5612c0,6.5071,.1654,16.2948,.4963,29.3638s.4963,22.858,.4963,29.3638c0,1.104-.2481,1.7924-.7444,2.0679-.1114,.0554-.8271,.1654-2.1506,.3309-3.5854,.4409-8.3829,.6617-14.3924,.6617-8.0521,0-13.1804-.2208-15.385-.6617-1.6003-.3309-2.3987-1.1854-2.3987-2.5642,0,.8825,.2481-3.9703,.7444-14.5578,.9926-22.333,1.4889-37.0009,1.4889-44.0043,0-5.9001-.1941-14.7506-.579-26.5515-.3862-11.7995-.579-20.65-.579-26.5515,0-1.212,.633-1.8197,1.9024-1.8197,1.7083,0,4.2868,.0827,7.7342,.2481,3.4453,.1654,6.0238,.2481,7.7335,.2481,1.7083,0,4.2314-.0827,7.5681-.2481,3.3359-.1654,5.8591-.2481,7.5688-.2481,1.5989,0,2.3987,.6077,2.3987,1.8197,0,5.9015-.3179,14.752-.9509,26.5515-.6351,11.8009-.9516,20.6514-.9516,26.5515Z"/>
      <path class="cls-2" d="M1081.8657,1278.9493c0,1.104-.6077,1.6543-1.8197,1.6543-2.0966,0-10.3947-.4136-24.8972-1.2407-.3309,13.9515-.4963,23.6852-.4963,29.1983,0,6.5071,.2611,16.2948,.7854,29.3638,.5236,13.0689,.7861,22.858,.7861,29.3638,0,1.0479-.2481,1.7097-.7444,1.9852-.1654,.1114-.9386,.2481-2.316,.4136-3.3086,.4409-8.1614,.6617-14.5578,.6617-7.1135,0-12.1051-.2208-14.9714-.6617-1.5442-.2755-2.316-1.1293-2.316-2.5642,0-6.5058,.2755-16.2661,.8271-29.2811,.5503-13.0136,.8271-22.7739,.8271-29.2811,0-4.3012-.2208-13.8961-.6617-28.7848-11.0298,1.104-19.8242,1.6543-26.386,1.6543-.8825,0-1.3234-.2755-1.3234-.8271,0-.7157,.3849-2.8396,1.158-6.369,.8812-3.8589,1.3774-6.2036,1.4889-7.0308,.1654-2.5915,.3582-5.1823,.579-7.7752,.3849-4.1357,1.0466-6.2036,1.9852-6.2036,.1101,0,.4963,.0287,1.158,.0827,8.9332,1.158,22.1389,1.737,39.6204,1.737,4.9629,0,14.1155-.5236,27.4613-1.5716,7.1675-.5503,10.7803-.8271,10.8356-.8271,1.1026,0,1.737,.0697,1.9024,.2071,.1654,.1381,.2755,.6754,.3309,1.6126,0,1.4889-.0554,3.5567-.1654,6.2036-.1114,2.9237-.1654,4.9916-.1654,6.2036,0,1.3788,.1784,3.4057,.538,6.0792,.3575,2.6756,.5373,4.6737,.5373,5.9972Z"/>
      <path class="cls-2" d="M1182.2453,1350.9939c0,.8825-.579,2.0405-1.737,3.474-10.1466,12.0764-23.6291,18.1146-40.4476,18.1146-17.2047,0-31.1562-5.8728-41.8537-17.6183-10.4221-11.3593-15.6331-25.6956-15.6331-43.0117,0-16.7624,5.0996-30.9894,15.3022-42.6809,10.6415-12.2418,24.1801-18.3627,40.613-18.3627,17.8664,0,31.8726,5.4879,42.0191,16.4603,1.1026,1.2134,1.6543,2.2887,1.6543,3.2259,0,1.0479-1.9168,4.9355-5.7483,11.6628-3.8336,6.7286-6.2453,10.5048-7.2379,11.3319-.4423,.4423-.9926,.6617-1.6543,.6617-.2769,0-1.6543-1.1026-4.1357-3.3086-2.9777-2.6469-5.9015-4.7147-8.7678-6.2036-4.3565-2.2046-8.8792-3.3086-13.5652-3.3086-8.1061,0-14.5865,3.0331-19.438,9.0986-4.4666,5.6246-6.6999,12.5727-6.6999,20.8441,0,8.3829,2.2333,15.4137,6.6999,21.0923,4.8515,6.1763,11.3319,9.2641,19.438,9.2641,4.7975,0,9.3468-1.0466,13.6479-3.1432,2.8123-1.3774,5.6786-3.3086,8.6023-5.79,2.4261-2.0952,3.7762-3.1432,4.053-3.1432,.5503,0,1.1026,.3035,1.6543,.9099,.8812,.9926,3.2799,4.4393,7.1962,10.3394,4.0243,6.1209,6.0382,9.4849,6.0382,10.0912Z"/>
    </g>
  </g>
  <rect class="cls-1" x="150.4941" y="1132.3061" width="1196.4162" height="28.3098"/>
  <path class="cls-3" d="M166.7228,608.1819H1331.2713c8.3476,0,15.1147-6.767,15.1147-15.1147v-116.5622c0-8.3476-6.7671-15.1146-15.1147-15.1146H166.7228c-8.3476,0-15.1147,6.767-15.1147,15.1146v116.5622c0,8.3476,6.767,15.1147,15.1147,15.1147Z"/>
  <circle class="cls-6" cx="237.9464" cy="536.2278" r="23.1"/>
  <polygon class="cls-6" points="587.4937 486.7185 460.0996 486.7185 370.452 587.7032 497.846 587.7032 587.4937 486.7185"/>
  <polygon class="cls-6" points="815.4137 486.7185 688.0197 486.7185 598.3719 587.7032 725.7661 587.7032 815.4137 486.7185"/>
  <polygon class="cls-6" points="1046.4137 485.1785 919.0196 485.1785 829.372 586.1632 956.766 586.1632 1046.4137 485.1785"/>
  <polygon class="cls-6" points="1275.8737 485.1785 1148.4797 485.1785 1058.832 586.1632 1186.226 586.1632 1275.8737 485.1785"/>
  <path class="cls-4" d="M179.7989,515.4431l1139.7561-239.0178c8.1699-1.7133,13.404-9.7252,11.6906-17.8951l-23.9238-114.0807c-1.7133-8.1698-9.7251-13.404-17.895-11.6906L149.6707,371.7768c-8.1698,1.7133-13.4039,9.7252-11.6906,17.8951l23.9238,114.0807c1.7132,8.1698,9.7252,13.4039,17.895,11.6906Z"/>
  <circle class="cls-6" cx="234.738" cy="430.4026" r="23.1"/>
  <polygon class="cls-6" points="566.682 310.2044 442.0002 336.3514 374.9877 453.586 499.6696 427.439 566.682 310.2044"/>
  <polygon class="cls-6" points="789.7498 263.425 665.0679 289.572 598.0554 406.8065 722.7373 380.6596 789.7498 263.425"/>
  <polygon class="cls-6" points="1015.5159 214.5062 890.834 240.6532 823.8215 357.8877 948.5034 331.7407 1015.5159 214.5062"/>
  <polygon class="cls-6" points="1240.0908 167.4107 1115.4089 193.5577 1048.3964 310.7921 1173.0783 284.6452 1240.0908 167.4107"/>
  <rect class="cls-7" x="294.5988" y="664.8015" width="1022.2979" height="514.2945"/>
</svg>